<svg width="125px" height="87px" viewBox="0 0 125 87" version="1.1" xmlns="http://www.w3.org/2000/svg" xmlns:xlink="http://www.w3.org/1999/xlink">
    <g stroke="none" stroke-width="1" fill="none" fill-rule="evenodd">
        <g>
            <path d="M55.8913974,41.4005476 C55.8913974,41.4005476 57.8089211,44.3372251 60.3125219,46.7964674 C62.8176255,49.2542082 61.6349521,49.1476111 64.1235253,49.8337366 C66.6120984,50.5213636 71.3533112,51.8966175 71.3533112,51.8966175 L70.7507038,50.4853307 L71.3397863,50.3622185 C71.3397863,50.3622185 73.4887354,52.7058553 76.5708994,53.6231917 C79.6530634,54.5420295 90.2069579,57.9936766 90.2069579,57.9936766 L87.0887276,53.0601784 L88.0369702,53.2883865 C88.0369702,53.2883865 86.4605733,48.6941977 83.8412599,46.5907798 C81.2204437,44.487362 80.2722011,44.1420472 80.2722011,44.1420472 L82.0304322,42.3539168 L85.4867838,45.6314051 L85.0690161,38.3107304 L85.2658778,33.7030292 L87.1563519,33.6865142 L86.6589378,44.4408196 L87.4043076,48.4494745 L88.2353347,48.7977921 L90.0341403,38.268692 L92.2897854,39.1935353 C92.2897854,39.1935353 89.9965713,47.482593 90.0115989,49.2542082 C90.0281293,51.0258235 90.5240406,53.7387971 93.0441717,57.9696547 C95.5643029,62.2005122 109.37919,73.6559569 109.37919,73.6559569 L110.668559,72.3452619 C110.668559,72.3452619 115.447341,77.9738938 119.250831,80.3040184 C123.05432,82.6326415 124.486452,84.156531 124.486452,84.156531 L122.612508,86.1803762 C122.612508,86.1803762 112.733354,78.7065619 111.188515,77.657105 C109.642173,76.6076481 105.583214,72.2716948 103.809956,72.2867085 C102.036697,72.3017222 96.6132305,74.1213813 96.6132305,74.1213813 L94.7017178,71.776243 L101.307858,70.0646825 C101.307858,70.0646825 92.1214761,60.6946392 90.1648806,60.0610616 C88.2097878,59.4289853 72.5570232,54.3678707 69.602594,54.393394 C66.6466619,54.4189172 57.8179377,58.9845801 56.0567011,60.3583326 C54.2954646,61.7320851 51.8279301,63.526221 51.8279301,63.526221 L41.7924883,65.1492007 L32.9502392,68.1789632 L32.3476318,66.766175 C32.3476318,66.766175 50.5115109,61.6465071 50.038141,61.6510112 C49.5647711,61.6555153 59.3267103,55.6635521 59.3267103,55.6635521 L66.2844964,53.5946657 C66.2844964,53.5946657 66.6241205,51.8200477 61.5342671,51.2735494 C56.4459164,50.7270511 49.2371691,51.1444317 48.765302,51.2675439 C48.2934349,51.3891548 42.2673609,51.7960258 42.2673609,51.7960258 L41.7849745,50.7375607 L31.7405161,51.5332862 L31.7345051,50.706032 L40.7135055,49.9193147 C40.7135055,49.9193147 38.346656,49.7046189 49.1049261,49.6100327 L59.864699,49.5169478 L54.4742932,41.6497748 L55.8913974,41.4005476 L55.8913974,41.4005476 Z" fill="#9E8E7D"></path>
            <path d="M44.4888934,20.3109688 C44.4888934,20.3109688 54.468733,37.7493685 55.1915613,37.9730725 C55.9158924,38.1982778 54.0674956,38.4820366 54.0674956,38.4820366 L43.6037668,20.3620154 L44.4888934,20.3109688 Z" fill="#9E8E7D"></path>
            <path d="M32.2440915,54.9624128 C32.2440915,54.9624128 30.0230099,57.9351232 29.5601594,59.0025965 C29.095806,60.0685684 22.8142627,65.9674468 14.7910186,60.193182 C2.19637387,51.1309194 0.0128613005,30.7933763 0.0128613005,30.7933763 C0.0128613005,30.7933763 24.9857531,22.5403515 32.0276939,30.1582973 C39.0696346,37.7747417 37.8208397,43.5730283 36.3090616,46.5397333 C34.7972834,49.5064382 32.2440915,54.9624128 32.2440915,54.9624128" fill="#397F31"></path>
            <path d="M51.1268918,63.1271571 C51.1268918,63.1271571 46.9206622,60.9186435 44.9204865,66.0157909 C42.9203108,71.1129383 49.0004842,76.9667756 51.2576321,78.1288351 C53.5147799,79.2893933 56.1190657,79.6211958 56.1190657,79.6211958 C56.1190657,79.6211958 61.3035932,77.5688245 60.2742015,68.0081074 C59.2448098,58.4488916 51.1268918,63.1271571 51.1268918,63.1271571" fill="#397F31"></path>
            <path d="M34.8082536,67.2090789 C34.8082536,67.2090789 34.175591,62.5157997 25.0944028,65.1221761 C16.0132146,67.7270511 9.55434536,72.744626 9.55434536,72.744626 C9.55434536,72.744626 11.6416812,81.7047955 24.1747127,81.7138038 C36.7077442,81.722812 34.8082536,67.2090789 34.8082536,67.2090789" fill="#397F31"></path>
            <path d="M45.5257989,23.5024287 C45.5257989,23.5024287 40.1083434,28.2917955 35.4873516,25.2380111 C30.8678625,22.1827254 24.5592694,15.3935353 30.0984486,1.11401572 C42.9485628,-1.80014131 50.2594978,5.47399099 53.2635182,12.8156849 C53.5475401,20.7459154 45.5257989,23.5024287 45.5257989,23.5024287" fill="#397F31"></path>
            <path d="M51.1087084,42.4015102 C51.1087084,42.4015102 41.6277856,40.9827166 43.0088235,35.6393447 C44.3898614,30.2974742 48.653196,27.9328182 48.653196,27.9328182 C48.653196,27.9328182 54.1472923,28.8606641 57.288064,35.664868 C60.4273329,42.4705732 51.1087084,42.4015102 51.1087084,42.4015102" fill="#397F31"></path>
            <path d="M102.093652,19.5072861 C102.093652,19.5072861 90.1617248,14.1684183 83.8200709,24.2185816 C79.0247588,31.818511 84.6991865,35.3197033 84.6991865,35.3197033 C84.6991865,35.3197033 87.2779253,34.7822132 87.9090852,35.2776649 C89.67483,36.6634284 89.4554268,42.0158085 96.0615667,39.0415967 C102.669209,36.0658836 102.093652,19.5072861 102.093652,19.5072861" fill="#397F31"></path>
            <path d="M82.3109978,37.2402543 C82.3109978,37.2402543 82.4086773,31.5921046 73.4807708,31.8068003 C70.9937004,31.8653537 66.559051,34.8125408 66.559051,34.8125408 C66.559051,34.8125408 70.1476456,43.7982337 74.4755989,44.7666166 C78.8020495,45.7349996 84.0436819,43.4484147 84.610223,41.2969531 C85.1767641,39.1469928 81.6843462,37.7747417 81.6843462,37.7747417 L82.3109978,37.2402543 Z" fill="#397F31"></path>
            <path d="M94.217528,50.1685419 C94.217528,50.1685419 94.6383012,44.2591539 100.324751,45.3896847 C106.009698,46.5217169 107.335134,49.3457918 107.335134,49.3457918 C107.335134,49.3457918 103.010186,55.1711031 98.7558679,55.3272454 C94.5000472,55.4818864 94.1318706,53.831882 94.2385666,52.6488033 C94.3467655,51.467226 94.217528,50.1685419 94.217528,50.1685419" fill="#397F31"></path>
            <path d="M76.6101215,29.9863905 C76.6101215,29.9863905 71.9876269,31.1499514 71.4240913,26.528738 C70.8605557,21.9075245 72.686411,20.1884571 72.686411,20.1884571 C72.686411,20.1884571 78.2240874,22.0216285 79.411269,25.2285525 C80.5999534,28.4354765 79.4308049,29.1321116 78.5005955,29.3468074 C77.5703861,29.5615031 76.6101215,29.9863905 76.6101215,29.9863905" fill="#397F31"></path>
            <path d="M71.3543631,57.5150402 C71.3543631,57.5150402 69.7133475,55.5542524 66.9828297,56.6832818 C64.2508092,57.8123112 64.9691292,57.8528482 63.3611743,58.3843328 C61.7547222,58.9158174 61.2693302,59.9187318 61.1491093,61.0012188 C61.0288884,62.0837057 61.5864129,63.924384 64.1846877,63.7607348 C66.7844652,63.5970856 66.2479793,64.1300715 67.9460999,63.3508611 C69.6457232,62.573152 71.3708935,62.0281551 71.6864734,60.5688245 C72.0035561,59.1079926 71.3543631,57.5150402 71.3543631,57.5150402" fill="#E6225A"></path>
            <path d="M45.6959115,55.4752804 C45.6959115,55.4752804 46.7298114,52.0401484 41.7752065,53.2652654 C36.8190989,54.488881 37.6831868,58.6161441 37.6831868,58.6161441 C37.6831868,58.6161441 37.4667891,60.862192 39.1228324,61.0843946 C40.7803784,61.3065972 43.3741448,60.4568224 43.3741448,60.4568224 C43.3741448,60.4568224 47.0228499,58.5350702 45.6959115,55.4752804" fill="#E6225A"></path>
            <path d="M56.0870569,29.2642321 C56.0870569,29.2642321 52.7794787,29.6470812 52.034109,25.5198181 C51.2887392,21.3910536 51.977004,18.9047867 53.9892018,19.1239866 C55.9998968,19.3416851 56.1456646,19.0894551 57.3103048,20.3941447 C58.5906577,21.8294533 58.1578624,22.6236775 58.7619725,24.1580765 C59.3660827,25.6924755 58.7770001,30.2251082 56.0870569,29.2642321" fill="#E6225A"></path>
            <path d="M59.7707764,28.0268039 C59.7707764,28.0268039 55.5660495,30.8733993 59.880478,34.1088492 C64.1949064,37.3427978 67.8901972,32.1315464 67.8901972,32.1315464 C67.8901972,32.1315464 69.296782,28.8030116 66.9554795,27.4187494 C64.6156797,26.0344873 59.7707764,28.0268039 59.7707764,28.0268039" fill="#E6225A"></path>
            <path d="M82.2161735,46.4311843 C82.2161735,46.4311843 78.3059879,45.4027466 77.9828942,49.0375607 C77.6598004,52.6723748 80.3362188,54.5986311 81.7548257,54.5866202 C83.1734326,54.5731078 84.5725037,52.2895257 84.5559733,50.414316 C84.5394429,48.5376049 83.2756204,46.5618034 82.2161735,46.4311843" fill="#E6225A"></path>
        </g>
    </g>
</svg>
