<?xml version="1.0" encoding="UTF-8" standalone="no"?>
<svg width="32px" height="32px" viewBox="0 0 32 32" version="1.1" xmlns="http://www.w3.org/2000/svg" xmlns:xlink="http://www.w3.org/1999/xlink">
    <!-- Generator: Sketch 3.8.3 (29802) - http://www.bohemiancoding.com/sketch -->
    <title>Slice 1</title>
    <desc>Created with Sketch.</desc>
    <defs></defs>
    <g id="Page-1" stroke="none" stroke-width="1" fill="none" fill-rule="evenodd">
        <path d="M19.3426278,6.42564897 C19.0127188,6.42429132 18.6929922,6.28920513 18.3820903,6.29056278 C18.0501448,6.29192043 17.7202359,6.08012701 17.4127281,6.09709763 C17.0773885,6.11135296 16.7658078,6.29327808 16.4630518,6.33672288 C16.1304276,6.38559829 15.8636493,6.60350113 15.5744698,6.70193077 C15.2608526,6.80646983 14.9743885,6.88046176 14.7184714,7.06170805 C14.4652697,7.24363317 14.3152493,7.4880102 14.1244995,7.76632848 C13.9378226,8.03853733 13.5346005,8.21571067 13.4443168,8.544262 C13.3601425,8.84837563 13.3126247,9.20543762 13.2786834,9.55095958 C13.2481363,9.86932854 13.2175892,10.2073834 13.2040127,10.5556207 C13.191115,10.8773838 13.354033,11.2161175 13.3343471,11.5602818 C13.3173765,11.8820449 13.3255224,12.2574351 13.2861505,12.59549 C12.9833945,12.59549 12.6385514,12.638256 12.3351166,12.638256 C12.0337183,12.638256 11.8660485,12.6660878 11.5639713,12.6660878 C11.5639713,13.0272228 11.4404252,13.2749939 11.4404252,13.6340924 C11.4404252,13.996585 11.2462812,14.3550046 11.2462812,14.7168183 C11.2462812,15.0759168 11.3413167,15.5157955 11.3413167,15.8755727 C11.6596857,15.8755727 12.0642654,15.6474875 12.383992,15.6474875 C12.702361,15.6474875 13.0485617,15.7717125 13.3662519,15.7717125 C13.3662519,16.0927968 13.3947625,16.4396764 13.3947625,16.7634759 C13.3947625,17.0845602 13.478258,17.4049656 13.478258,17.7267287 C13.478258,18.0484918 13.4578933,18.3702549 13.4578933,18.6906603 C13.4578933,19.0131022 13.5074475,19.3355441 13.5074475,19.6539131 C13.5074475,19.9756762 13.489798,20.2981181 13.489798,20.6212388 C13.489798,20.9409654 13.5278122,21.2620497 13.5278122,21.5851704 C13.5278122,21.9035393 13.412412,22.2273389 13.412412,22.5477443 C13.412412,22.8708651 13.4151273,23.1905917 13.4151273,23.5123548 C13.4151273,23.8327602 13.4192002,24.1552021 13.4192002,24.4769652 C13.4192002,24.7973706 13.3166976,25.1422137 13.3166976,25.4626192 C13.6500008,25.4626192 14.0063839,25.3295695 14.3403658,25.3295695 C14.6743478,25.3295695 15.0090085,25.5372899 15.3429905,25.5372899 C15.6769724,25.5372899 16.0109543,25.501991 16.3449363,25.501991 C16.6789182,25.501991 16.8825657,25.30038 17.2172265,25.30038 C17.2226571,24.9826899 17.2532042,24.8014436 17.2545619,24.4769652 C17.2565983,24.1579174 17.4969024,23.8347967 17.4955448,23.5137124 C17.4948659,23.1926282 17.4561729,22.8708651 17.4527788,22.5463867 C17.4507423,22.2259813 17.2674595,21.9035393 17.2640654,21.5817763 C17.2606713,21.260692 17.2470948,20.9382501 17.2450583,20.6185235 C17.2416642,20.2954028 17.3231232,19.9729609 17.3217655,19.6525554 C17.3217655,19.3301135 17.1663146,19.006314 17.1690299,18.6859085 C17.1731029,18.3634666 17.3061526,18.0417035 17.3142985,17.7246922 C17.3231232,17.399535 17.3848963,17.0798084 17.3998304,16.7600818 C17.4140858,16.4376399 17.3638527,16.060892 17.3876116,15.7452383 C17.6733969,15.7452383 18.0155248,15.6990782 18.3019889,15.6990782 C18.589132,15.6990782 18.8749173,15.8368797 19.1613815,15.8368797 C19.4478457,15.8368797 19.6311284,15.7228371 19.9182714,15.7228371 C19.9135197,15.3406586 19.9399938,15.0487638 19.9752927,14.702563 C20.0133069,14.3373551 20.1857285,13.9979426 20.2318886,13.6388441 C20.2766911,13.2892492 20.3907337,12.8473341 20.4077043,12.4692285 C20.0784742,12.4692285 19.6494567,12.676949 19.3202265,12.676949 C18.9909964,12.676949 18.6624451,12.731255 18.3338937,12.731255 C18.0046636,12.731255 17.7188782,12.5133522 17.3896481,12.5133522 C17.4222317,12.2065232 17.3652104,11.8949425 17.3489186,11.5392382 C17.3312691,11.1842127 17.133731,10.8115377 17.1663146,10.5033512 C17.2077229,10.1089538 17.48672,9.74849767 17.7996584,9.62223621 C18.0331742,9.54485015 18.3400032,9.62902446 18.6447956,9.62223621 C18.9129315,9.61884209 19.2014322,9.40636984 19.4817869,9.41655222 C19.7696087,9.42401929 19.9841175,9.55706901 20.2434286,9.53738308 C20.2434286,9.2617801 20.2373192,9.037089 20.2373192,8.75944955 C20.2373192,8.4790948 20.3296394,8.20077652 20.3296394,7.92381589 C20.3296394,7.64549761 20.4226385,7.36650051 20.4226385,7.08818223 C20.4226385,6.80782748 20.2956982,6.54444335 20.2956982,6.26612507 C19.9678257,6.26612507 19.656245,6.42836427 19.3426278,6.42564897 M6.66421198,28.6055792 C7.13260127,28.556025 7.81821459,28.7196219 7.91528658,28.2946774 C7.50052446,27.8907764 6.74974394,27.8833094 6.66421198,28.6055792 M4.78793949,6.39917479 C4.55985427,7.35563931 5.32760542,7.31694628 5.10019902,8.27544728 C4.48586233,9.12669391 2.76368313,10.8705955 1.97217311,12.6531901 C1.80110919,13.0421569 2.18736065,13.9001918 1.97217311,14.5308203 C1.65312532,15.4682777 1.12499942,15.0759168 1.03403686,15.7825737 C0.851432918,17.182311 0.539173386,19.4760609 2.28511146,20.1609954 C3.22053241,19.068087 1.63411822,18.4965163 1.97217311,17.0329695 C3.51174836,15.7574572 2.78065376,12.2126327 5.10019902,11.7143751 C1.8744223,19.7794957 7.22695796,26.8752541 14.1713384,27.6694795 C20.8489406,28.4318 26.4329556,24.3018283 27.6215783,17.3459078 C26.5436041,16.2299194 27.4281132,15.3297974 27.6215783,13.9063012 C26.4506051,12.8161082 26.5938372,12.3185294 26.3705037,10.4639793 C24.1765411,8.2978485 22.8711605,5.14334841 19.1756368,4.52222347 C17.6910464,4.27241585 14.7707409,4.03143295 12.6073254,4.52222347 C9.02855969,5.33341943 7.85147702,9.2835025 5.41245855,11.0891772 L5.41245855,9.21358352 C7.3443947,7.2877568 9.56211619,5.64771544 11.3562508,3.58205075 C7.61185177,2.85299263 7.56501284,7.16964124 4.78793949,6.39917479 M14.1713384,3.27047005 C15.2968304,3.44492809 17.3197291,4.05790713 17.9245622,2.95753169 C17.22673,2.56720728 14.3973872,2.20539352 14.1713384,3.27047005 M31.0618638,19.2228592 C31.5832014,11.7876882 28.430059,6.56073515 24.1792564,2.64391451 C22.4998432,2.86724796 21.6173706,2.288889 20.4267114,2.0207531 C20.5570458,3.97237517 21.867857,3.34921376 23.2411201,3.58205075 C26.5307064,6.02989395 28.068924,10.2263905 29.811468,14.2178819 C29.7585196,16.6969511 29.3043857,18.7890899 29.811468,21.0998105 C27.3113553,23.4756982 26.4743639,27.9009588 22.6159223,29.545752 C21.2840675,30.1139285 18.0019483,30.2476571 15.4210554,30.4838882 C15.026658,30.5198659 14.1991702,31.1043343 13.8570424,31.1090861 C13.1646408,31.1240202 11.9101721,30.4988224 11.0433125,30.4838882 C10.559989,30.4777788 10.0264325,30.845702 9.79223789,30.7961477 C7.10137532,30.2469783 4.39354212,28.296035 3.53618606,26.1054665 C5.11716965,25.9839568 4.71394756,27.8452952 6.35195245,27.6694795 C5.71521453,25.8013529 3.34747269,22.9584335 2.28511146,20.4752914 C0.558859313,21.7603073 2.95579063,23.5605513 3.22392653,24.8543919 C1.64633707,25.3791237 0.357927093,21.3041368 0.0952217915,19.2228592 C-0.458020639,14.826788 1.53433094,10.1958434 2.59804982,7.33731103 C5.93515385,3.33088548 11.984164,-0.823523939 19.4885752,0.141086483 C23.2363684,0.626446407 24.9666935,3.08175668 27.933159,4.52222347 C27.9514873,6.69378487 29.5860981,7.2497426 30.7489254,8.27544728 C29.8182562,9.7681836 31.3035255,11.1631691 32,12.0279923 C31.3720868,14.6849136 32,16.2849043 31.0618638,19.2228592" id="facebook" fill="#397F31"></path>
    </g>
</svg>