<?xml version="1.0" encoding="UTF-8" standalone="no"?>
<svg width="32px" height="34px" viewBox="0 0 32 34" version="1.1" xmlns="http://www.w3.org/2000/svg" xmlns:xlink="http://www.w3.org/1999/xlink">
    <!-- Generator: Sketch 3.8.3 (29802) - http://www.bohemiancoding.com/sketch -->
    <title>Slice 1</title>
    <desc>Created with Sketch.</desc>
    <defs></defs>
    <g id="Page-1" stroke="none" stroke-width="1" fill="none" fill-rule="evenodd">
        <path d="M19.4103735,10.778 C19.4588417,11.500747 19.4139373,12.4195053 19.5928422,13.0125286 C20.0440245,13.2113909 21.2664222,13.1329864 21.8216687,13.1721887 C22.0739886,12.6632721 22.0077012,11.2869165 21.7568067,10.778 C21.1431132,10.6753613 19.9007581,10.5000203 19.4103735,10.778 L19.4103735,10.778 Z M17.9563262,17.3482981 C17.9271027,16.0603258 16.8009288,15.7488461 16.1237989,15.7203353 C15.2984132,15.6832714 14.7125176,16.0745812 14.483719,16.6704555 C14.2456544,17.2919895 14.4423784,18.0468111 14.8778799,18.5621426 C15.2478066,18.9990695 15.7339146,19.1031337 16.6020664,18.9163884 C17.1972279,18.4580784 17.9755709,18.2549394 17.9563262,17.3482981 L17.9563262,17.3482981 Z M8.71314684,15.8386549 C8.75733847,16.5770828 8.86710479,17.3169363 8.84500898,18.0354068 C8.82291316,18.8016327 8.68321057,19.5429117 8.68891272,20.2328715 C8.69817871,21.0447146 8.88064739,21.7638978 9.09091404,22.3804424 C9.33254249,23.0875085 9.78586313,23.4652757 10.5406848,23.7824576 C11.2007082,24.0590117 12.1116261,24.3220232 13.1985978,24.3063423 C14.0988241,24.2927997 15.0689018,24.4061299 15.9669898,24.4061299 C16.9128334,24.4061299 17.8836238,24.2215229 18.7774352,24.2350655 C19.8900666,24.2507464 20.9478147,24.4104065 21.6185297,24.1310013 C22.3762024,23.8188088 22.7454164,23.076817 22.9941725,22.3341124 C23.2101413,21.6890571 23.2144179,20.9242567 23.2194073,20.1052859 C23.2243967,19.3782623 23.2158435,18.6127491 23.1723646,17.8507998 C23.1295985,17.0767334 23.1410028,16.2798585 23.1652369,15.5678029 C22.1010738,15.5678029 20.9905808,15.5713668 19.9271305,15.5713668 C20.2770998,16.4494973 20.4495897,17.3504365 20.3113126,18.1408965 C20.1545036,19.0233037 19.6505764,19.7859657 19.0746596,20.3868294 C18.4638172,21.0233315 17.7146977,21.6498548 16.8700673,21.7610467 C16.0183092,21.8743769 15.292711,21.4288967 14.6319748,21.1872682 C13.8771532,20.9114269 13.1743636,20.6241813 12.7267451,20.0161899 C12.2819777,19.4110496 12.1600943,18.6462492 12.0752749,17.8529381 C11.9990087,17.1280527 11.8878169,16.4316781 12.157956,15.6583245 C11.0667078,15.6583245 10.0374703,15.6070052 8.94764761,15.6070052 C8.84500898,15.6405053 8.70887023,15.7025161 8.71314684,15.8386549 L8.71314684,15.8386549 Z M21.7439769,9.86280545 C21.0768258,9.53992141 20.0468756,9.58625135 18.9435103,9.59337903 C18.0347307,9.59908118 17.0539615,9.54847463 16.1266499,9.54847463 C15.3647006,9.54847463 14.5678257,9.64042174 13.8080147,9.62188977 C12.964097,9.60050672 12.1871795,9.74092207 11.5221667,9.81504998 C10.7659195,9.8998694 10.1515133,9.9269546 9.7302672,10.3089984 C9.26768058,10.7266806 8.81222163,11.2826399 8.67251905,11.9619081 C8.55491228,12.5349738 8.7544874,13.1921462 8.81364717,13.884957 C9.57417095,13.8543079 10.3403969,14.1479685 11.1294314,14.2121176 C11.9619448,14.2776923 12.7844794,14.1422663 13.4929711,13.992585 C13.7317484,13.9412657 13.9063767,13.7146054 14.0981114,13.614105 C14.7937732,13.2527315 15.7959254,13.0125286 16.8501098,13.1664865 C17.6412826,13.2826678 18.0268902,13.8949357 18.7546267,14.0275106 C19.4973312,14.1650749 20.2193655,14.1173194 20.9549424,14.0581597 C21.6506043,14.0011382 22.3198937,13.8457547 23.1032261,13.9384146 C23.2764288,13.1237204 23.3092161,12.3810159 23.1082154,11.7010349 C22.8687253,10.8870535 22.4025748,10.1807001 21.7439769,9.86280545 L21.7439769,9.86280545 Z M10.8714093,8.1685552 C11.6041351,8.06092719 12.6055745,7.92763952 13.6911207,7.9369055 C14.6262727,7.94474595 15.6148823,8.07375702 16.5258002,8.07375702 C17.4894629,8.07375702 18.445998,7.88915003 19.3355328,7.87346912 C20.3897171,7.85422438 21.4246567,7.76940495 22.1851805,8.06092719 C22.7354376,8.27261937 23.1459922,8.85352554 23.5615361,9.27619714 C24.0341015,9.7537519 24.2258361,10.3496262 24.4018899,10.7979575 C24.7789443,11.7644713 24.9457321,12.8621345 24.9457321,13.6012752 C24.9457321,14.5627996 24.7297633,15.5713668 24.7297633,16.7909133 C24.7297633,17.4352559 24.9321895,18.1273539 24.9485832,18.8208775 C24.9649769,19.5165393 25.0426686,20.2136267 25.0191473,20.8579693 C24.9913493,21.6263335 24.8737425,22.3319741 24.696976,22.8651248 C24.4859966,23.5037652 24.0369525,24.0590117 23.5558339,24.5372792 C23.0433535,25.0476213 22.4453409,25.4196864 21.8594454,25.6114211 C21.3797523,25.7682301 20.6976331,25.9400072 19.9178645,25.9542626 C19.2927667,25.9678052 18.6099347,25.8551878 17.941358,25.8323792 C17.2449834,25.8109962 16.5600131,25.9934649 15.9669898,25.9934649 C15.3490197,25.9934649 14.677592,25.6377935 14.0140047,25.6470595 C13.3418642,25.6584638 12.6761386,25.8751453 12.0667217,25.8523367 C11.2940809,25.8245388 10.6604298,25.6000168 10.1864389,25.4367928 C9.57559648,25.2286645 8.91699857,25.1003662 8.45583748,24.6898116 C7.97756995,24.2657145 7.64613269,23.6848083 7.4166213,23.0989128 C7.21276957,22.5800175 6.99751354,21.880079 6.95759851,21.1045871 C6.92338564,20.4595318 7.24912075,19.7595933 7.26266335,19.0667825 C7.27620594,18.3625674 7.18140776,17.6612034 7.18140776,17.0296907 C7.18140776,16.3026671 6.95688575,15.6205478 6.937641,14.9754925 C6.91625795,14.2313624 7.17641838,13.5421154 7.19352482,12.9170176 C7.21633341,12.1465151 7.31398266,11.5228428 7.51569609,10.9433622 C7.53707914,10.8827769 7.63829224,10.8621066 7.66110083,10.7630318 C7.82004816,10.0901785 8.04243187,9.26122901 8.68891272,8.78723809 C9.294053,8.3417579 10.1636303,8.2697683 10.8714093,8.1685552 L10.8714093,8.1685552 Z M31.3528064,15.6911118 L31.9992872,15.6911118 L31.9992872,14.3974374 L31.3528064,14.3974374 L31.3528064,15.6911118 Z M3.52704468,14.3967246 C4.51280324,14.3938735 4.86562355,12.4986226 3.52704468,12.7815916 L3.52704468,14.3967246 Z M18.7339564,32.1924108 L20.9998468,32.1924108 C21.279252,30.7112783 18.8016694,31.2529822 18.7339564,32.1924108 L18.7339564,32.1924108 Z M22.6171181,30.5744267 C24.4703157,30.9194066 24.7197846,29.6585195 25.5294894,28.9578682 C25.0840092,28.9699853 24.8188594,28.8039103 24.5586989,28.6335587 C24.503103,29.8716372 22.4781283,29.1410497 22.6171181,30.5744267 L22.6171181,30.5744267 Z M26.8231638,27.6620555 C27.7212519,27.5900659 27.7397839,26.6363819 28.4411479,26.368381 C28.0042209,26.2671679 27.822465,25.9093582 27.1474734,26.0447842 C26.8751959,26.4204131 26.7205252,26.9136487 26.8231638,27.6620555 L26.8231638,27.6620555 Z M28.4411479,25.0747065 L29.4119383,25.0747065 C29.3378104,24.500928 29.7383862,23.4545842 28.7647447,23.7796065 C28.6635316,24.2165335 28.3042964,24.3982894 28.4411479,25.0747065 L28.4411479,25.0747065 Z M30.3827287,23.1338384 C30.1902813,22.4631235 30.7833045,21.0076506 30.0598447,20.8686608 C29.4518533,21.2521301 28.8288938,23.2856581 30.3827287,23.1338384 L30.3827287,23.1338384 Z M20.9998468,0.48348738 C13.6241204,0.425040379 7.66822851,2.90191023 3.52704468,8.25052356 C3.39090594,8.42301348 3.68884309,9.07733478 3.52704468,9.21846291 C2.53843505,10.0859019 3.17992652,9.99609312 2.55625426,11.8072374 C2.41013675,12.2334728 1.69808122,12.2284834 1.58475106,12.7815916 C1.35381413,13.9134677 1.75866653,14.2734157 1.58475106,15.367515 C1.66957049,16.3147841 0.853450785,16.3604013 0.937557444,17.3090959 C1.59401705,22.4381766 3.2162777,27.48814 7.73237766,29.6043491 C7.97471888,28.6086118 6.61760803,29.2094754 7.08660958,27.9870778 C8.71813622,27.9728224 8.76803,29.5387744 9.99826809,29.9279459 C13.7766528,30.1360742 16.1352032,31.2957483 19.058266,30.5744267 C20.6121009,30.1930957 22.9050765,28.9350596 23.9115053,27.9870778 C26.0362676,25.9863372 25.727639,22.2271972 28.4411479,20.5436384 C27.1952289,19.0325696 28.3263922,17.8721828 29.0883415,16.6619023 C29.3264061,15.2349401 28.0412849,15.3361532 27.794667,14.3967246 C28.1596044,6.99177474 20.7831652,2.99955948 13.8814298,4.36664908 C10.4922165,5.03665129 8.62333803,7.61330869 6.11581915,9.21846291 C6.14789372,7.70953241 7.91912295,6.83924232 9.02819043,5.98463313 C10.0438853,5.19916246 11.2926553,3.86628574 12.5870426,3.39728419 C15.4830202,2.34309988 19.3512137,3.0508788 21.6470404,0.807796957 C24.4745923,2.484228 27.4432723,3.95894562 29.0883415,6.30822994 C29.4162149,6.77723148 28.8331704,6.9454448 29.0883415,7.60047886 C29.3406615,8.25123632 30.2701113,8.53491811 30.3827287,8.89629164 C30.5958464,9.57270875 30.0548553,9.75232637 30.0598447,10.1892533 C30.0669724,10.9269685 30.9885818,11.6397368 31.0292096,12.1322597 C31.1482419,13.5770411 30.2779518,15.2270997 30.7063255,16.9847863 C30.5673357,17.8793105 31.9123295,17.2884256 32,17.954864 C31.1090396,19.0382718 31.8439037,20.6776389 31.677116,21.5144289 C30.5267079,27.2835755 25.5694044,30.0626591 21.6470404,33.1632012 C12.0346471,35.6286668 5.07446466,30.7647359 1.58475106,24.4275129 C0.764354747,22.9378272 0.541258269,22.0910584 0.614673404,19.8978704 C-0.540011244,18.520802 0.212672082,17.4666177 0.614673404,15.6911118 C0.814248528,14.8144068 0.469268671,13.7473927 0.614673404,13.1023374 C2.35881744,5.40657803 11.5022092,-1.98269094 20.9998468,0.48348738 L20.9998468,0.48348738 Z" id="instagram" fill="#397F31"></path>
    </g>
</svg>