<svg width="442px" height="190px" viewBox="0 0 442 190" version="1.1" xmlns="http://www.w3.org/2000/svg" xmlns:xlink="http://www.w3.org/1999/xlink">
    <g stroke="none" stroke-width="1" fill="none" fill-rule="evenodd">
        <g>
            <g transform="translate(146.135501, 0.000000)">
                <path d="M66.9485031,49.5944059 C66.9485031,49.5944059 69.2453744,53.1123009 72.2442674,56.0582682 C75.2449606,59.002437 73.8283166,58.8747424 76.8092091,59.6966637 C79.7901016,60.5203835 85.4692779,62.1678231 85.4692779,62.1678231 L84.7474555,60.4772191 L85.4530774,60.3297409 C85.4530774,60.3297409 88.0271573,63.1372225 91.7190719,64.2361151 C95.4109865,65.3368062 108.052779,69.4715917 108.052779,69.4715917 L104.317663,63.561672 L105.453498,63.8350463 C105.453498,63.8350463 103.56524,58.3315909 100.427742,55.8118717 C97.2884447,53.2921524 96.1526095,52.878494 96.1526095,52.878494 L98.2586749,50.7364628 L102.398803,54.6626207 L101.898388,45.8930624 L102.134195,40.3734204 L104.398665,40.3536368 L103.802847,53.2363984 L104.695675,58.038433 L105.691106,58.4556885 L107.845772,45.842704 L110.547656,46.9505891 C110.547656,46.9505891 107.800771,56.8801895 107.818772,59.002437 C107.838572,61.1246845 108.432591,64.3746007 111.451284,69.4428155 C114.469978,74.5110303 131.017892,88.2336984 131.017892,88.2336984 L132.56234,86.6635949 C132.56234,86.6635949 138.286517,93.406227 142.842459,96.197522 C147.3984,98.9870185 149.113853,100.812511 149.113853,100.812511 L146.869184,103.236909 C146.869184,103.236909 135.035616,94.2839022 133.185159,93.0267404 C131.332901,91.7695785 126.47095,86.5754677 124.346885,86.5934529 C122.222819,86.611438 115.726417,88.791238 115.726417,88.791238 L113.436746,85.9819578 L121.349792,83.9316509 C121.349792,83.9316509 110.34605,72.7071199 108.002377,71.9481467 C105.660505,71.1909719 86.9111227,65.1281784 83.3722128,65.1587532 C79.8315029,65.189328 69.2561747,70.6586115 67.1465092,72.3042526 C65.0368437,73.9498937 62.081152,76.0991189 62.081152,76.0991189 L50.0603789,78.0433134 L39.4688502,81.6727163 L38.7470278,79.9803139 C38.7470278,79.9803139 60.5043031,73.8473783 59.9372855,73.8527739 C59.3702679,73.8581694 71.0634308,66.6802967 71.0634308,66.6802967 L79.3976895,64.2019433 C79.3976895,64.2019433 79.8045021,62.0760988 73.7077129,61.4214394 C67.6127237,60.76678 58.9778557,61.2667671 58.4126382,61.4142453 C57.8474206,61.559925 50.6291966,62.0473226 50.6291966,62.0473226 L50.0513786,60.7793696 L38.0198052,61.7325825 L38.012605,60.7416008 L48.7679388,59.799179 C48.7679388,59.799179 45.9328508,59.5419914 58.8194508,59.428685 L71.7078508,59.3171771 L65.2510504,49.8929594 L66.9485031,49.5944059 L66.9485031,49.5944059 Z" fill="#9E8E7D"></path>
                <path d="M53.2902192,24.3308481 C53.2902192,24.3308481 65.2443902,45.2205977 66.1102171,45.4885764 C66.977844,45.7583537 64.7637753,46.098273 64.7637753,46.098273 L52.2299863,24.3919976 L53.2902192,24.3308481 Z" fill="#9E8E7D"></path>
                <path d="M38.6230039,65.8403903 C38.6230039,65.8403903 35.9625214,69.4014497 35.4081042,70.6801937 C34.8518869,71.9571392 27.3276534,79.023504 17.7171551,72.106416 C2.63088685,61.2505805 0.015405677,36.8878987 0.015405677,36.8878987 C0.015405677,36.8878987 29.9287341,27.0014627 38.3637959,36.1271269 C46.7988577,45.2509926 45.3030113,52.1968569 43.4921551,55.7507222 C41.6812989,59.3045875 38.6230039,65.8403903 38.6230039,65.8403903" fill="#397F31"></path>
                <path d="M61.241426,75.6210736 C61.241426,75.6210736 56.2030696,72.9754583 53.8071952,79.0814161 C51.4113209,85.187374 58.6943469,92.1997833 61.3980308,93.5918337 C64.1017147,94.9820857 67.2212115,95.3795575 67.2212115,95.3795575 C67.2212115,95.3795575 73.4314043,92.9209877 72.198366,81.4680453 C70.9653278,70.0169014 61.241426,75.6210736 61.241426,75.6210736" fill="#397F31"></path>
                <path d="M41.6944393,80.5108757 C41.6944393,80.5108757 40.9366157,74.8887184 30.0588781,78.0109401 C19.1811405,81.1313633 11.4445004,87.1419999 11.4445004,87.1419999 C11.4445004,87.1419999 13.944778,97.8755363 28.9572439,97.8863274 C43.9697099,97.8971185 41.6944393,80.5108757 41.6944393,80.5108757" fill="#397F31"></path>
                <path d="M54.5322577,28.153951 C54.5322577,28.153951 48.0430563,33.8912133 42.5078845,30.2330342 C36.9745128,26.5730565 29.4178782,18.4401725 36.0528842,1.334498 C51.4451619,-2.15641927 60.2024337,6.55738504 63.8007454,15.3521225 C64.1409559,24.8518778 54.5322577,28.153951 54.5322577,28.153951" fill="#397F31"></path>
                <path d="M61.2196453,50.7934758 C61.2196453,50.7934758 49.8630928,49.0938793 51.5173441,42.692965 C53.1715955,36.2938493 58.278354,33.4611884 58.278354,33.4611884 C58.278354,33.4611884 64.8593582,34.5726706 68.621475,42.7235398 C72.3817917,50.8762074 61.2196453,50.7934758 61.2196453,50.7934758" fill="#397F31"></path>
                <path d="M122.291041,23.3681031 C122.291041,23.3681031 107.998597,16.9725844 100.402361,29.0118426 C94.6583831,38.1159246 101.455394,42.3100612 101.455394,42.3100612 C101.455394,42.3100612 104.54429,41.6661929 105.300313,42.2597028 C107.415379,43.919732 107.152571,50.3314373 115.065616,46.7685794 C122.980462,43.2039231 122.291041,23.3681031 122.291041,23.3681031" fill="#397F31"></path>
                <path d="M98.5947453,44.6107214 C98.5947453,44.6107214 98.7117489,37.8447086 88.017617,38.1018962 C85.0385245,38.1720383 79.7265597,41.7025229 79.7265597,41.7025229 C79.7265597,41.7025229 84.0250931,52.4666341 89.209254,53.6266762 C94.3916148,54.7867182 100.67021,52.0475801 101.348831,49.4703084 C102.027452,46.8948352 97.844122,45.2509926 97.844122,45.2509926 L98.5947453,44.6107214 Z" fill="#397F31"></path>
                <path d="M112.856768,60.0977325 C112.856768,60.0977325 113.360784,53.0187782 120.172195,54.3730598 C126.981806,55.72914 128.569456,59.1121464 128.569456,59.1121464 C128.569456,59.1121464 123.388895,66.0903839 118.292937,66.2774294 C113.195178,66.4626764 112.754165,64.4861087 112.881969,63.068879 C113.011573,61.6534478 112.856768,60.0977325 112.856768,60.0977325" fill="#397F31"></path>
                <path d="M91.7660533,35.921197 C91.7660533,35.921197 86.2290815,37.315046 85.5540605,31.7792174 C84.8790396,26.2433887 87.0661075,24.1840893 87.0661075,24.1840893 C87.0661075,24.1840893 93.6993133,26.3800759 95.1213575,30.2217035 C96.5452017,34.0633312 95.1447582,34.8978421 94.0305236,35.1550297 C92.916289,35.4122173 91.7660533,35.921197 91.7660533,35.921197" fill="#397F31"></path>
                <path d="M85.470538,68.8982252 C85.470538,68.8982252 83.5048769,66.5493649 80.2341754,67.901848 C76.9616739,69.2543312 77.8221006,69.3028911 75.8960408,69.9395653 C73.9717811,70.5762395 73.390363,71.7776475 73.2463585,73.0743766 C73.1023541,74.3711058 73.7701748,76.576085 76.8824714,76.3800469 C79.9965681,76.1840088 79.3539481,76.8224815 81.3880112,75.8890523 C83.4238744,74.9574217 85.4903386,74.3045608 85.8683503,72.5564044 C86.2481621,70.8064494 85.470538,68.8982252 85.470538,68.8982252" fill="#E6225A"></path>
                <path d="M54.736024,66.454763 C54.736024,66.454763 55.9744625,62.3397611 50.0396783,63.8073492 C44.103094,65.2731387 45.1381262,70.217256 45.1381262,70.217256 C45.1381262,70.217256 44.8789181,72.9078342 46.8625797,73.1740144 C48.8480413,73.4401946 51.9549377,72.4222352 51.9549377,72.4222352 C51.9549377,72.4222352 56.3254734,70.1201362 54.736024,66.454763" fill="#E6225A"></path>
                <path d="M67.1828704,35.0561114 C67.1828704,35.0561114 63.2209474,35.5147326 62.3281197,30.5706154 C61.435292,25.6246996 62.2597176,22.6463591 64.6699924,22.9089423 C67.0784671,23.1697269 67.2530725,22.8675764 68.6481158,24.4304858 C70.1817634,26.149866 69.6633473,27.1012803 70.3869698,28.9393625 C71.1105923,30.7774446 70.4049704,36.2071608 67.1828704,35.0561114" fill="#E6225A"></path>
                <path d="M71.5953473,33.5737754 C71.5953473,33.5737754 66.558791,36.9837595 71.7267514,40.859559 C76.8947118,44.7335599 81.3210492,38.490915 81.3210492,38.490915 C81.3210492,38.490915 83.0059015,34.5036076 80.2014144,32.8453769 C77.3987274,31.1871463 71.5953473,33.5737754 71.5953473,33.5737754" fill="#E6225A"></path>
                <path d="M98.4811618,55.6206895 C98.4811618,55.6206895 93.7974164,54.3887069 93.4104044,58.7429113 C93.0233924,63.0971157 96.2292919,65.4046102 97.9285446,65.3902221 C99.6277973,65.3740354 101.303649,62.6384944 101.283849,60.3921494 C101.264048,58.1440058 99.7502011,55.7771603 98.4811618,55.6206895" fill="#E6225A"></path>
            </g>
            <path d="M24.6557678,125.78125 L24.6557678,132.33692 L21.2324876,132.33692 L20.9268376,128.93693 L14.345174,128.93693 L14.345174,152.288958 L17.6665708,152.859016 L17.6665708,155.424279 L7.00957365,155.424279 L7.00957365,152.859016 L10.3309705,152.288958 L10.3309705,128.93693 L3.72893017,128.93693 L3.44365682,132.33692 L0,132.33692 L0,125.78125 L24.6557678,125.78125 Z M26.9464507,128.366871 L26.9464507,125.78125 L37.6034478,125.78125 L37.6034478,128.366871 L34.282051,128.93693 L34.282051,139.177619 L48.6679783,139.177619 L48.6679783,128.93693 L45.3465815,128.366871 L45.3465815,125.78125 L48.6679783,125.78125 L52.6821818,125.78125 L56.0035787,125.78125 L56.0035787,128.366871 L52.6821818,128.93693 L52.6821818,152.288958 L56.0035787,152.859016 L56.0035787,155.424279 L45.3465815,155.424279 L45.3465815,152.859016 L48.6679783,152.288958 L48.6679783,142.333298 L34.282051,142.333298 L34.282051,152.288958 L37.6034478,152.859016 L37.6034478,155.424279 L26.9464507,155.424279 L26.9464507,152.859016 L30.2678475,152.288958 L30.2678475,128.93693 L26.9464507,128.366871 Z M59.0889516,155.424279 L59.0889516,152.859016 L62.4103484,152.288958 L62.4103484,128.93693 L59.0889516,128.366871 L59.0889516,125.78125 L81.8700659,125.78125 L81.8700659,132.906978 L78.4264091,132.906978 L78.1003824,128.93693 L66.4245519,128.93693 L66.4245519,138.526124 L77.7743558,138.526124 L77.7743558,141.681803 L66.4245519,141.681803 L66.4245519,152.288958 L78.3449025,152.288958 L78.6709291,148.31891 L82.0942093,148.31891 L82.0942093,155.424279 L59.0889516,155.424279 Z M125.227741,131.685425 L125.125858,131.665065 L115.528447,155.424279 L112.859104,155.424279 L103.261693,131.685425 L103.15981,131.705784 L103.567343,143.697366 L103.567343,152.288958 L106.88874,152.859016 L106.88874,155.424279 L96.2317431,155.424279 L96.2317431,152.859016 L99.5531399,152.288958 L99.5531399,128.93693 L96.2317431,128.366871 L96.2317431,125.78125 L99.5531399,125.78125 L104.68806,125.78125 L114.142834,149.866211 L114.265094,149.866211 L123.699491,125.78125 L132.176185,125.78125 L132.176185,128.366871 L128.854788,128.93693 L128.854788,152.288958 L132.176185,152.859016 L132.176185,155.424279 L121.519188,155.424279 L121.519188,152.859016 L124.840584,152.288958 L124.840584,143.697366 L125.227741,131.685425 Z M145.572151,125.78125 L145.572151,128.366871 L142.250755,128.93693 L142.250755,145.875803 C142.250755,148.115329 142.889217,149.815307 144.166161,150.975788 C145.443106,152.13627 147.12756,152.716502 149.219575,152.716502 C151.420266,152.716502 153.193018,152.139663 154.537885,150.985968 C155.882752,149.832273 156.555175,148.128902 156.555175,145.875803 L156.555175,128.93693 L153.233778,128.366871 L153.233778,125.78125 L160.569379,125.78125 L163.890776,125.78125 L163.890776,128.366871 L160.569379,128.93693 L160.569379,145.875803 C160.569379,149.092576 159.519991,151.559411 157.421184,153.276381 C155.322376,154.99335 152.588534,155.851822 149.219575,155.851822 C145.945707,155.851822 143.296767,154.99335 141.272675,153.276381 C139.248582,151.559411 138.236551,149.092576 138.236551,145.875803 L138.236551,128.93693 L134.915154,128.366871 L134.915154,125.78125 L138.236551,125.78125 L145.572151,125.78125 Z M166.629745,155.424279 L166.629745,152.859016 L169.951142,152.288958 L169.951142,128.93693 L166.629745,128.366871 L166.629745,125.78125 L169.951142,125.78125 L173.965346,125.78125 L177.286742,125.78125 L177.286742,128.366871 L173.965346,128.93693 L173.965346,152.288958 L184.275939,152.288958 L184.581589,148.888968 L188.00487,148.888968 L188.00487,155.424279 L166.629745,155.424279 Z M204.151686,125.78125 C207.248955,125.78125 209.670358,126.449704 211.415968,127.786633 C213.161578,129.123562 214.03437,131.128926 214.03437,133.802784 C214.03437,135.119353 213.616653,136.296783 212.781205,137.335109 C211.945758,138.373435 210.842032,139.143684 209.469997,139.645881 C211.249568,140.025922 212.655544,140.901359 213.687967,142.272221 C214.72039,143.643082 215.236594,145.237872 215.236594,147.056638 C215.236594,149.771215 214.353613,151.844441 212.587627,153.276381 C210.82164,154.70832 208.430802,155.424279 205.41504,155.424279 L191.151372,155.424279 L191.151372,152.859016 L194.472769,152.288958 L194.472769,128.93693 L191.151372,128.366871 L191.151372,125.78125 L194.472769,125.78125 L204.151686,125.78125 Z M198.486973,141.518929 L198.486973,152.288958 L205.41504,152.288958 C207.248949,152.288958 208.671905,151.837667 209.683952,150.93507 C210.695998,150.032473 211.202013,148.753248 211.202013,147.097356 C211.202013,145.360027 210.777504,143.995973 209.928472,143.005153 C209.07944,142.014332 207.778742,141.518929 206.02634,141.518929 L198.486973,141.518929 Z M198.486973,138.383609 L205.190896,138.383609 C206.630855,138.34289 207.795709,137.915351 208.685495,137.100978 C209.575281,136.286605 210.020167,135.160073 210.020167,133.721347 C210.020167,132.119747 209.517547,130.921958 208.512293,130.127944 C207.507039,129.33393 206.053518,128.93693 204.151686,128.93693 L198.486973,128.93693 L198.486973,138.383609 Z M218.647993,155.424279 L218.647993,152.859016 L221.96939,152.288958 L221.96939,128.93693 L218.647993,128.366871 L218.647993,125.78125 L241.429108,125.78125 L241.429108,132.906978 L237.985451,132.906978 L237.659424,128.93693 L225.983593,128.93693 L225.983593,138.526124 L237.333397,138.526124 L237.333397,141.681803 L225.983593,141.681803 L225.983593,152.288958 L237.903944,152.288958 L238.229971,148.31891 L241.653251,148.31891 L241.653251,155.424279 L218.647993,155.424279 Z M258.370614,125.801609 C261.603728,125.801609 264.082865,126.517568 265.808098,127.949507 C267.533331,129.381446 268.395935,131.413955 268.395935,134.047095 C268.395935,135.48582 267.995198,136.761652 267.193711,137.874628 C266.392225,138.987605 265.244351,139.863043 263.750055,140.500968 C265.366612,141.030311 266.531466,141.892176 267.244653,143.086589 C267.95784,144.281003 268.314428,145.753639 268.314428,147.504541 L268.314428,149.88657 C268.314428,150.795953 268.429895,151.467801 268.660832,151.902133 C268.891768,152.336465 269.272129,152.594346 269.801925,152.675783 L270.780005,152.797939 L270.780005,155.424279 L268.620078,155.424279 C267.057859,155.424279 265.947342,154.881371 265.288493,153.795541 C264.629644,152.70971 264.300225,151.39316 264.300225,149.845851 L264.300225,147.545259 C264.300225,145.930086 263.831566,144.633895 262.894235,143.656648 C261.956903,142.6794 260.700355,142.190784 259.124551,142.190784 L252.685524,142.190784 L252.685524,152.288958 L256.006921,152.859016 L256.006921,155.424279 L245.349924,155.424279 L245.349924,152.859016 L248.671321,152.288958 L248.671321,128.93693 L245.349924,128.366871 L245.349924,125.801609 L248.671321,125.801609 L258.370614,125.801609 Z M252.685524,139.035104 L257.963081,139.035104 C260.204526,139.035104 261.834643,138.607565 262.853481,137.752473 C263.87232,136.897381 264.381731,135.648695 264.381731,134.006376 C264.381731,132.445494 263.892696,131.210381 262.914611,130.300997 C261.936526,129.391614 260.421876,128.93693 258.370614,128.93693 L252.685524,128.93693 L252.685524,139.035104 Z M286.702678,125.801609 C289.935793,125.801609 292.414929,126.517568 294.140162,127.949507 C295.865395,129.381446 296.727999,131.413955 296.727999,134.047095 C296.727999,135.48582 296.327262,136.761652 295.525776,137.874628 C294.724289,138.987605 293.576415,139.863043 292.082119,140.500968 C293.698676,141.030311 294.86353,141.892176 295.576717,143.086589 C296.289904,144.281003 296.646492,145.753639 296.646492,147.504541 L296.646492,149.88657 C296.646492,150.795953 296.761959,151.467801 296.992896,151.902133 C297.223832,152.336465 297.604193,152.594346 298.133989,152.675783 L299.112069,152.797939 L299.112069,155.424279 L296.952142,155.424279 C295.389923,155.424279 294.279406,154.881371 293.620557,153.795541 C292.961708,152.70971 292.632289,151.39316 292.632289,149.845851 L292.632289,147.545259 C292.632289,145.930086 292.16363,144.633895 291.226299,143.656648 C290.288967,142.6794 289.032419,142.190784 287.456615,142.190784 L281.017588,142.190784 L281.017588,152.288958 L284.338985,152.859016 L284.338985,155.424279 L273.681988,155.424279 L273.681988,152.859016 L277.003385,152.288958 L277.003385,128.93693 L273.681988,128.366871 L273.681988,125.801609 L277.003385,125.801609 L286.702678,125.801609 Z M281.017588,139.035104 L286.295145,139.035104 C288.53659,139.035104 290.166707,138.607565 291.185545,137.752473 C292.204384,136.897381 292.713795,135.648695 292.713795,134.006376 C292.713795,132.445494 292.22476,131.210381 291.246675,130.300997 C290.26859,129.391614 288.75394,128.93693 286.702678,128.93693 L281.017588,128.93693 L281.017588,139.035104 Z M307.78968,128.366871 L304.590543,128.753697 L310.805427,140.847075 L317.02031,128.753697 L313.84155,128.366871 L313.84155,125.78125 L324.029884,125.78125 L324.029884,128.366871 L321.523554,128.753697 L312.720833,145.000356 L312.720833,152.288958 L316.04223,152.859016 L316.04223,155.424279 L305.40561,155.424279 L305.40561,152.859016 L308.727007,152.288958 L308.727007,144.694968 L300.087299,128.753697 L297.601346,128.366871 L297.601346,125.78125 L307.78968,125.78125 L307.78968,128.366871 Z M361.274559,125.78125 L361.274559,132.33692 L357.851279,132.33692 L357.545629,128.93693 L350.963965,128.93693 L350.963965,152.288958 L354.285362,152.859016 L354.285362,155.424279 L343.628365,155.424279 L343.628365,152.859016 L346.949761,152.288958 L346.949761,128.93693 L340.347721,128.93693 L340.062448,132.33692 L336.618791,132.33692 L336.618791,125.78125 L361.274559,125.78125 Z M376.585932,125.801609 C379.819046,125.801609 382.298183,126.517568 384.023416,127.949507 C385.748649,129.381446 386.611253,131.413955 386.611253,134.047095 C386.611253,135.48582 386.210516,136.761652 385.409029,137.874628 C384.607543,138.987605 383.459669,139.863043 381.965373,140.500968 C383.58193,141.030311 384.746784,141.892176 385.459971,143.086589 C386.173158,144.281003 386.529746,145.753639 386.529746,147.504541 L386.529746,149.88657 C386.529746,150.795953 386.645213,151.467801 386.876149,151.902133 C387.107086,152.336465 387.487447,152.594346 388.017243,152.675783 L388.995323,152.797939 L388.995323,155.424279 L386.835396,155.424279 C385.273177,155.424279 384.16266,154.881371 383.503811,153.795541 C382.844962,152.70971 382.515543,151.39316 382.515543,149.845851 L382.515543,147.545259 C382.515543,145.930086 382.046884,144.633895 381.109552,143.656648 C380.172221,142.6794 378.915672,142.190784 377.339869,142.190784 L370.900842,142.190784 L370.900842,152.288958 L374.222239,152.859016 L374.222239,155.424279 L363.565242,155.424279 L363.565242,152.859016 L366.886638,152.288958 L366.886638,128.93693 L363.565242,128.366871 L363.565242,125.801609 L366.886638,125.801609 L376.585932,125.801609 Z M370.900842,139.035104 L376.178399,139.035104 C378.419844,139.035104 380.049961,138.607565 381.068799,137.752473 C382.087638,136.897381 382.597049,135.648695 382.597049,134.006376 C382.597049,132.445494 382.108014,131.210381 381.129929,130.300997 C380.151844,129.391614 378.637194,128.93693 376.585932,128.93693 L370.900842,128.93693 L370.900842,139.035104 Z M391.897306,155.424279 L391.897306,152.859016 L395.218703,152.288958 L395.218703,128.93693 L391.897306,128.366871 L391.897306,125.78125 L414.67842,125.78125 L414.67842,132.906978 L411.234763,132.906978 L410.908737,128.93693 L399.232906,128.93693 L399.232906,138.526124 L410.58271,138.526124 L410.58271,141.681803 L399.232906,141.681803 L399.232906,152.288958 L411.153257,152.288958 L411.479283,148.31891 L414.902563,148.31891 L414.902563,155.424279 L391.897306,155.424279 Z M418.599236,155.424279 L418.599236,152.859016 L421.920633,152.288958 L421.920633,128.93693 L418.599236,128.366871 L418.599236,125.78125 L441.380351,125.78125 L441.380351,132.906978 L437.936694,132.906978 L437.610667,128.93693 L425.934837,128.93693 L425.934837,138.526124 L437.284641,138.526124 L437.284641,141.681803 L425.934837,141.681803 L425.934837,152.288958 L437.855187,152.288958 L438.181214,148.31891 L441.604494,148.31891 L441.604494,155.424279 L418.599236,155.424279 Z" fill="#716558"></path>
            <path d="M124.947266,174.78125 C126.802744,174.78125 128.295242,175.352533 129.424805,176.495117 C130.554368,177.637701 131.119141,179.113923 131.119141,180.923828 L131.119141,182.867188 C131.119141,184.683603 130.554368,186.159825 129.424805,187.295898 C128.295242,188.431972 126.802744,189 124.947266,189 L118.990234,189 L118.990234,187.769531 L120.582031,187.496094 L120.582031,176.294922 L118.990234,176.021484 L118.990234,174.78125 L124.947266,174.78125 Z M122.505859,176.294922 L122.505859,187.496094 L124.947266,187.496094 C126.262376,187.496094 127.29915,187.063155 128.057617,186.197266 C128.816085,185.331376 129.195312,184.221361 129.195312,182.867188 L129.195312,180.904297 C129.195312,179.563144 128.816085,178.45964 128.057617,177.59375 C127.29915,176.72786 126.262376,176.294922 124.947266,176.294922 L122.505859,176.294922 Z M132.837891,176.021484 L132.837891,174.78125 L137.945312,174.78125 L137.945312,176.021484 L136.353516,176.294922 L136.353516,187.496094 L137.945312,187.769531 L137.945312,189 L132.837891,189 L132.837891,187.769531 L134.429688,187.496094 L134.429688,176.294922 L132.837891,176.021484 Z M150.630859,187.388672 C150.214191,187.824872 149.598962,188.236652 148.785156,188.624023 C147.97135,189.011395 146.913418,189.205078 145.611328,189.205078 C143.710277,189.205078 142.159186,188.537767 140.958008,187.203125 C139.75683,185.868483 139.15625,184.136729 139.15625,182.007812 L139.15625,181.773438 C139.15625,179.6315 139.75032,177.896491 140.938477,176.568359 C142.126634,175.240228 143.707021,174.576172 145.679688,174.576172 C146.73438,174.576172 147.660478,174.740558 148.458008,175.069336 C149.255538,175.398114 149.927732,175.83268 150.474609,176.373047 L150.474609,178.951172 L149.126953,178.951172 L148.658203,176.988281 C148.339191,176.727863 147.953453,176.513022 147.500977,176.34375 C147.0485,176.174478 146.506514,176.089844 145.875,176.089844 C144.338534,176.089844 143.155278,176.615555 142.325195,177.666992 C141.495113,178.71843 141.080078,180.080721 141.080078,181.753906 L141.080078,182.007812 C141.080078,183.70704 141.482092,185.080724 142.286133,186.128906 C143.090173,187.177089 144.198561,187.701172 145.611328,187.701172 C146.386072,187.701172 147.020831,187.619792 147.515625,187.457031 C148.010419,187.29427 148.407551,187.115235 148.707031,186.919922 L148.707031,183.804688 L146.373047,183.707031 L146.373047,182.291016 L150.630859,182.291016 L150.630859,187.388672 Z M152.847656,176.021484 L152.847656,174.78125 L157.955078,174.78125 L157.955078,176.021484 L156.363281,176.294922 L156.363281,187.496094 L157.955078,187.769531 L157.955078,189 L152.847656,189 L152.847656,187.769531 L154.439453,187.496094 L154.439453,176.294922 L152.847656,176.021484 Z M170.806641,174.78125 L170.806641,177.925781 L169.166016,177.925781 L169.019531,176.294922 L165.865234,176.294922 L165.865234,187.496094 L167.457031,187.769531 L167.457031,189 L162.349609,189 L162.349609,187.769531 L163.941406,187.496094 L163.941406,176.294922 L160.777344,176.294922 L160.640625,177.925781 L158.990234,177.925781 L158.990234,174.78125 L170.806641,174.78125 Z M171.705078,187.769531 L172.759766,187.623047 L177.730469,174.78125 L179.380859,174.78125 L184.263672,187.623047 L185.308594,187.769531 L185.308594,189 L181.226562,189 L181.226562,187.769531 L182.300781,187.583984 L181.363281,184.966797 L175.669922,184.966797 L174.703125,187.583984 L175.777344,187.769531 L175.777344,189 L171.705078,189 L171.705078,187.769531 Z M176.265625,183.355469 L180.777344,183.355469 L178.570312,177.251953 L178.511719,177.251953 L176.265625,183.355469 Z M186.509766,189 L186.509766,187.769531 L188.101562,187.496094 L188.101562,176.294922 L186.509766,176.021484 L186.509766,174.78125 L191.617188,174.78125 L191.617188,176.021484 L190.025391,176.294922 L190.025391,187.496094 L194.966797,187.496094 L195.113281,185.865234 L196.753906,185.865234 L196.753906,189 L186.509766,189 Z M217.085938,177.613281 L217.037109,177.603516 L212.4375,189 L211.158203,189 L206.558594,177.613281 L206.509766,177.623047 L206.705078,183.375 L206.705078,187.496094 L208.296875,187.769531 L208.296875,189 L203.189453,189 L203.189453,187.769531 L204.78125,187.496094 L204.78125,176.294922 L203.189453,176.021484 L203.189453,174.78125 L207.242188,174.78125 L211.773438,186.333984 L211.832031,186.333984 L216.353516,174.78125 L220.416016,174.78125 L220.416016,176.021484 L218.824219,176.294922 L218.824219,187.496094 L220.416016,187.769531 L220.416016,189 L215.308594,189 L215.308594,187.769531 L216.900391,187.496094 L216.900391,183.375 L217.085938,177.613281 Z M221.636719,187.769531 L222.691406,187.623047 L227.662109,174.78125 L229.3125,174.78125 L234.195312,187.623047 L235.240234,187.769531 L235.240234,189 L231.158203,189 L231.158203,187.769531 L232.232422,187.583984 L231.294922,184.966797 L225.601562,184.966797 L224.634766,187.583984 L225.708984,187.769531 L225.708984,189 L221.636719,189 L221.636719,187.769531 Z M226.197266,183.355469 L230.708984,183.355469 L228.501953,177.251953 L228.443359,177.251953 L226.197266,183.355469 Z M242.681641,174.791016 C244.231128,174.791016 245.419267,175.134437 246.246094,175.821289 C247.072921,176.508141 247.486328,177.483067 247.486328,178.746094 C247.486328,179.436201 247.294273,180.048174 246.910156,180.582031 C246.52604,181.115888 245.975915,181.535806 245.259766,181.841797 C246.034509,182.095704 246.592772,182.509112 246.93457,183.082031 C247.276369,183.654951 247.447266,184.361324 247.447266,185.201172 L247.447266,186.34375 C247.447266,186.77995 247.502604,187.102213 247.613281,187.310547 C247.723959,187.518881 247.906249,187.642578 248.160156,187.681641 L248.628906,187.740234 L248.628906,189 L247.59375,189 C246.845048,189 246.312827,188.739586 245.99707,188.21875 C245.681314,187.697914 245.523438,187.06641 245.523438,186.324219 L245.523438,185.220703 C245.523438,184.44596 245.29883,183.824221 244.849609,183.355469 C244.400388,182.886716 243.798181,182.652344 243.042969,182.652344 L239.957031,182.652344 L239.957031,187.496094 L241.548828,187.769531 L241.548828,189 L236.441406,189 L236.441406,187.769531 L238.033203,187.496094 L238.033203,176.294922 L236.441406,176.021484 L236.441406,174.791016 L242.681641,174.791016 Z M239.957031,181.138672 L242.486328,181.138672 C243.560552,181.138672 244.341794,180.933596 244.830078,180.523438 C245.318362,180.113279 245.5625,179.514327 245.5625,178.726562 C245.5625,177.977861 245.328127,177.385419 244.859375,176.949219 C244.390623,176.513019 243.664718,176.294922 242.681641,176.294922 L239.957031,176.294922 L239.957031,181.138672 Z M249.976562,187.769531 L251.568359,187.496094 L251.568359,176.294922 L249.976562,176.021484 L249.976562,174.78125 L255.083984,174.78125 L255.083984,176.021484 L253.492188,176.294922 L253.492188,181.070312 L254.966797,181.070312 L258.941406,176.158203 L257.876953,176.021484 L257.876953,174.78125 L262.388672,174.78125 L262.388672,176.021484 L261.050781,176.265625 L256.705078,181.65625 L261.451172,187.525391 L262.789062,187.769531 L262.789062,189 L258.121094,189 L258.121094,187.769531 L259.205078,187.632812 L255.152344,182.583984 L253.492188,182.583984 L253.492188,187.496094 L255.083984,187.769531 L255.083984,189 L249.976562,189 L249.976562,187.769531 Z M264.15625,189 L264.15625,187.769531 L265.748047,187.496094 L265.748047,176.294922 L264.15625,176.021484 L264.15625,174.78125 L275.074219,174.78125 L275.074219,178.199219 L273.423828,178.199219 L273.267578,176.294922 L267.671875,176.294922 L267.671875,180.894531 L273.111328,180.894531 L273.111328,182.408203 L267.671875,182.408203 L267.671875,187.496094 L273.384766,187.496094 L273.541016,185.591797 L275.181641,185.591797 L275.181641,189 L264.15625,189 Z M288.394531,174.78125 L288.394531,177.925781 L286.753906,177.925781 L286.607422,176.294922 L283.453125,176.294922 L283.453125,187.496094 L285.044922,187.769531 L285.044922,189 L279.9375,189 L279.9375,187.769531 L281.529297,187.496094 L281.529297,176.294922 L278.365234,176.294922 L278.228516,177.925781 L276.578125,177.925781 L276.578125,174.78125 L288.394531,174.78125 Z M289.439453,176.021484 L289.439453,174.78125 L294.546875,174.78125 L294.546875,176.021484 L292.955078,176.294922 L292.955078,187.496094 L294.546875,187.769531 L294.546875,189 L289.439453,189 L289.439453,187.769531 L291.03125,187.496094 L291.03125,176.294922 L289.439453,176.021484 Z M309.839844,174.78125 L309.839844,176.021484 L308.248047,176.294922 L308.248047,189 L306.324219,189 L299.488281,178.023438 L299.429688,178.042969 L299.429688,187.496094 L301.021484,187.769531 L301.021484,189 L295.914062,189 L295.914062,187.769531 L297.505859,187.496094 L297.505859,176.294922 L295.914062,176.021484 L295.914062,174.78125 L299.429688,174.78125 L306.265625,185.748047 L306.324219,185.728516 L306.324219,176.294922 L304.732422,176.021484 L304.732422,174.78125 L309.839844,174.78125 Z M322.466797,187.388672 C322.050128,187.824872 321.4349,188.236652 320.621094,188.624023 C319.807288,189.011395 318.749355,189.205078 317.447266,189.205078 C315.546214,189.205078 313.995123,188.537767 312.793945,187.203125 C311.592767,185.868483 310.992188,184.136729 310.992188,182.007812 L310.992188,181.773438 C310.992188,179.6315 311.586257,177.896491 312.774414,176.568359 C313.962571,175.240228 315.542959,174.576172 317.515625,174.576172 C318.570318,174.576172 319.496415,174.740558 320.293945,175.069336 C321.091475,175.398114 321.763669,175.83268 322.310547,176.373047 L322.310547,178.951172 L320.962891,178.951172 L320.494141,176.988281 C320.175129,176.727863 319.78939,176.513022 319.336914,176.34375 C318.884438,176.174478 318.342451,176.089844 317.710938,176.089844 C316.174471,176.089844 314.991215,176.615555 314.161133,177.666992 C313.331051,178.71843 312.916016,180.080721 312.916016,181.753906 L312.916016,182.007812 C312.916016,183.70704 313.31803,185.080724 314.12207,186.128906 C314.926111,187.177089 316.034498,187.701172 317.447266,187.701172 C318.222009,187.701172 318.856768,187.619792 319.351562,187.457031 C319.846357,187.29427 320.243488,187.115235 320.542969,186.919922 L320.542969,183.804688 L318.208984,183.707031 L318.208984,182.291016 L322.466797,182.291016 L322.466797,187.388672 Z" fill="#9E8E7D"></path>
        </g>
    </g>
</svg>
