<svg width="442px" height="227px" viewBox="0 0 442 227" version="1.1" xmlns="http://www.w3.org/2000/svg" xmlns:xlink="http://www.w3.org/1999/xlink">
    <g stroke="none" stroke-width="1" fill="none" fill-rule="evenodd">
        <g>
            <g transform="translate(86.046070, 184.072917)">
                <path d="M30.3994998,38.085688 C29.1926765,38.085688 28.2107759,37.6894468 27.4537685,36.8969526 C26.6967612,36.1044583 26.3182632,35.044616 26.3182632,33.7173938 L26.3182632,33.4376914 C26.3182632,32.5547047 26.4869416,31.7663356 26.8243036,31.0725603 C27.1616656,30.3787851 27.6334167,29.8358387 28.2395711,29.4437049 C28.8457256,29.051571 29.5026116,28.8555071 30.2102489,28.8555071 C31.3677022,28.8555071 32.2673206,29.2366664 32.9091312,29.9989965 C33.5509418,30.7613266 33.8718423,31.8527037 33.8718423,33.2731605 L33.8718423,33.9066043 L27.8404986,33.9066043 C27.8624408,34.7841066 28.118887,35.4929532 28.6098446,36.0331656 C29.1008023,36.5733779 29.7247755,36.84348 30.4817828,36.84348 C31.0193677,36.84348 31.4746624,36.7337939 31.8476806,36.5144183 C32.2206987,36.2950428 32.5470846,36.0043745 32.8268482,35.6424048 L33.7566461,36.3663406 C33.0106098,37.5125779 31.8915723,38.085688 30.3994998,38.085688 L30.3994998,38.085688 Z M30.2102489,30.1059416 C29.5958661,30.1059416 29.0802312,30.3294271 28.6633286,30.7764048 C28.246426,31.2233825 27.9886085,31.8499646 27.8898684,32.6561698 L32.3496068,32.6561698 L32.3496068,32.5409982 C32.3057224,31.7676993 32.0972742,31.1685388 31.7242561,30.7434986 C31.3512379,30.3184585 30.8465739,30.1059416 30.2102489,30.1059416 L30.2102489,30.1059416 Z M39.9723466,32.2695223 L41.9471385,29.0200379 L43.7244513,29.0200379 L40.8116332,33.4212383 L43.8149626,37.9211571 L42.0541064,37.9211571 L39.9970315,34.5894073 L37.9399566,37.9211571 L36.1708722,37.9211571 L39.1742016,33.4212383 L36.2613835,29.0200379 L38.0222396,29.0200379 L39.9723466,32.2695223 Z M54.2106394,33.569316 C54.2106394,34.9239602 53.9007098,36.0153373 53.2808415,36.84348 C52.6609731,37.6716228 51.821695,38.085688 50.7629818,38.085688 C49.6823264,38.085688 48.8320772,37.7429188 48.2122089,37.0573701 L48.2122089,41.3433989 L46.6899734,41.3433989 L46.6899734,29.0200379 L48.0805561,29.0200379 L48.1546108,30.007223 C48.7744791,29.2394086 49.6356992,28.8555071 50.7382969,28.8555071 C51.8079812,28.8555071 52.6541162,29.2586036 53.2767273,30.0648088 C53.8993385,30.8710141 54.2106394,31.9925548 54.2106394,33.4294648 L54.2106394,33.569316 Z M52.6884039,33.3965586 C52.6884039,32.3929154 52.4744703,31.6004331 52.0465965,31.0190878 C51.6187228,30.4377425 51.0317766,30.1470743 50.2857404,30.1470743 C49.3641662,30.1470743 48.672996,30.5556551 48.2122089,31.3728291 L48.2122089,35.6259517 C48.6675104,36.4376413 49.3641661,36.84348 50.302197,36.84348 C51.0317766,36.84348 51.6118659,36.5541828 52.0424824,35.9755798 C52.4730989,35.3969767 52.6884039,34.5373116 52.6884039,33.3965586 L52.6884039,33.3965586 Z M59.1509534,37.9211571 L57.628718,37.9211571 L57.628718,25.2851875 L59.1509534,25.2851875 L59.1509534,37.9211571 Z M62.5361189,33.3883321 C62.5361189,32.5163142 62.7075401,31.7320583 63.0503876,31.0355409 C63.3932351,30.3390235 63.8704718,29.8015614 64.4821118,29.4231385 C65.0937518,29.0447157 65.7917789,28.8555071 66.576214,28.8555071 C67.7885229,28.8555071 68.7690522,29.2750566 69.5178312,30.1141681 C70.2666102,30.9532797 70.6409941,32.0693361 70.6409941,33.462371 L70.6409941,33.569316 C70.6409941,34.4358495 70.4750584,35.21325 70.1431819,35.9015409 C69.8113055,36.5898317 69.3368117,37.1259227 68.7196861,37.50983 C68.1025605,37.8937372 67.3935625,38.085688 66.5926706,38.085688 C65.3858473,38.085688 64.4080608,37.6661385 63.6592818,36.8270269 C62.9105028,35.9879154 62.5361189,34.8773432 62.5361189,33.4952771 L62.5361189,33.3883321 Z M64.0665826,33.569316 C64.0665826,34.5565061 64.2956013,35.3489884 64.7536456,35.9467869 C65.21169,36.5445853 65.8246922,36.84348 66.5926706,36.84348 C67.3661347,36.84348 67.9805082,36.5404721 68.4358098,35.9344471 C68.8911113,35.3284221 69.1187586,34.4797255 69.1187586,33.3883321 C69.1187586,32.4121108 68.8869972,31.6209995 68.4234673,31.0149745 C67.9599374,30.4089495 67.3441925,30.1059416 66.576214,30.1059416 C65.8246922,30.1059416 65.2185469,30.4048363 64.7577598,31.0026347 C64.2969727,31.6004331 64.0665826,32.455985 64.0665826,33.569316 L64.0665826,33.569316 Z M78.2061358,30.385644 C77.9757422,30.3472533 77.726153,30.3280582 77.4573605,30.3280582 C76.4589885,30.3280582 75.7815319,30.753092 75.4249705,31.6031723 L75.4249705,37.9211571 L73.902735,37.9211571 L73.902735,29.0200379 L75.383829,29.0200379 L75.4085139,30.0483558 C75.9076999,29.2531193 76.6153266,28.8555071 77.5314152,28.8555071 C77.8276355,28.8555071 78.0525401,28.8938972 78.2061358,28.9706787 L78.2061358,30.385644 Z M84.495891,38.085688 C83.2890677,38.085688 82.3071671,37.6894468 81.5501597,36.8969526 C80.7931523,36.1044583 80.4146543,35.044616 80.4146543,33.7173938 L80.4146543,33.4376914 C80.4146543,32.5547047 80.5833328,31.7663356 80.9206948,31.0725603 C81.2580568,30.3787851 81.7298079,29.8358387 82.3359623,29.4437049 C82.9421168,29.051571 83.5990028,28.8555071 84.3066401,28.8555071 C85.4640934,28.8555071 86.3637118,29.2366664 87.0055224,29.9989965 C87.647333,30.7613266 87.9682335,31.8527037 87.9682335,33.2731605 L87.9682335,33.9066043 L81.9368898,33.9066043 C81.958832,34.7841066 82.2152781,35.4929532 82.7062358,36.0331656 C83.1971935,36.5733779 83.8211666,36.84348 84.578174,36.84348 C85.1157589,36.84348 85.5710536,36.7337939 85.9440717,36.5144183 C86.3170899,36.2950428 86.6434758,36.0043745 86.9232394,35.6424048 L87.8530373,36.3663406 C87.107001,37.5125779 85.9879635,38.085688 84.495891,38.085688 L84.495891,38.085688 Z M84.3066401,30.1059416 C83.6922573,30.1059416 83.1766224,30.3294271 82.7597198,30.7764048 C82.3428172,31.2233825 82.0849997,31.8499646 81.9862596,32.6561698 L86.445998,32.6561698 L86.445998,32.5409982 C86.4021135,31.7676993 86.1936654,31.1685388 85.8206472,30.7434986 C85.4476291,30.3184585 84.9429651,30.1059416 84.3066401,30.1059416 L84.3066401,30.1059416 Z M121.06267,35.8233887 L122.774156,29.0200379 L124.296391,29.0200379 L121.704477,37.9211571 L120.470232,37.9211571 L118.306189,31.1753921 L116.199744,37.9211571 L114.965499,37.9211571 L112.381813,29.0200379 L113.895821,29.0200379 L115.648448,35.6835375 L117.72198,29.0200379 L118.947997,29.0200379 L121.06267,35.8233887 Z M126.7929,33.3883321 C126.7929,32.5163142 126.964322,31.7320583 127.307169,31.0355409 C127.650017,30.3390235 128.127253,29.8015614 128.738893,29.4231385 C129.350533,29.0447157 130.04856,28.8555071 130.832996,28.8555071 C132.045304,28.8555071 133.025834,29.2750566 133.774613,30.1141681 C134.523392,30.9532797 134.897776,32.0693361 134.897776,33.462371 L134.897776,33.569316 C134.897776,34.4358495 134.73184,35.21325 134.399963,35.9015409 C134.068087,36.5898317 133.593593,37.1259227 132.976468,37.50983 C132.359342,37.8937372 131.650344,38.085688 130.849452,38.085688 C129.642629,38.085688 128.664842,37.6661385 127.916063,36.8270269 C127.167284,35.9879154 126.7929,34.8773432 126.7929,33.4952771 L126.7929,33.3883321 Z M128.323364,33.569316 C128.323364,34.5565061 128.552383,35.3489884 129.010427,35.9467869 C129.468471,36.5445853 130.081474,36.84348 130.849452,36.84348 C131.622916,36.84348 132.23729,36.5404721 132.692591,35.9344471 C133.147893,35.3284221 133.37554,34.4797255 133.37554,33.3883321 C133.37554,32.4121108 133.143779,31.6209995 132.680249,31.0149745 C132.216719,30.4089495 131.600974,30.1059416 130.832996,30.1059416 C130.081474,30.1059416 129.475328,30.4048363 129.014541,31.0026347 C128.553754,31.6004331 128.323364,32.455985 128.323364,33.569316 L128.323364,33.569316 Z M139.599469,29.0200379 L139.648839,30.1388477 C140.329048,29.283283 141.217696,28.8555071 142.314808,28.8555071 C144.196355,28.8555071 145.145343,29.9167205 145.1618,32.0391791 L145.1618,37.9211571 L143.639564,37.9211571 L143.639564,32.0309525 C143.634079,31.389279 143.487342,30.9148865 143.19935,30.6077607 C142.911358,30.3006349 142.46292,30.1470743 141.854023,30.1470743 C141.360323,30.1470743 140.92697,30.2786976 140.553952,30.5419483 C140.180934,30.805199 139.890203,31.1507103 139.681752,31.5784927 L139.681752,37.9211571 L138.159517,37.9211571 L138.159517,29.0200379 L139.599469,29.0200379 Z M148.439997,33.3965586 C148.439997,32.0309457 148.76364,30.9327133 149.410937,30.1018283 C150.058233,29.2709433 150.905739,28.8555071 151.953481,28.8555071 C152.995738,28.8555071 153.821302,29.211987 154.430199,29.9249576 L154.430199,25.2851875 L155.952435,25.2851875 L155.952435,37.9211571 L154.553624,37.9211571 L154.479569,36.9668782 C153.870672,37.7127551 153.023166,38.085688 151.937025,38.085688 C150.905739,38.085688 150.06509,37.6633963 149.415051,36.8188004 C148.765012,35.9742045 148.439997,34.8718588 148.439997,33.5117302 L148.439997,33.3965586 Z M149.962233,33.569316 C149.962233,34.5784437 150.170681,35.3681839 150.587583,35.9385603 C151.004486,36.5089368 151.580461,36.7941208 152.315526,36.7941208 C153.280985,36.7941208 153.985869,36.3608605 154.430199,35.494327 L154.430199,31.4057353 C153.974898,30.5666238 153.275499,30.1470743 152.331983,30.1470743 C151.585947,30.1470743 151.004486,30.4350004 150.587583,31.0108613 C150.170681,31.5867221 149.962233,32.4395319 149.962233,33.569316 L149.962233,33.569316 Z M163.361239,38.085688 C162.154415,38.085688 161.172515,37.6894468 160.415507,36.8969526 C159.6585,36.1044583 159.280002,35.044616 159.280002,33.7173938 L159.280002,33.4376914 C159.280002,32.5547047 159.448681,31.7663356 159.786043,31.0725603 C160.123405,30.3787851 160.595156,29.8358387 161.20131,29.4437049 C161.807465,29.051571 162.464351,28.8555071 163.171988,28.8555071 C164.329441,28.8555071 165.22906,29.2366664 165.87087,29.9989965 C166.512681,30.7613266 166.833581,31.8527037 166.833581,33.2731605 L166.833581,33.9066043 L160.802238,33.9066043 C160.82418,34.7841066 161.080626,35.4929532 161.571584,36.0331656 C162.062541,36.5733779 162.686514,36.84348 163.443522,36.84348 C163.981107,36.84348 164.436401,36.7337939 164.80942,36.5144183 C165.182438,36.2950428 165.508824,36.0043745 165.788587,35.6424048 L166.718385,36.3663406 C165.972349,37.5125779 164.853311,38.085688 163.361239,38.085688 L163.361239,38.085688 Z M163.171988,30.1059416 C162.557605,30.1059416 162.04197,30.3294271 161.625068,30.7764048 C161.208165,31.2233825 160.950347,31.8499646 160.851607,32.6561698 L165.311346,32.6561698 L165.311346,32.5409982 C165.267461,31.7676993 165.059013,31.1685388 164.685995,30.7434986 C164.312977,30.3184585 163.808313,30.1059416 163.171988,30.1059416 L163.171988,30.1059416 Z M174.250614,30.385644 C174.02022,30.3472533 173.770631,30.3280582 173.501838,30.3280582 C172.503466,30.3280582 171.82601,30.753092 171.469448,31.6031723 L171.469448,37.9211571 L169.947213,37.9211571 L169.947213,29.0200379 L171.428307,29.0200379 L171.452992,30.0483558 C171.952178,29.2531193 172.659804,28.8555071 173.575893,28.8555071 C173.872113,28.8555071 174.097018,28.8938972 174.250614,28.9706787 L174.250614,30.385644 Z M198.738248,33.3965586 C198.738248,32.0090082 199.059149,30.9052914 199.700959,30.0853752 C200.34277,29.265459 201.193019,28.8555071 202.251732,28.8555071 C203.337873,28.8555071 204.185379,29.2394086 204.794277,30.007223 L204.868331,29.0200379 L206.258914,29.0200379 L206.258914,37.707267 C206.258914,38.8589887 205.917443,39.7666415 205.234491,40.4302526 C204.551538,41.0938637 203.634092,41.4256643 202.482125,41.4256643 C201.840314,41.4256643 201.212227,41.2885566 200.597844,41.0143372 C199.983461,40.7401177 199.514453,40.3644427 199.190805,39.8873008 L199.980721,38.9741546 C200.633503,39.7803598 201.43164,40.1834564 202.375157,40.1834564 C203.115707,40.1834564 203.693054,39.9750527 204.107214,39.5582391 C204.521374,39.1414255 204.72845,38.5546047 204.72845,37.797759 L204.72845,37.0326905 C204.119553,37.7346923 203.288503,38.085688 202.235276,38.085688 C201.193019,38.085688 200.349627,37.6661385 199.705073,36.8270269 C199.06052,35.9879154 198.738248,34.8444374 198.738248,33.3965586 L198.738248,33.3965586 Z M200.268712,33.569316 C200.268712,34.5729593 200.474417,35.3613284 200.885834,35.9344471 C201.297251,36.5075657 201.873227,36.7941208 202.613777,36.7941208 C203.57375,36.7941208 204.278634,36.3581184 204.72845,35.4861005 L204.72845,31.4221884 C204.262178,30.5721081 203.562779,30.1470743 202.630234,30.1470743 C201.889683,30.1470743 201.310965,30.4350004 200.894063,31.0108613 C200.47716,31.5867221 200.268712,32.4395319 200.268712,33.569316 L200.268712,33.569316 Z M214.210786,30.385644 C213.980392,30.3472533 213.730803,30.3280582 213.462011,30.3280582 C212.463639,30.3280582 211.786182,30.753092 211.429621,31.6031723 L211.429621,37.9211571 L209.907385,37.9211571 L209.907385,29.0200379 L211.388479,29.0200379 L211.413164,30.0483558 C211.91235,29.2531193 212.619977,28.8555071 213.536065,28.8555071 C213.832286,28.8555071 214.05719,28.8938972 214.210786,28.9706787 L214.210786,30.385644 Z M216.39462,33.3883321 C216.39462,32.5163142 216.566041,31.7320583 216.908888,31.0355409 C217.251736,30.3390235 217.728972,29.8015614 218.340612,29.4231385 C218.952252,29.0447157 219.65028,28.8555071 220.434715,28.8555071 C221.647024,28.8555071 222.627553,29.2750566 223.376332,30.1141681 C224.125111,30.9532797 224.499495,32.0693361 224.499495,33.462371 L224.499495,33.569316 C224.499495,34.4358495 224.333559,35.21325 224.001683,35.9015409 C223.669806,36.5898317 223.195312,37.1259227 222.578187,37.50983 C221.961061,37.8937372 221.252063,38.085688 220.451171,38.085688 C219.244348,38.085688 218.266561,37.6661385 217.517782,36.8270269 C216.769003,35.9879154 216.39462,34.8773432 216.39462,33.4952771 L216.39462,33.3883321 Z M217.925083,33.569316 C217.925083,34.5565061 218.154102,35.3489884 218.612146,35.9467869 C219.070191,36.5445853 219.683193,36.84348 220.451171,36.84348 C221.224635,36.84348 221.839009,36.5404721 222.29431,35.9344471 C222.749612,35.3284221 222.977259,34.4797255 222.977259,33.3883321 C222.977259,32.4121108 222.745498,31.6209995 222.281968,31.0149745 C221.818438,30.4089495 221.202693,30.1059416 220.434715,30.1059416 C219.683193,30.1059416 219.077048,30.4048363 218.61626,31.0026347 C218.155473,31.6004331 217.925083,32.455985 217.925083,33.569316 L217.925083,33.569316 Z M235.643947,35.8233887 L237.355433,29.0200379 L238.877669,29.0200379 L236.285754,37.9211571 L235.051509,37.9211571 L232.887466,31.1753921 L230.781022,37.9211571 L229.546777,37.9211571 L226.963091,29.0200379 L228.477098,29.0200379 L230.229726,35.6835375 L232.303257,29.0200379 L233.529274,29.0200379 L235.643947,35.8233887 Z" id="explore----wonder---" fill="#9E8E7D"></path>
                <path d="M1.60479107,5.79632778 C2.27951502,4.96818501 3.15719154,4.55411983 4.23784697,4.55411983 C6.11939424,4.55411983 7.06838198,5.61533323 7.08483866,7.73779185 L7.08483866,13.6197699 L5.56260322,13.6197699 L5.56260322,7.72956531 C5.55711766,7.08789177 5.41038111,6.61349922 5.12238919,6.30637343 C4.83439726,5.99924763 4.38595941,5.84568703 3.77706219,5.84568703 C3.28336174,5.84568703 2.85000895,5.9773104 2.47699083,6.24056108 C2.10397272,6.50381177 1.81324237,6.8493231 1.60479107,7.27710546 L1.60479107,13.6197699 L0.0825556242,13.6197699 L0.0825556242,0.983800301 L1.60479107,0.983800301 L1.60479107,5.79632778 Z M10.3136664,9.08694486 C10.3136664,8.21492697 10.4850876,7.43067108 10.8279351,6.73415365 C11.1707827,6.03763621 11.6480193,5.50017413 12.2596593,5.12175128 C12.8712993,4.74332842 13.5693264,4.55411983 14.3537616,4.55411983 C15.5660704,4.55411983 16.5465997,4.97366931 17.2953787,5.81278086 C18.0441577,6.65189241 18.4185416,7.76794888 18.4185416,9.16098374 L18.4185416,9.2679288 C18.4185416,10.1344623 18.2526059,10.9118628 17.9207295,11.6001537 C17.5888531,12.2884445 17.1143592,12.8245355 16.4972336,13.2084427 C15.8801081,13.59235 15.17111,13.7843007 14.3702182,13.7843007 C13.1633948,13.7843007 12.1856083,13.3647513 11.4368293,12.5256397 C10.6880503,11.6865282 10.3136664,10.575956 10.3136664,9.19388991 L10.3136664,9.08694486 Z M11.8441302,9.2679288 C11.8441302,10.2551189 12.0731489,11.0476012 12.5311932,11.6453996 C12.9892375,12.2431981 13.6022397,12.5420928 14.3702182,12.5420928 C15.1436822,12.5420928 15.7580558,12.2390848 16.2133573,11.6330598 C16.6686588,11.0270348 16.8963062,10.1783383 16.8963062,9.08694486 C16.8963062,8.11072358 16.6645447,7.3196123 16.2010148,6.71358729 C15.737485,6.10756228 15.12174,5.80455432 14.3537616,5.80455432 C13.6022398,5.80455432 12.9960944,6.10344905 12.5353073,6.70124748 C12.0745202,7.2990459 11.8441302,8.15459778 11.8441302,9.2679288 L11.8441302,9.2679288 Z M23.1120067,4.71865069 L23.1531482,5.70583581 C23.8059299,4.93802132 24.6863492,4.55411983 25.7944324,4.55411983 C27.0396546,4.55411983 27.887161,5.03125454 28.336977,5.98553826 C28.6331973,5.5577559 29.0185521,5.21224456 29.4930531,4.94899388 C29.9675541,4.6857432 30.5284443,4.55411983 31.1757404,4.55411983 C33.1286,4.55411983 34.1214715,5.58791169 34.1543849,7.65552643 L34.1543849,13.6197699 L32.6321494,13.6197699 L32.6321494,7.7460184 C32.6321494,7.10982925 32.4867843,6.63406562 32.1960496,6.31871324 C31.9053148,6.00336086 31.4171073,5.84568703 30.7314122,5.84568703 C30.1663995,5.84568703 29.6973911,6.01432947 29.324373,6.35161941 C28.9513548,6.68890935 28.7346785,7.14273575 28.6743373,7.71311223 L28.6743373,13.6197699 L27.1438735,13.6197699 L27.1438735,7.78715111 C27.1438735,6.49283526 26.5103008,5.84568703 25.2431363,5.84568703 C24.2447643,5.84568703 23.5618223,6.27072082 23.1942897,7.12080115 L23.1942897,13.6197699 L21.6720543,13.6197699 L21.6720543,4.71865069 L23.1120067,4.71865069 Z M41.4973625,13.7843007 C40.2905392,13.7843007 39.3086385,13.3880596 38.5516312,12.5955653 C37.7946238,11.8030711 37.4161258,10.7432288 37.4161258,9.41600656 L37.4161258,9.13630411 C37.4161258,8.25331745 37.5848043,7.46494832 37.9221663,6.77117309 C38.2595282,6.07739785 38.7312794,5.53445146 39.3374338,5.14231763 C39.9435883,4.7501838 40.6004743,4.55411983 41.3081116,4.55411983 C42.4655649,4.55411983 43.3651833,4.93527916 44.0069939,5.69760927 C44.6488045,6.45993937 44.9697049,7.55131645 44.9697049,8.97177326 L44.9697049,9.60521705 L38.9383613,9.60521705 C38.9603035,10.4827193 39.2167496,11.191566 39.7077073,11.7317783 C40.198665,12.2719907 40.8226381,12.5420928 41.5796455,12.5420928 C42.1172304,12.5420928 42.5725251,12.4324067 42.9455432,12.2130311 C43.3185613,11.9936555 43.6449473,11.7029872 43.9247109,11.3410176 L44.8545088,12.0649533 C44.1084725,13.2111907 42.9894349,13.7843007 41.4973625,13.7843007 L41.4973625,13.7843007 Z M41.3081116,5.80455432 C40.6937288,5.80455432 40.1780938,6.02803983 39.7611912,6.47501755 C39.3442886,6.92199527 39.0864712,7.54857734 38.9877311,8.35478256 L43.4474695,8.35478256 L43.4474695,8.23961096 C43.403585,7.46631208 43.1951368,6.86715154 42.8221187,6.44211138 C42.4491006,6.01707122 41.9444366,5.80455432 41.3081116,5.80455432 L41.3081116,5.80455432 Z M61.1449824,9.2679288 C61.1449824,10.6280573 60.8323101,11.7208055 60.2069562,12.5462061 C59.5816023,13.3716066 58.7423241,13.7843007 57.6890965,13.7843007 C56.5645566,13.7843007 55.6951083,13.3866885 55.0807255,12.591452 L55.0066708,13.6197699 L53.6078599,13.6197699 L53.6078599,0.983800301 L55.1300953,0.983800301 L55.1300953,5.69760927 C55.7444781,4.93527916 56.5919845,4.55411983 57.6726399,4.55411983 C58.7532953,4.55411983 59.6021731,4.9627007 60.2192987,5.77987469 C60.8364242,6.59704869 61.1449824,7.71584731 61.1449824,9.13630411 L61.1449824,9.2679288 Z M59.6227469,9.0951714 C59.6227469,8.05862184 59.422527,7.25791302 59.0220811,6.69302093 C58.6216351,6.12812884 58.0456599,5.84568703 57.2941381,5.84568703 C56.2902805,5.84568703 55.5689401,6.31185313 55.1300953,7.24419929 L55.1300953,11.0942213 C55.596368,12.0265674 56.3231938,12.4927335 57.3105947,12.4927335 C58.0401743,12.4927335 58.6079213,12.2102917 59.0138528,11.6453996 C59.4197842,11.0805075 59.6227469,10.23044 59.6227469,9.0951714 L59.6227469,9.0951714 Z M69.9114558,13.6197699 C69.8236869,13.4442694 69.7523756,13.1316639 69.69752,12.681944 C68.9898827,13.4168522 68.1451191,13.7843007 67.1632037,13.7843007 C66.285514,13.7843007 65.565545,13.5361358 65.0032751,13.0397986 C64.4410051,12.5434614 64.1598743,11.9141372 64.1598743,11.1518071 C64.1598743,10.2249453 64.5123163,9.50513001 65.2172108,8.99233962 C65.9221054,8.47954922 66.9136056,8.22315787 68.1917412,8.22315787 L69.6728351,8.22315787 L69.6728351,7.52390174 C69.6728351,6.99191599 69.5137563,6.56825328 69.1955937,6.2529009 C68.8774312,5.93754852 68.4084228,5.77987469 67.7885545,5.77987469 C67.245484,5.77987469 66.7901893,5.91698237 66.4226568,6.19120183 C66.0551242,6.46542129 65.8713607,6.79722186 65.8713607,7.18661349 L64.3408969,7.18661349 C64.3408969,6.74237797 64.4986044,6.31323095 64.8140242,5.89915956 C65.1294439,5.48508818 65.5573112,5.15740084 66.0976389,4.91608771 C66.6379666,4.67477458 67.2317697,4.55411983 67.8790658,4.55411983 C68.9048656,4.55411983 69.7084882,4.81051118 70.2899576,5.32330157 C70.871427,5.83609197 71.1731283,6.54219649 71.1950706,7.44163632 L71.1950706,11.5384546 C71.1950706,12.3556286 71.2992947,13.0055189 71.507746,13.4881452 L71.507746,13.6197699 L69.9114558,13.6197699 Z M67.3853678,12.4598274 C67.8626116,12.4598274 68.3151635,12.3364305 68.7430373,12.0896329 C69.170911,11.8428354 69.4808405,11.5220035 69.6728351,11.1271274 L69.6728351,9.30083497 L68.4797317,9.30083497 C66.6146411,9.30083497 65.6821098,9.84652351 65.6821098,10.937917 C65.6821098,11.4150588 65.8411886,11.7879917 66.1593512,12.0567268 C66.4775137,12.3254618 66.8861818,12.4598274 67.3853678,12.4598274 L67.3853678,12.4598274 Z M80.1178817,11.2587521 C80.1178817,10.8474229 79.9629169,10.5279621 79.6529828,10.3003599 C79.3430486,10.0727578 78.802729,9.87669378 78.0320077,9.7121621 C77.2612865,9.54763043 76.6496556,9.35019537 76.1970969,9.11985103 C75.7445382,8.88950668 75.409924,8.61529133 75.1932443,8.29719676 C74.9765647,7.97910218 74.8682265,7.600685 74.8682265,7.16193387 C74.8682265,6.4325101 75.1767847,5.81552557 75.7939102,5.31096176 C76.4110358,4.80639795 77.1995733,4.55411983 78.1595464,4.55411983 C79.1688895,4.55411983 79.9875972,4.81462441 80.6156938,5.33564139 C81.2437905,5.85665836 81.5578342,6.52300166 81.5578342,7.33469126 L80.0273704,7.33469126 C80.0273704,6.91787768 79.8504637,6.55865558 79.4966451,6.25701417 C79.1428264,5.95537276 78.6971313,5.80455432 78.1595464,5.80455432 C77.6055048,5.80455432 77.172152,5.92520907 76.859475,6.1665222 C76.5467981,6.40783533 76.3904619,6.72318298 76.3904619,7.11257461 C76.3904619,7.48002869 76.5358271,7.75698619 76.8265618,7.94345542 C77.1172965,8.12992466 77.6425311,8.30816463 78.4022812,8.4781807 C79.1620314,8.64819676 79.7777763,8.85111612 80.2495345,9.08694486 C80.7212927,9.32277359 81.0709919,9.60658648 81.2986427,9.93839203 C81.5262935,10.2701976 81.6401171,10.6746652 81.6401171,11.1518071 C81.6401171,11.9470435 81.3219594,12.5845942 80.6856344,13.0644783 C80.0493094,13.5443623 79.2237449,13.7843007 78.2089162,13.7843007 C77.4957933,13.7843007 76.8649633,13.6581617 76.3164072,13.4058798 C75.7678512,13.1535979 75.3386125,12.8012311 75.0286783,12.348769 C74.7187442,11.8963069 74.5637794,11.4068325 74.5637794,10.8803312 L76.0860149,10.8803312 C76.1134427,11.3903794 76.3177767,11.794847 76.6990232,12.0937462 C77.0802696,12.3926454 77.5835623,12.5420928 78.2089162,12.5420928 C78.7849,12.5420928 79.2470516,12.4255513 79.5953847,12.1924647 C79.9437178,11.9593782 80.1178817,11.6481438 80.1178817,11.2587521 L80.1178817,11.2587521 Z M88.6704194,13.7843007 C87.463596,13.7843007 86.4816954,13.3880596 85.7246881,12.5955653 C84.9676807,11.8030711 84.5891827,10.7432288 84.5891827,9.41600656 L84.5891827,9.13630411 C84.5891827,8.25331745 84.7578612,7.46494832 85.0952231,6.77117309 C85.4325851,6.07739785 85.9043362,5.53445146 86.5104907,5.14231763 C87.1166451,4.7501838 87.7735311,4.55411983 88.4811685,4.55411983 C89.6386217,4.55411983 90.5382402,4.93527916 91.1800508,5.69760927 C91.8218613,6.45993937 92.1427618,7.55131645 92.1427618,8.97177326 L92.1427618,9.60521705 L86.1114182,9.60521705 C86.1333604,10.4827193 86.3898065,11.191566 86.8807642,11.7317783 C87.3717218,12.2719907 87.995695,12.5420928 88.7527024,12.5420928 C89.2902873,12.5420928 89.745582,12.4324067 90.1186001,12.2130311 C90.4916182,11.9936555 90.8180042,11.7029872 91.0977678,11.3410176 L92.0275656,12.0649533 C91.2815294,13.2111907 90.1624918,13.7843007 88.6704194,13.7843007 L88.6704194,13.7843007 Z M88.4811685,5.80455432 C87.8667857,5.80455432 87.3511507,6.02803983 86.9342481,6.47501755 C86.5173455,6.92199527 86.259528,7.54857734 86.1607879,8.35478256 L90.6205264,8.35478256 L90.6205264,8.23961096 C90.5766419,7.46631208 90.3681937,6.86715154 89.9951756,6.44211138 C89.6221575,6.01707122 89.1174935,5.80455432 88.4811685,5.80455432 L88.4811685,5.80455432 Z M94.8861199,9.0951714 C94.8861199,7.72955848 95.2097631,6.63132602 95.8570593,5.80044105 C96.5043554,4.96955608 97.3518618,4.55411983 98.3996039,4.55411983 C99.4418604,4.55411983 100.267425,4.91059978 100.876322,5.62357038 L100.876322,0.983800301 L102.398558,0.983800301 L102.398558,13.6197699 L100.999747,13.6197699 L100.925692,12.6654909 C100.316795,13.4113679 99.4692882,13.7843007 98.3831473,13.7843007 C97.3518619,13.7843007 96.5112123,13.3620091 95.8611734,12.5174132 C95.2111345,11.6728172 94.8861199,10.5704715 94.8861199,9.210343 L94.8861199,9.0951714 Z M96.4083553,9.2679288 C96.4083553,10.2770564 96.6168035,11.0667966 97.0337061,11.6371731 C97.4506087,12.2075496 98.0265839,12.4927335 98.761649,12.4927335 C99.7271077,12.4927335 100.431992,12.0594733 100.876322,11.1929398 L100.876322,7.10434807 C100.421021,6.26523652 99.7216221,5.84568703 98.7781056,5.84568703 C98.0320694,5.84568703 97.4506087,6.13361315 97.0337061,6.70947402 C96.6168035,7.28533489 96.4083553,8.13814462 96.4083553,9.2679288 L96.4083553,9.2679288 Z M115.331885,13.7843007 C114.125062,13.7843007 113.143161,13.3880596 112.386154,12.5955653 C111.629146,11.8030711 111.250648,10.7432288 111.250648,9.41600656 L111.250648,9.13630411 C111.250648,8.25331745 111.419327,7.46494832 111.756689,6.77117309 C112.094051,6.07739785 112.565802,5.53445146 113.171956,5.14231763 C113.778111,4.7501838 114.434997,4.55411983 115.142634,4.55411983 C116.300087,4.55411983 117.199706,4.93527916 117.841516,5.69760927 C118.483327,6.45993937 118.804227,7.55131645 118.804227,8.97177326 L118.804227,9.60521705 L112.772884,9.60521705 C112.794826,10.4827193 113.051272,11.191566 113.54223,11.7317783 C114.033187,12.2719907 114.657161,12.5420928 115.414168,12.5420928 C115.951753,12.5420928 116.407047,12.4324067 116.780066,12.2130311 C117.153084,11.9936555 117.47947,11.7029872 117.759233,11.3410176 L118.689031,12.0649533 C117.942995,13.2111907 116.823957,13.7843007 115.331885,13.7843007 L115.331885,13.7843007 Z M115.142634,5.80455432 C114.528251,5.80455432 114.012616,6.02803983 113.595714,6.47501755 C113.178811,6.92199527 112.920994,7.54857734 112.822253,8.35478256 L117.281992,8.35478256 L117.281992,8.23961096 C117.238107,7.46631208 117.029659,6.86715154 116.656641,6.44211138 C116.283623,6.01707122 115.778959,5.80455432 115.142634,5.80455432 L115.142634,5.80455432 Z M127.414363,13.6197699 C127.326594,13.4442694 127.255283,13.1316639 127.200427,12.681944 C126.49279,13.4168522 125.648026,13.7843007 124.666111,13.7843007 C123.788421,13.7843007 123.068452,13.5361358 122.506182,13.0397986 C121.943912,12.5434614 121.662782,11.9141372 121.662782,11.1518071 C121.662782,10.2249453 122.015224,9.50513001 122.720118,8.99233962 C123.425013,8.47954922 124.416513,8.22315787 125.694648,8.22315787 L127.175742,8.22315787 L127.175742,7.52390174 C127.175742,6.99191599 127.016664,6.56825328 126.698501,6.2529009 C126.380338,5.93754852 125.91133,5.77987469 125.291462,5.77987469 C124.748391,5.77987469 124.293097,5.91698237 123.925564,6.19120183 C123.558031,6.46542129 123.374268,6.79722186 123.374268,7.18661349 L121.843804,7.18661349 C121.843804,6.74237797 122.001512,6.31323095 122.316931,5.89915956 C122.632351,5.48508818 123.060218,5.15740084 123.600546,4.91608771 C124.140874,4.67477458 124.734677,4.55411983 125.381973,4.55411983 C126.407773,4.55411983 127.211395,4.81051118 127.792865,5.32330157 C128.374334,5.83609197 128.676036,6.54219649 128.697978,7.44163632 L128.697978,11.5384546 C128.697978,12.3556286 128.802202,13.0055189 129.010653,13.4881452 L129.010653,13.6197699 L127.414363,13.6197699 Z M124.888275,12.4598274 C125.365519,12.4598274 125.818071,12.3364305 126.245945,12.0896329 C126.673818,11.8428354 126.983748,11.5220035 127.175742,11.1271274 L127.175742,9.30083497 L125.982639,9.30083497 C124.117548,9.30083497 123.185017,9.84652351 123.185017,10.937917 C123.185017,11.4150588 123.344096,11.7879917 123.662258,12.0567268 C123.980421,12.3254618 124.389089,12.4598274 124.888275,12.4598274 L124.888275,12.4598274 Z M136.740361,6.08425677 C136.509967,6.04586605 136.260378,6.02667097 135.991586,6.02667097 C134.993214,6.02667097 134.315757,6.45170476 133.959196,7.30178509 L133.959196,13.6197699 L132.43696,13.6197699 L132.43696,4.71865069 L133.918054,4.71865069 L133.942739,5.74696852 C134.441925,4.95173209 135.149552,4.55411983 136.06564,4.55411983 C136.361861,4.55411983 136.586765,4.59250998 136.740361,4.66929143 L136.740361,6.08425677 Z M141.145836,13.6197699 L139.6236,13.6197699 L139.6236,0.983800301 L141.145836,0.983800301 L141.145836,13.6197699 Z M147.847006,11.3903768 L149.920537,4.71865069 L151.549741,4.71865069 L147.97043,14.9936025 C147.416389,16.4743876 146.535969,17.214769 145.329146,17.214769 L145.041156,17.1900894 L144.473403,17.0831444 L144.473403,15.849163 L144.884818,15.8820691 C145.400461,15.8820691 145.802272,15.7778673 146.090264,15.5694605 C146.378256,15.3610537 146.615503,14.9798944 146.802012,14.4259711 L147.139372,13.5210514 L143.963248,4.71865069 L145.625365,4.71865069 L147.847006,11.3903768 Z M162.697527,11.3903768 L164.771058,4.71865069 L166.400262,4.71865069 L162.820951,14.9936025 C162.26691,16.4743876 161.386491,17.214769 160.179667,17.214769 L159.891677,17.1900894 L159.323924,17.0831444 L159.323924,15.849163 L159.735339,15.8820691 C160.250982,15.8820691 160.652793,15.7778673 160.940785,15.5694605 C161.228777,15.3610537 161.466024,14.9798944 161.652533,14.4259711 L161.989893,13.5210514 L158.813769,4.71865069 L160.475886,4.71865069 L162.697527,11.3903768 Z M172.698245,13.7843007 C171.491422,13.7843007 170.509521,13.3880596 169.752514,12.5955653 C168.995507,11.8030711 168.617009,10.7432288 168.617009,9.41600656 L168.617009,9.13630411 C168.617009,8.25331745 168.785687,7.46494832 169.123049,6.77117309 C169.460411,6.07739785 169.932162,5.53445146 170.538317,5.14231763 C171.144471,4.7501838 171.801357,4.55411983 172.508994,4.55411983 C173.666448,4.55411983 174.566066,4.93527916 175.207877,5.69760927 C175.849687,6.45993937 176.170588,7.55131645 176.170588,8.97177326 L176.170588,9.60521705 L170.139244,9.60521705 C170.161186,10.4827193 170.417632,11.191566 170.90859,11.7317783 C171.399548,12.2719907 172.023521,12.5420928 172.780528,12.5420928 C173.318113,12.5420928 173.773408,12.4324067 174.146426,12.2130311 C174.519444,11.9936555 174.84583,11.7029872 175.125594,11.3410176 L176.055392,12.0649533 C175.309355,13.2111907 174.190318,13.7843007 172.698245,13.7843007 L172.698245,13.7843007 Z M172.508994,5.80455432 C171.894612,5.80455432 171.378977,6.02803983 170.962074,6.47501755 C170.545171,6.92199527 170.287354,7.54857734 170.188614,8.35478256 L174.648352,8.35478256 L174.648352,8.23961096 C174.604468,7.46631208 174.39602,6.86715154 174.023002,6.44211138 C173.649983,6.01707122 173.145319,5.80455432 172.508994,5.80455432 L172.508994,5.80455432 Z M184.780724,13.6197699 C184.692955,13.4442694 184.621643,13.1316639 184.566788,12.681944 C183.85915,13.4168522 183.014387,13.7843007 182.032471,13.7843007 C181.154782,13.7843007 180.434813,13.5361358 179.872543,13.0397986 C179.310273,12.5434614 179.029142,11.9141372 179.029142,11.1518071 C179.029142,10.2249453 179.381584,9.50513001 180.086479,8.99233962 C180.791373,8.47954922 181.782873,8.22315787 183.061009,8.22315787 L184.542103,8.22315787 L184.542103,7.52390174 C184.542103,6.99191599 184.383024,6.56825328 184.064861,6.2529009 C183.746699,5.93754852 183.277691,5.77987469 182.657822,5.77987469 C182.114752,5.77987469 181.659457,5.91698237 181.291924,6.19120183 C180.924392,6.46542129 180.740628,6.79722186 180.740628,7.18661349 L179.210165,7.18661349 C179.210165,6.74237797 179.367872,6.31323095 179.683292,5.89915956 C179.998712,5.48508818 180.426579,5.15740084 180.966907,4.91608771 C181.507234,4.67477458 182.101037,4.55411983 182.748333,4.55411983 C183.774133,4.55411983 184.577756,4.81051118 185.159225,5.32330157 C185.740695,5.83609197 186.042396,6.54219649 186.064338,7.44163632 L186.064338,11.5384546 C186.064338,12.3556286 186.168562,13.0055189 186.377014,13.4881452 L186.377014,13.6197699 L184.780724,13.6197699 Z M182.254636,12.4598274 C182.731879,12.4598274 183.184431,12.3364305 183.612305,12.0896329 C184.040179,11.8428354 184.350108,11.5220035 184.542103,11.1271274 L184.542103,9.30083497 L183.348999,9.30083497 C181.483909,9.30083497 180.551377,9.84652351 180.551377,10.937917 C180.551377,11.4150588 180.710456,11.7879917 181.028619,12.0567268 C181.346781,12.3254618 181.755449,12.4598274 182.254636,12.4598274 L182.254636,12.4598274 Z M194.106721,6.08425677 C193.876328,6.04586605 193.626739,6.02667097 193.357946,6.02667097 C192.359574,6.02667097 191.682117,6.45170476 191.325556,7.30178509 L191.325556,13.6197699 L189.803321,13.6197699 L189.803321,4.71865069 L191.284415,4.71865069 L191.309099,5.74696852 C191.808285,4.95173209 192.515912,4.55411983 193.432001,4.55411983 C193.728221,4.55411983 193.953126,4.59250998 194.106721,4.66929143 L194.106721,6.08425677 Z M202.042136,11.2587521 C202.042136,10.8474229 201.887172,10.5279621 201.577238,10.3003599 C201.267303,10.0727578 200.726984,9.87669378 199.956263,9.7121621 C199.185541,9.54763043 198.57391,9.35019537 198.121352,9.11985103 C197.668793,8.88950668 197.334179,8.61529133 197.117499,8.29719676 C196.900819,7.97910218 196.792481,7.600685 196.792481,7.16193387 C196.792481,6.4325101 197.101039,5.81552557 197.718165,5.31096176 C198.335291,4.80639795 199.123828,4.55411983 200.083801,4.55411983 C201.093144,4.55411983 201.911852,4.81462441 202.539949,5.33564139 C203.168045,5.85665836 203.482089,6.52300166 203.482089,7.33469126 L201.951625,7.33469126 C201.951625,6.91787768 201.774719,6.55865558 201.4209,6.25701417 C201.067081,5.95537276 200.621386,5.80455432 200.083801,5.80455432 C199.52976,5.80455432 199.096407,5.92520907 198.78373,6.1665222 C198.471053,6.40783533 198.314717,6.72318298 198.314717,7.11257461 C198.314717,7.48002869 198.460082,7.75698619 198.750817,7.94345542 C199.041551,8.12992466 199.566786,8.30816463 200.326536,8.4781807 C201.086286,8.64819676 201.702031,8.85111612 202.173789,9.08694486 C202.645548,9.32277359 202.995247,9.60658648 203.222898,9.93839203 C203.450548,10.2701976 203.564372,10.6746652 203.564372,11.1518071 C203.564372,11.9470435 203.246214,12.5845942 202.609889,13.0644783 C201.973564,13.5443623 201.148,13.7843007 200.133171,13.7843007 C199.420048,13.7843007 198.789218,13.6581617 198.240662,13.4058798 C197.692106,13.1535979 197.262867,12.8012311 196.952933,12.348769 C196.642999,11.8963069 196.488034,11.4068325 196.488034,10.8803312 L198.01027,10.8803312 C198.037697,11.3903794 198.242032,11.794847 198.623278,12.0937462 C199.004524,12.3926454 199.507817,12.5420928 200.133171,12.5420928 C200.709155,12.5420928 201.171306,12.4255513 201.519639,12.1924647 C201.867973,11.9593782 202.042136,11.6481438 202.042136,11.2587521 L202.042136,11.2587521 Z M217.60852,11.2587521 C217.60852,10.8474229 217.453555,10.5279621 217.143621,10.3003599 C216.833687,10.0727578 216.293367,9.87669378 215.522646,9.7121621 C214.751925,9.54763043 214.140294,9.35019537 213.687735,9.11985103 C213.235176,8.88950668 212.900562,8.61529133 212.683882,8.29719676 C212.467203,7.97910218 212.358865,7.600685 212.358865,7.16193387 C212.358865,6.4325101 212.667423,5.81552557 213.284548,5.31096176 C213.901674,4.80639795 214.690211,4.55411983 215.650184,4.55411983 C216.659528,4.55411983 217.478235,4.81462441 218.106332,5.33564139 C218.734429,5.85665836 219.048472,6.52300166 219.048472,7.33469126 L217.518008,7.33469126 C217.518008,6.91787768 217.341102,6.55865558 216.987283,6.25701417 C216.633464,5.95537276 216.187769,5.80455432 215.650184,5.80455432 C215.096143,5.80455432 214.66279,5.92520907 214.350113,6.1665222 C214.037436,6.40783533 213.8811,6.72318298 213.8811,7.11257461 C213.8811,7.48002869 214.026465,7.75698619 214.3172,7.94345542 C214.607935,8.12992466 215.133169,8.30816463 215.892919,8.4781807 C216.652669,8.64819676 217.268414,8.85111612 217.740173,9.08694486 C218.211931,9.32277359 218.56163,9.60658648 218.789281,9.93839203 C219.016932,10.2701976 219.130755,10.6746652 219.130755,11.1518071 C219.130755,11.9470435 218.812597,12.5845942 218.176272,13.0644783 C217.539947,13.5443623 216.714383,13.7843007 215.699554,13.7843007 C214.986431,13.7843007 214.355601,13.6581617 213.807045,13.4058798 C213.258489,13.1535979 212.829251,12.8012311 212.519316,12.348769 C212.209382,11.8963069 212.054417,11.4068325 212.054417,10.8803312 L213.576653,10.8803312 C213.604081,11.3903794 213.808415,11.794847 214.189661,12.0937462 C214.570908,12.3926454 215.0742,12.5420928 215.699554,12.5420928 C216.275538,12.5420928 216.73769,12.4255513 217.086023,12.1924647 C217.434356,11.9593782 217.60852,11.6481438 217.60852,11.2587521 L217.60852,11.2587521 Z M226.161057,13.7843007 C224.954234,13.7843007 223.972333,13.3880596 223.215326,12.5955653 C222.458319,11.8030711 222.079821,10.7432288 222.079821,9.41600656 L222.079821,9.13630411 C222.079821,8.25331745 222.248499,7.46494832 222.585861,6.77117309 C222.923223,6.07739785 223.394974,5.53445146 224.001129,5.14231763 C224.607283,4.7501838 225.264169,4.55411983 225.971807,4.55411983 C227.12926,4.55411983 228.028878,4.93527916 228.670689,5.69760927 C229.312499,6.45993937 229.6334,7.55131645 229.6334,8.97177326 L229.6334,9.60521705 L223.602056,9.60521705 C223.623998,10.4827193 223.880445,11.191566 224.371402,11.7317783 C224.86236,12.2719907 225.486333,12.5420928 226.24334,12.5420928 C226.780925,12.5420928 227.23622,12.4324067 227.609238,12.2130311 C227.982256,11.9936555 228.308642,11.7029872 228.588406,11.3410176 L229.518204,12.0649533 C228.772167,13.2111907 227.65313,13.7843007 226.161057,13.7843007 L226.161057,13.7843007 Z M225.971807,5.80455432 C225.357424,5.80455432 224.841789,6.02803983 224.424886,6.47501755 C224.007984,6.92199527 223.750166,7.54857734 223.651426,8.35478256 L228.111164,8.35478256 L228.111164,8.23961096 C228.06728,7.46631208 227.858832,6.86715154 227.485814,6.44211138 C227.112796,6.01707122 226.608132,5.80455432 225.971807,5.80455432 L225.971807,5.80455432 Z M234.812335,2.5632965 L234.812335,4.71865069 L236.474451,4.71865069 L236.474451,5.89504629 L234.812335,5.89504629 L234.812335,11.4150564 C234.812335,11.7715417 234.886389,12.0389017 235.034499,12.2171444 C235.182609,12.395387 235.434941,12.484507 235.791502,12.484507 C235.96704,12.484507 236.208401,12.4516011 236.515593,12.3857885 L236.515593,13.6197699 C236.115147,13.7294577 235.725678,13.7843007 235.347174,13.7843007 C234.666965,13.7843007 234.154072,13.5786392 233.808482,13.16731 C233.462892,12.7559808 233.290099,12.1719022 233.290099,11.4150564 L233.290099,5.89504629 L231.669124,5.89504629 L231.669124,4.71865069 L233.290099,4.71865069 L233.290099,2.5632965 L234.812335,2.5632965 Z M241.669843,2.5632965 L241.669843,4.71865069 L243.331959,4.71865069 L243.331959,5.89504629 L241.669843,5.89504629 L241.669843,11.4150564 C241.669843,11.7715417 241.743897,12.0389017 241.892007,12.2171444 C242.040117,12.395387 242.292449,12.484507 242.64901,12.484507 C242.824548,12.484507 243.065909,12.4516011 243.373101,12.3857885 L243.373101,13.6197699 C242.972655,13.7294577 242.583186,13.7843007 242.204682,13.7843007 C241.524473,13.7843007 241.01158,13.5786392 240.66599,13.16731 C240.3204,12.7559808 240.147607,12.1719022 240.147607,11.4150564 L240.147607,5.89504629 L238.526632,5.89504629 L238.526632,4.71865069 L240.147607,4.71865069 L240.147607,2.5632965 L241.669843,2.5632965 Z M248.115935,13.6197699 L246.5937,13.6197699 L246.5937,4.71865069 L248.115935,4.71865069 L248.115935,13.6197699 Z M246.470276,2.35763293 C246.470276,2.11083542 246.545701,1.90243175 246.696554,1.73241569 C246.847407,1.56239962 247.07094,1.47739286 247.36716,1.47739286 C247.66338,1.47739286 247.888285,1.56239962 248.041881,1.73241569 C248.195476,1.90243175 248.272273,2.11083542 248.272273,2.35763293 C248.272273,2.60443045 248.195476,2.81009196 248.041881,2.97462363 C247.888285,3.13915531 247.66338,3.22141991 247.36716,3.22141991 C247.07094,3.22141991 246.847407,3.13915531 246.696554,2.97462363 C246.545701,2.81009196 246.470276,2.60443045 246.470276,2.35763293 L246.470276,2.35763293 Z M253.34424,4.71865069 L253.39361,5.83746049 C254.073819,4.98189577 254.962467,4.55411983 256.059579,4.55411983 C257.941126,4.55411983 258.890114,5.61533323 258.906571,7.73779185 L258.906571,13.6197699 L257.384335,13.6197699 L257.384335,7.72956531 C257.37885,7.08789177 257.232113,6.61349922 256.944121,6.30637343 C256.656129,5.99924763 256.207691,5.84568703 255.598794,5.84568703 C255.105094,5.84568703 254.671741,5.9773104 254.298723,6.24056108 C253.925705,6.50381177 253.634974,6.8493231 253.426523,7.27710546 L253.426523,13.6197699 L251.904288,13.6197699 L251.904288,4.71865069 L253.34424,4.71865069 Z M262.192996,9.0951714 C262.192996,7.70762093 262.513897,6.60390415 263.155708,5.78398796 C263.797518,4.96407178 264.647767,4.55411983 265.70648,4.55411983 C266.792621,4.55411983 267.640128,4.93802132 268.249025,5.70583581 L268.32308,4.71865069 L269.713662,4.71865069 L269.713662,13.4058798 C269.713662,14.5576015 269.372191,15.4652543 268.689239,16.1288654 C268.006287,16.7924765 267.088841,17.1242771 265.936873,17.1242771 C265.295062,17.1242771 264.666975,16.9871694 264.052592,16.7129499 C263.438209,16.4387305 262.969201,16.0630554 262.645553,15.5859136 L263.43547,14.6727673 C264.088251,15.4789726 264.886389,15.8820691 265.829905,15.8820691 C266.570456,15.8820691 267.147802,15.6736655 267.561962,15.2568519 C267.976122,14.8400383 268.183199,14.2532175 268.183199,13.4963717 L268.183199,12.7313033 C267.574301,13.4333051 266.743251,13.7843007 265.690024,13.7843007 C264.647767,13.7843007 263.804375,13.3647513 263.159822,12.5256397 C262.515268,11.6865282 262.192996,10.5430502 262.192996,9.0951714 L262.192996,9.0951714 Z M263.72346,9.2679288 C263.72346,10.271572 263.929166,11.0599411 264.340583,11.6330598 C264.752,12.2061785 265.327975,12.4927335 266.068526,12.4927335 C267.028499,12.4927335 267.733383,12.0567311 268.183199,11.1847132 L268.183199,7.12080115 C267.716926,6.27072082 267.017528,5.84568703 266.084982,5.84568703 C265.344432,5.84568703 264.765714,6.13361315 264.348811,6.70947402 C263.931908,7.28533489 263.72346,8.13814462 263.72346,9.2679288 L263.72346,9.2679288 Z" id="home-based-early-years-setting" fill="#9E8E7D"></path>
                <path d="M102.335842,34.0180888 C102.335842,35.234407 101.347854,36.2212695 100.130147,36.2212695 C98.9124407,36.2212695 97.9244518,35.234407 97.9244518,34.0180888 C97.9244518,32.8017706 98.9124407,31.8149081 100.130147,31.8149081 C101.347854,31.8149081 102.335842,32.8017706 102.335842,34.0180888" fill="#397F31"></path>
                <path d="M189.047958,34.0180888 C189.047958,35.234407 188.059969,36.2212695 186.842262,36.2212695 C185.624556,36.2212695 184.636567,35.234407 184.636567,34.0180888 C184.636567,32.8017706 185.624556,31.8149081 186.842262,31.8149081 C188.059969,31.8149081 189.047958,32.8017706 189.047958,34.0180888" fill="#397F31"></path>
            </g>
            <g transform="translate(146.135501, 0.000000)">
                <path d="M66.9485031,49.5944059 C66.9485031,49.5944059 69.2453744,53.1123009 72.2442674,56.0582682 C75.2449606,59.002437 73.8283166,58.8747424 76.8092091,59.6966637 C79.7901016,60.5203835 85.4692779,62.1678231 85.4692779,62.1678231 L84.7474555,60.4772191 L85.4530774,60.3297409 C85.4530774,60.3297409 88.0271573,63.1372225 91.7190719,64.2361151 C95.4109865,65.3368062 108.052779,69.4715917 108.052779,69.4715917 L104.317663,63.561672 L105.453498,63.8350463 C105.453498,63.8350463 103.56524,58.3315909 100.427742,55.8118717 C97.2884447,53.2921524 96.1526095,52.878494 96.1526095,52.878494 L98.2586749,50.7364628 L102.398803,54.6626207 L101.898388,45.8930624 L102.134195,40.3734204 L104.398665,40.3536368 L103.802847,53.2363984 L104.695675,58.038433 L105.691106,58.4556885 L107.845772,45.842704 L110.547656,46.9505891 C110.547656,46.9505891 107.800771,56.8801895 107.818772,59.002437 C107.838572,61.1246845 108.432591,64.3746007 111.451284,69.4428155 C114.469978,74.5110303 131.017892,88.2336984 131.017892,88.2336984 L132.56234,86.6635949 C132.56234,86.6635949 138.286517,93.406227 142.842459,96.197522 C147.3984,98.9870185 149.113853,100.812511 149.113853,100.812511 L146.869184,103.236909 C146.869184,103.236909 135.035616,94.2839022 133.185159,93.0267404 C131.332901,91.7695785 126.47095,86.5754677 124.346885,86.5934529 C122.222819,86.611438 115.726417,88.791238 115.726417,88.791238 L113.436746,85.9819578 L121.349792,83.9316509 C121.349792,83.9316509 110.34605,72.7071199 108.002377,71.9481467 C105.660505,71.1909719 86.9111227,65.1281784 83.3722128,65.1587532 C79.8315029,65.189328 69.2561747,70.6586115 67.1465092,72.3042526 C65.0368437,73.9498937 62.081152,76.0991189 62.081152,76.0991189 L50.0603789,78.0433134 L39.4688502,81.6727163 L38.7470278,79.9803139 C38.7470278,79.9803139 60.5043031,73.8473783 59.9372855,73.8527739 C59.3702679,73.8581694 71.0634308,66.6802967 71.0634308,66.6802967 L79.3976895,64.2019433 C79.3976895,64.2019433 79.8045021,62.0760988 73.7077129,61.4214394 C67.6127237,60.76678 58.9778557,61.2667671 58.4126382,61.4142453 C57.8474206,61.559925 50.6291966,62.0473226 50.6291966,62.0473226 L50.0513786,60.7793696 L38.0198052,61.7325825 L38.012605,60.7416008 L48.7679388,59.799179 C48.7679388,59.799179 45.9328508,59.5419914 58.8194508,59.428685 L71.7078508,59.3171771 L65.2510504,49.8929594 L66.9485031,49.5944059 L66.9485031,49.5944059 Z" fill="#9E8E7D"></path>
                <path d="M53.2902192,24.3308481 C53.2902192,24.3308481 65.2443902,45.2205977 66.1102171,45.4885764 C66.977844,45.7583537 64.7637753,46.098273 64.7637753,46.098273 L52.2299863,24.3919976 L53.2902192,24.3308481 Z" fill="#9E8E7D"></path>
                <path d="M38.6230039,65.8403903 C38.6230039,65.8403903 35.9625214,69.4014497 35.4081042,70.6801937 C34.8518869,71.9571392 27.3276534,79.023504 17.7171551,72.106416 C2.63088685,61.2505805 0.015405677,36.8878987 0.015405677,36.8878987 C0.015405677,36.8878987 29.9287341,27.0014627 38.3637959,36.1271269 C46.7988577,45.2509926 45.3030113,52.1968569 43.4921551,55.7507222 C41.6812989,59.3045875 38.6230039,65.8403903 38.6230039,65.8403903" fill="#397F31"></path>
                <path d="M61.241426,75.6210736 C61.241426,75.6210736 56.2030696,72.9754583 53.8071952,79.0814161 C51.4113209,85.187374 58.6943469,92.1997833 61.3980308,93.5918337 C64.1017147,94.9820857 67.2212115,95.3795575 67.2212115,95.3795575 C67.2212115,95.3795575 73.4314043,92.9209877 72.198366,81.4680453 C70.9653278,70.0169014 61.241426,75.6210736 61.241426,75.6210736" fill="#397F31"></path>
                <path d="M41.6944393,80.5108757 C41.6944393,80.5108757 40.9366157,74.8887184 30.0588781,78.0109401 C19.1811405,81.1313633 11.4445004,87.1419999 11.4445004,87.1419999 C11.4445004,87.1419999 13.944778,97.8755363 28.9572439,97.8863274 C43.9697099,97.8971185 41.6944393,80.5108757 41.6944393,80.5108757" fill="#397F31"></path>
                <path d="M54.5322577,28.153951 C54.5322577,28.153951 48.0430563,33.8912133 42.5078845,30.2330342 C36.9745128,26.5730565 29.4178782,18.4401725 36.0528842,1.334498 C51.4451619,-2.15641927 60.2024337,6.55738504 63.8007454,15.3521225 C64.1409559,24.8518778 54.5322577,28.153951 54.5322577,28.153951" fill="#397F31"></path>
                <path d="M61.2196453,50.7934758 C61.2196453,50.7934758 49.8630928,49.0938793 51.5173441,42.692965 C53.1715955,36.2938493 58.278354,33.4611884 58.278354,33.4611884 C58.278354,33.4611884 64.8593582,34.5726706 68.621475,42.7235398 C72.3817917,50.8762074 61.2196453,50.7934758 61.2196453,50.7934758" fill="#397F31"></path>
                <path d="M122.291041,23.3681031 C122.291041,23.3681031 107.998597,16.9725844 100.402361,29.0118426 C94.6583831,38.1159246 101.455394,42.3100612 101.455394,42.3100612 C101.455394,42.3100612 104.54429,41.6661929 105.300313,42.2597028 C107.415379,43.919732 107.152571,50.3314373 115.065616,46.7685794 C122.980462,43.2039231 122.291041,23.3681031 122.291041,23.3681031" fill="#397F31"></path>
                <path d="M98.5947453,44.6107214 C98.5947453,44.6107214 98.7117489,37.8447086 88.017617,38.1018962 C85.0385245,38.1720383 79.7265597,41.7025229 79.7265597,41.7025229 C79.7265597,41.7025229 84.0250931,52.4666341 89.209254,53.6266762 C94.3916148,54.7867182 100.67021,52.0475801 101.348831,49.4703084 C102.027452,46.8948352 97.844122,45.2509926 97.844122,45.2509926 L98.5947453,44.6107214 Z" fill="#397F31"></path>
                <path d="M112.856768,60.0977325 C112.856768,60.0977325 113.360784,53.0187782 120.172195,54.3730598 C126.981806,55.72914 128.569456,59.1121464 128.569456,59.1121464 C128.569456,59.1121464 123.388895,66.0903839 118.292937,66.2774294 C113.195178,66.4626764 112.754165,64.4861087 112.881969,63.068879 C113.011573,61.6534478 112.856768,60.0977325 112.856768,60.0977325" fill="#397F31"></path>
                <path d="M91.7660533,35.921197 C91.7660533,35.921197 86.2290815,37.315046 85.5540605,31.7792174 C84.8790396,26.2433887 87.0661075,24.1840893 87.0661075,24.1840893 C87.0661075,24.1840893 93.6993133,26.3800759 95.1213575,30.2217035 C96.5452017,34.0633312 95.1447582,34.8978421 94.0305236,35.1550297 C92.916289,35.4122173 91.7660533,35.921197 91.7660533,35.921197" fill="#397F31"></path>
                <path d="M85.470538,68.8982252 C85.470538,68.8982252 83.5048769,66.5493649 80.2341754,67.901848 C76.9616739,69.2543312 77.8221006,69.3028911 75.8960408,69.9395653 C73.9717811,70.5762395 73.390363,71.7776475 73.2463585,73.0743766 C73.1023541,74.3711058 73.7701748,76.576085 76.8824714,76.3800469 C79.9965681,76.1840088 79.3539481,76.8224815 81.3880112,75.8890523 C83.4238744,74.9574217 85.4903386,74.3045608 85.8683503,72.5564044 C86.2481621,70.8064494 85.470538,68.8982252 85.470538,68.8982252" fill="#E6225A"></path>
                <path d="M54.736024,66.454763 C54.736024,66.454763 55.9744625,62.3397611 50.0396783,63.8073492 C44.103094,65.2731387 45.1381262,70.217256 45.1381262,70.217256 C45.1381262,70.217256 44.8789181,72.9078342 46.8625797,73.1740144 C48.8480413,73.4401946 51.9549377,72.4222352 51.9549377,72.4222352 C51.9549377,72.4222352 56.3254734,70.1201362 54.736024,66.454763" fill="#E6225A"></path>
                <path d="M67.1828704,35.0561114 C67.1828704,35.0561114 63.2209474,35.5147326 62.3281197,30.5706154 C61.435292,25.6246996 62.2597176,22.6463591 64.6699924,22.9089423 C67.0784671,23.1697269 67.2530725,22.8675764 68.6481158,24.4304858 C70.1817634,26.149866 69.6633473,27.1012803 70.3869698,28.9393625 C71.1105923,30.7774446 70.4049704,36.2071608 67.1828704,35.0561114" fill="#E6225A"></path>
                <path d="M71.5953473,33.5737754 C71.5953473,33.5737754 66.558791,36.9837595 71.7267514,40.859559 C76.8947118,44.7335599 81.3210492,38.490915 81.3210492,38.490915 C81.3210492,38.490915 83.0059015,34.5036076 80.2014144,32.8453769 C77.3987274,31.1871463 71.5953473,33.5737754 71.5953473,33.5737754" fill="#E6225A"></path>
                <path d="M98.4811618,55.6206895 C98.4811618,55.6206895 93.7974164,54.3887069 93.4104044,58.7429113 C93.0233924,63.0971157 96.2292919,65.4046102 97.9285446,65.3902221 C99.6277973,65.3740354 101.303649,62.6384944 101.283849,60.3921494 C101.264048,58.1440058 99.7502011,55.7771603 98.4811618,55.6206895" fill="#E6225A"></path>
            </g>
            <path d="M24.6557678,125.78125 L24.6557678,132.33692 L21.2324876,132.33692 L20.9268376,128.93693 L14.345174,128.93693 L14.345174,152.288958 L17.6665708,152.859016 L17.6665708,155.424279 L7.00957365,155.424279 L7.00957365,152.859016 L10.3309705,152.288958 L10.3309705,128.93693 L3.72893017,128.93693 L3.44365682,132.33692 L0,132.33692 L0,125.78125 L24.6557678,125.78125 Z M26.9464507,128.366871 L26.9464507,125.78125 L37.6034478,125.78125 L37.6034478,128.366871 L34.282051,128.93693 L34.282051,139.177619 L48.6679783,139.177619 L48.6679783,128.93693 L45.3465815,128.366871 L45.3465815,125.78125 L48.6679783,125.78125 L52.6821818,125.78125 L56.0035787,125.78125 L56.0035787,128.366871 L52.6821818,128.93693 L52.6821818,152.288958 L56.0035787,152.859016 L56.0035787,155.424279 L45.3465815,155.424279 L45.3465815,152.859016 L48.6679783,152.288958 L48.6679783,142.333298 L34.282051,142.333298 L34.282051,152.288958 L37.6034478,152.859016 L37.6034478,155.424279 L26.9464507,155.424279 L26.9464507,152.859016 L30.2678475,152.288958 L30.2678475,128.93693 L26.9464507,128.366871 Z M59.0889516,155.424279 L59.0889516,152.859016 L62.4103484,152.288958 L62.4103484,128.93693 L59.0889516,128.366871 L59.0889516,125.78125 L81.8700659,125.78125 L81.8700659,132.906978 L78.4264091,132.906978 L78.1003824,128.93693 L66.4245519,128.93693 L66.4245519,138.526124 L77.7743558,138.526124 L77.7743558,141.681803 L66.4245519,141.681803 L66.4245519,152.288958 L78.3449025,152.288958 L78.6709291,148.31891 L82.0942093,148.31891 L82.0942093,155.424279 L59.0889516,155.424279 Z M125.227741,131.685425 L125.125858,131.665065 L115.528447,155.424279 L112.859104,155.424279 L103.261693,131.685425 L103.15981,131.705784 L103.567343,143.697366 L103.567343,152.288958 L106.88874,152.859016 L106.88874,155.424279 L96.2317431,155.424279 L96.2317431,152.859016 L99.5531399,152.288958 L99.5531399,128.93693 L96.2317431,128.366871 L96.2317431,125.78125 L99.5531399,125.78125 L104.68806,125.78125 L114.142834,149.866211 L114.265094,149.866211 L123.699491,125.78125 L132.176185,125.78125 L132.176185,128.366871 L128.854788,128.93693 L128.854788,152.288958 L132.176185,152.859016 L132.176185,155.424279 L121.519188,155.424279 L121.519188,152.859016 L124.840584,152.288958 L124.840584,143.697366 L125.227741,131.685425 Z M145.572151,125.78125 L145.572151,128.366871 L142.250755,128.93693 L142.250755,145.875803 C142.250755,148.115329 142.889217,149.815307 144.166161,150.975788 C145.443106,152.13627 147.12756,152.716502 149.219575,152.716502 C151.420266,152.716502 153.193018,152.139663 154.537885,150.985968 C155.882752,149.832273 156.555175,148.128902 156.555175,145.875803 L156.555175,128.93693 L153.233778,128.366871 L153.233778,125.78125 L160.569379,125.78125 L163.890776,125.78125 L163.890776,128.366871 L160.569379,128.93693 L160.569379,145.875803 C160.569379,149.092576 159.519991,151.559411 157.421184,153.276381 C155.322376,154.99335 152.588534,155.851822 149.219575,155.851822 C145.945707,155.851822 143.296767,154.99335 141.272675,153.276381 C139.248582,151.559411 138.236551,149.092576 138.236551,145.875803 L138.236551,128.93693 L134.915154,128.366871 L134.915154,125.78125 L138.236551,125.78125 L145.572151,125.78125 Z M166.629745,155.424279 L166.629745,152.859016 L169.951142,152.288958 L169.951142,128.93693 L166.629745,128.366871 L166.629745,125.78125 L169.951142,125.78125 L173.965346,125.78125 L177.286742,125.78125 L177.286742,128.366871 L173.965346,128.93693 L173.965346,152.288958 L184.275939,152.288958 L184.581589,148.888968 L188.00487,148.888968 L188.00487,155.424279 L166.629745,155.424279 Z M204.151686,125.78125 C207.248955,125.78125 209.670358,126.449704 211.415968,127.786633 C213.161578,129.123562 214.03437,131.128926 214.03437,133.802784 C214.03437,135.119353 213.616653,136.296783 212.781205,137.335109 C211.945758,138.373435 210.842032,139.143684 209.469997,139.645881 C211.249568,140.025922 212.655544,140.901359 213.687967,142.272221 C214.72039,143.643082 215.236594,145.237872 215.236594,147.056638 C215.236594,149.771215 214.353613,151.844441 212.587627,153.276381 C210.82164,154.70832 208.430802,155.424279 205.41504,155.424279 L191.151372,155.424279 L191.151372,152.859016 L194.472769,152.288958 L194.472769,128.93693 L191.151372,128.366871 L191.151372,125.78125 L194.472769,125.78125 L204.151686,125.78125 Z M198.486973,141.518929 L198.486973,152.288958 L205.41504,152.288958 C207.248949,152.288958 208.671905,151.837667 209.683952,150.93507 C210.695998,150.032473 211.202013,148.753248 211.202013,147.097356 C211.202013,145.360027 210.777504,143.995973 209.928472,143.005153 C209.07944,142.014332 207.778742,141.518929 206.02634,141.518929 L198.486973,141.518929 Z M198.486973,138.383609 L205.190896,138.383609 C206.630855,138.34289 207.795709,137.915351 208.685495,137.100978 C209.575281,136.286605 210.020167,135.160073 210.020167,133.721347 C210.020167,132.119747 209.517547,130.921958 208.512293,130.127944 C207.507039,129.33393 206.053518,128.93693 204.151686,128.93693 L198.486973,128.93693 L198.486973,138.383609 Z M218.647993,155.424279 L218.647993,152.859016 L221.96939,152.288958 L221.96939,128.93693 L218.647993,128.366871 L218.647993,125.78125 L241.429108,125.78125 L241.429108,132.906978 L237.985451,132.906978 L237.659424,128.93693 L225.983593,128.93693 L225.983593,138.526124 L237.333397,138.526124 L237.333397,141.681803 L225.983593,141.681803 L225.983593,152.288958 L237.903944,152.288958 L238.229971,148.31891 L241.653251,148.31891 L241.653251,155.424279 L218.647993,155.424279 Z M258.370614,125.801609 C261.603728,125.801609 264.082865,126.517568 265.808098,127.949507 C267.533331,129.381446 268.395935,131.413955 268.395935,134.047095 C268.395935,135.48582 267.995198,136.761652 267.193711,137.874628 C266.392225,138.987605 265.244351,139.863043 263.750055,140.500968 C265.366612,141.030311 266.531466,141.892176 267.244653,143.086589 C267.95784,144.281003 268.314428,145.753639 268.314428,147.504541 L268.314428,149.88657 C268.314428,150.795953 268.429895,151.467801 268.660832,151.902133 C268.891768,152.336465 269.272129,152.594346 269.801925,152.675783 L270.780005,152.797939 L270.780005,155.424279 L268.620078,155.424279 C267.057859,155.424279 265.947342,154.881371 265.288493,153.795541 C264.629644,152.70971 264.300225,151.39316 264.300225,149.845851 L264.300225,147.545259 C264.300225,145.930086 263.831566,144.633895 262.894235,143.656648 C261.956903,142.6794 260.700355,142.190784 259.124551,142.190784 L252.685524,142.190784 L252.685524,152.288958 L256.006921,152.859016 L256.006921,155.424279 L245.349924,155.424279 L245.349924,152.859016 L248.671321,152.288958 L248.671321,128.93693 L245.349924,128.366871 L245.349924,125.801609 L248.671321,125.801609 L258.370614,125.801609 Z M252.685524,139.035104 L257.963081,139.035104 C260.204526,139.035104 261.834643,138.607565 262.853481,137.752473 C263.87232,136.897381 264.381731,135.648695 264.381731,134.006376 C264.381731,132.445494 263.892696,131.210381 262.914611,130.300997 C261.936526,129.391614 260.421876,128.93693 258.370614,128.93693 L252.685524,128.93693 L252.685524,139.035104 Z M286.702678,125.801609 C289.935793,125.801609 292.414929,126.517568 294.140162,127.949507 C295.865395,129.381446 296.727999,131.413955 296.727999,134.047095 C296.727999,135.48582 296.327262,136.761652 295.525776,137.874628 C294.724289,138.987605 293.576415,139.863043 292.082119,140.500968 C293.698676,141.030311 294.86353,141.892176 295.576717,143.086589 C296.289904,144.281003 296.646492,145.753639 296.646492,147.504541 L296.646492,149.88657 C296.646492,150.795953 296.761959,151.467801 296.992896,151.902133 C297.223832,152.336465 297.604193,152.594346 298.133989,152.675783 L299.112069,152.797939 L299.112069,155.424279 L296.952142,155.424279 C295.389923,155.424279 294.279406,154.881371 293.620557,153.795541 C292.961708,152.70971 292.632289,151.39316 292.632289,149.845851 L292.632289,147.545259 C292.632289,145.930086 292.16363,144.633895 291.226299,143.656648 C290.288967,142.6794 289.032419,142.190784 287.456615,142.190784 L281.017588,142.190784 L281.017588,152.288958 L284.338985,152.859016 L284.338985,155.424279 L273.681988,155.424279 L273.681988,152.859016 L277.003385,152.288958 L277.003385,128.93693 L273.681988,128.366871 L273.681988,125.801609 L277.003385,125.801609 L286.702678,125.801609 Z M281.017588,139.035104 L286.295145,139.035104 C288.53659,139.035104 290.166707,138.607565 291.185545,137.752473 C292.204384,136.897381 292.713795,135.648695 292.713795,134.006376 C292.713795,132.445494 292.22476,131.210381 291.246675,130.300997 C290.26859,129.391614 288.75394,128.93693 286.702678,128.93693 L281.017588,128.93693 L281.017588,139.035104 Z M307.78968,128.366871 L304.590543,128.753697 L310.805427,140.847075 L317.02031,128.753697 L313.84155,128.366871 L313.84155,125.78125 L324.029884,125.78125 L324.029884,128.366871 L321.523554,128.753697 L312.720833,145.000356 L312.720833,152.288958 L316.04223,152.859016 L316.04223,155.424279 L305.40561,155.424279 L305.40561,152.859016 L308.727007,152.288958 L308.727007,144.694968 L300.087299,128.753697 L297.601346,128.366871 L297.601346,125.78125 L307.78968,125.78125 L307.78968,128.366871 Z M361.274559,125.78125 L361.274559,132.33692 L357.851279,132.33692 L357.545629,128.93693 L350.963965,128.93693 L350.963965,152.288958 L354.285362,152.859016 L354.285362,155.424279 L343.628365,155.424279 L343.628365,152.859016 L346.949761,152.288958 L346.949761,128.93693 L340.347721,128.93693 L340.062448,132.33692 L336.618791,132.33692 L336.618791,125.78125 L361.274559,125.78125 Z M376.585932,125.801609 C379.819046,125.801609 382.298183,126.517568 384.023416,127.949507 C385.748649,129.381446 386.611253,131.413955 386.611253,134.047095 C386.611253,135.48582 386.210516,136.761652 385.409029,137.874628 C384.607543,138.987605 383.459669,139.863043 381.965373,140.500968 C383.58193,141.030311 384.746784,141.892176 385.459971,143.086589 C386.173158,144.281003 386.529746,145.753639 386.529746,147.504541 L386.529746,149.88657 C386.529746,150.795953 386.645213,151.467801 386.876149,151.902133 C387.107086,152.336465 387.487447,152.594346 388.017243,152.675783 L388.995323,152.797939 L388.995323,155.424279 L386.835396,155.424279 C385.273177,155.424279 384.16266,154.881371 383.503811,153.795541 C382.844962,152.70971 382.515543,151.39316 382.515543,149.845851 L382.515543,147.545259 C382.515543,145.930086 382.046884,144.633895 381.109552,143.656648 C380.172221,142.6794 378.915672,142.190784 377.339869,142.190784 L370.900842,142.190784 L370.900842,152.288958 L374.222239,152.859016 L374.222239,155.424279 L363.565242,155.424279 L363.565242,152.859016 L366.886638,152.288958 L366.886638,128.93693 L363.565242,128.366871 L363.565242,125.801609 L366.886638,125.801609 L376.585932,125.801609 Z M370.900842,139.035104 L376.178399,139.035104 C378.419844,139.035104 380.049961,138.607565 381.068799,137.752473 C382.087638,136.897381 382.597049,135.648695 382.597049,134.006376 C382.597049,132.445494 382.108014,131.210381 381.129929,130.300997 C380.151844,129.391614 378.637194,128.93693 376.585932,128.93693 L370.900842,128.93693 L370.900842,139.035104 Z M391.897306,155.424279 L391.897306,152.859016 L395.218703,152.288958 L395.218703,128.93693 L391.897306,128.366871 L391.897306,125.78125 L414.67842,125.78125 L414.67842,132.906978 L411.234763,132.906978 L410.908737,128.93693 L399.232906,128.93693 L399.232906,138.526124 L410.58271,138.526124 L410.58271,141.681803 L399.232906,141.681803 L399.232906,152.288958 L411.153257,152.288958 L411.479283,148.31891 L414.902563,148.31891 L414.902563,155.424279 L391.897306,155.424279 Z M418.599236,155.424279 L418.599236,152.859016 L421.920633,152.288958 L421.920633,128.93693 L418.599236,128.366871 L418.599236,125.78125 L441.380351,125.78125 L441.380351,132.906978 L437.936694,132.906978 L437.610667,128.93693 L425.934837,128.93693 L425.934837,138.526124 L437.284641,138.526124 L437.284641,141.681803 L425.934837,141.681803 L425.934837,152.288958 L437.855187,152.288958 L438.181214,148.31891 L441.604494,148.31891 L441.604494,155.424279 L418.599236,155.424279 Z" fill="#716558"></path>
        </g>
    </g>
</svg>
