<?xml version="1.0" encoding="UTF-8"?>
<svg width="34px" height="34px" viewBox="0 0 34 34" version="1.1" xmlns="http://www.w3.org/2000/svg" xmlns:xlink="http://www.w3.org/1999/xlink">
    <!-- Generator: Sketch 43.2 (39069) - http://www.bohemiancoding.com/sketch -->
    <title>Untitled</title>
    <desc>Created with Sketch.</desc>
    <defs></defs>
    <g id="Page-1" stroke="none" stroke-width="1" fill="none" fill-rule="evenodd">
        <g id="twitter" transform="translate(1.000000, 0.000000)" fill-rule="nonzero" fill="#397F31">
            <path d="M31.3528064,15.6911118 L31.9992872,15.6911118 L31.9992872,14.3974374 L31.3528064,14.3974374 L31.3528064,15.6911118 Z M3.52704468,14.3967246 C4.51280324,14.3938735 4.86562355,12.4986226 3.52704468,12.7815916 L3.52704468,14.3967246 Z M18.7339564,32.1924108 L20.9998468,32.1924108 C21.279252,30.7112783 18.8016694,31.2529822 18.7339564,32.1924108 L18.7339564,32.1924108 Z M22.6171181,30.5744267 C24.4703157,30.9194066 24.7197846,29.6585195 25.5294894,28.9578682 C25.0840092,28.9699853 24.8188594,28.8039103 24.5586989,28.6335587 C24.503103,29.8716372 22.4781283,29.1410497 22.6171181,30.5744267 L22.6171181,30.5744267 Z M26.8231638,27.6620555 C27.7212519,27.5900659 27.7397839,26.6363819 28.4411479,26.368381 C28.0042209,26.2671679 27.822465,25.9093582 27.1474734,26.0447842 C26.8751959,26.4204131 26.7205252,26.9136487 26.8231638,27.6620555 L26.8231638,27.6620555 Z M28.4411479,25.0747065 L29.4119383,25.0747065 C29.3378104,24.500928 29.7383862,23.4545842 28.7647447,23.7796065 C28.6635316,24.2165335 28.3042964,24.3982894 28.4411479,25.0747065 L28.4411479,25.0747065 Z M30.3827287,23.1338384 C30.1902813,22.4631235 30.7833045,21.0076506 30.0598447,20.8686608 C29.4518533,21.2521301 28.8288938,23.2856581 30.3827287,23.1338384 L30.3827287,23.1338384 Z M20.9998468,0.48348738 C13.6241204,0.425040379 7.66822851,2.90191023 3.52704468,8.25052356 C3.39090594,8.42301348 3.68884309,9.07733478 3.52704468,9.21846291 C2.53843505,10.0859019 3.17992652,9.99609312 2.55625426,11.8072374 C2.41013675,12.2334728 1.69808122,12.2284834 1.58475106,12.7815916 C1.35381413,13.9134677 1.75866653,14.2734157 1.58475106,15.367515 C1.66957049,16.3147841 0.853450785,16.3604013 0.937557444,17.3090959 C1.59401705,22.4381766 3.2162777,27.48814 7.73237766,29.6043491 C7.97471888,28.6086118 6.61760803,29.2094754 7.08660958,27.9870778 C8.71813622,27.9728224 8.76803,29.5387744 9.99826809,29.9279459 C13.7766528,30.1360742 16.1352032,31.2957483 19.058266,30.5744267 C20.6121009,30.1930957 22.9050765,28.9350596 23.9115053,27.9870778 C26.0362676,25.9863372 25.727639,22.2271972 28.4411479,20.5436384 C27.1952289,19.0325696 28.3263922,17.8721828 29.0883415,16.6619023 C29.3264061,15.2349401 28.0412849,15.3361532 27.794667,14.3967246 C28.1596044,6.99177474 20.7831652,2.99955948 13.8814298,4.36664908 C10.4922165,5.03665129 8.62333803,7.61330869 6.11581915,9.21846291 C6.14789372,7.70953241 7.91912295,6.83924232 9.02819043,5.98463313 C10.0438853,5.19916246 11.2926553,3.86628574 12.5870426,3.39728419 C15.4830202,2.34309988 19.3512137,3.0508788 21.6470404,0.807796957 C24.4745923,2.484228 27.4432723,3.95894562 29.0883415,6.30822994 C29.4162149,6.77723148 28.8331704,6.9454448 29.0883415,7.60047886 C29.3406615,8.25123632 30.2701113,8.53491811 30.3827287,8.89629164 C30.5958464,9.57270875 30.0548553,9.75232637 30.0598447,10.1892533 C30.0669724,10.9269685 30.9885818,11.6397368 31.0292096,12.1322597 C31.1482419,13.5770411 30.2779518,15.2270997 30.7063255,16.9847863 C30.5673357,17.8793105 31.9123295,17.2884256 32,17.954864 C31.1090396,19.0382718 31.8439037,20.6776389 31.677116,21.5144289 C30.5267079,27.2835755 25.5694044,30.0626591 21.6470404,33.1632012 C12.0346471,35.6286668 5.07446466,30.7647359 1.58475106,24.4275129 C0.764354747,22.9378272 0.541258269,22.0910584 0.614673404,19.8978704 C-0.540011244,18.520802 0.212672082,17.4666177 0.614673404,15.6911118 C0.814248528,14.8144068 0.469268671,13.7473927 0.614673404,13.1023374 C2.35881744,5.40657803 11.5022092,-1.98269094 20.9998468,0.48348738 L20.9998468,0.48348738 Z"></path>
            <path d="M11.9752711,24.4414637 C19.145441,24.4414637 23.0665279,18.5013038 23.0665279,13.3502069 C23.0665279,13.1814854 23.0630914,13.013529 23.0555234,12.8463313 C23.8166606,12.2960912 24.4782085,11.6094356 25,10.8277685 C24.3015365,11.1382293 23.5498991,11.3472264 22.76141,11.4414664 C23.5662211,10.9588667 24.1840951,10.1954534 24.4755945,9.28537862 C23.722427,9.73187886 22.8883512,10.0563982 22.0002728,10.2316039 C21.2889303,9.47390959 20.2762059,9 19.1548388,9 C17.0021302,9 15.2564495,10.7457444 15.2564495,12.8976242 C15.2564495,13.20352 15.290649,13.5010636 15.3575307,13.7864677 C12.1176927,13.6234461 9.24484294,12.0722832 7.32217141,9.71363783 C6.98739346,10.2897125 6.79435484,10.9588858 6.79435484,11.6729062 C6.79435484,13.0253305 7.48255343,14.2192537 8.52906923,14.9177172 C7.88951763,14.8979575 7.28873059,14.7223961 6.76362372,14.4301763 C6.7630499,14.4465314 6.7630499,14.4624765 6.7630499,14.4799562 C6.7630499,16.3678162 8.10673947,17.9440294 9.89041963,18.301199 C9.56285903,18.3904977 9.21822418,18.4383796 8.86252102,18.4383796 C8.61172447,18.4383796 8.36738018,18.4136953 8.12988345,18.3680806 C8.62615917,19.9169418 10.0652427,21.0440471 11.7713937,21.0755434 C10.4372041,22.1212941 8.75649228,22.7441412 6.92983956,22.7441412 C6.61557878,22.7441412 6.30512433,22.7262661 6,22.6901807 C7.72521452,23.795991 9.77374338,24.441217 11.9754815,24.441217" id="Shape"></path>
        </g>
    </g>
</svg>
