<svg xmlns="http://www.w3.org/2000/svg"><symbol id="logo" viewBox="0 0 442 227"><g fill="none" fill-rule="evenodd"><g transform="translate(86.046 184.073)"><path d="M30.4 38.086c-1.207 0-2.19-.397-2.946-1.189-.757-.793-1.136-1.852-1.136-3.18v-.28c0-.882.169-1.67.506-2.364.338-.694.81-1.237 1.416-1.63a3.559 3.559 0 0 1 1.97-.587c1.158 0 2.057.38 2.7 1.143.64.762.962 1.854.962 3.274v.634H27.84c.022.877.279 1.586.77 2.126.49.54 1.115.81 1.872.81.537 0 .993-.11 1.366-.329.373-.219.7-.51.979-.872l.93.724c-.746 1.147-1.865 1.72-3.358 1.72zm-.19-7.98a2.03 2.03 0 0 0-1.547.67c-.417.447-.674 1.074-.773 1.88h4.46v-.115c-.044-.773-.253-1.372-.626-1.798-.373-.425-.877-.637-1.514-.637zm9.762 2.164l1.975-3.25h1.777l-2.912 4.401 3.003 4.5h-1.76l-2.058-3.332-2.057 3.332h-1.77l3.004-4.5-2.913-4.401h1.761l1.95 3.25zm14.239 1.3c0 1.354-.31 2.445-.93 3.273-.62.829-1.46 1.243-2.518 1.243-1.08 0-1.93-.343-2.55-1.029v4.286H46.69V29.02h1.39l.075.987c.62-.768 1.48-1.151 2.583-1.151 1.07 0 1.916.403 2.539 1.209.622.806.934 1.928.934 3.364v.14zm-1.523-.173c0-1.004-.214-1.797-.641-2.378-.428-.581-1.015-.872-1.761-.872-.922 0-1.613.409-2.074 1.226v4.253c.456.812 1.152 1.217 2.09 1.217.73 0 1.31-.289 1.74-.867.431-.579.646-1.439.646-2.58zm6.463 4.524h-1.522V25.285h1.522v12.636zm3.385-4.533c0-.872.172-1.656.514-2.352.343-.697.82-1.234 1.432-1.613.612-.378 1.31-.567 2.094-.567 1.213 0 2.193.42 2.942 1.258.749.84 1.123 1.955 1.123 3.348v.107c0 .867-.166 1.644-.498 2.333a3.78 3.78 0 0 1-1.423 1.608c-.617.384-1.326.576-2.127.576-1.207 0-2.185-.42-2.934-1.259-.748-.84-1.123-1.95-1.123-3.332v-.107zm1.53.181c0 .988.23 1.78.688 2.378.458.598 1.07.896 1.839.896.773 0 1.388-.303 1.843-.909.455-.606.683-1.454.683-2.546 0-.976-.232-1.767-.696-2.373-.463-.606-1.079-.91-1.847-.91-.751 0-1.357.3-1.818.898-.461.597-.691 1.453-.691 2.566zm14.14-3.183a4.563 4.563 0 0 0-.749-.058c-.998 0-1.675.425-2.032 1.275v6.318h-1.522V29.02h1.48l.026 1.028c.499-.795 1.206-1.192 2.122-1.192.297 0 .522.038.675.115v1.415zm6.29 7.7c-1.207 0-2.189-.397-2.946-1.189-.757-.793-1.135-1.852-1.135-3.18v-.28c0-.882.168-1.67.506-2.364.337-.694.809-1.237 1.415-1.63a3.559 3.559 0 0 1 1.97-.587c1.158 0 2.058.38 2.7 1.143.641.762.962 1.854.962 3.274v.634h-6.031c.022.877.278 1.586.77 2.126.49.54 1.114.81 1.871.81.538 0 .993-.11 1.366-.329.373-.219.7-.51.98-.872l.929.724c-.746 1.147-1.865 1.72-3.357 1.72zm-.19-7.98a2.03 2.03 0 0 0-1.546.67c-.417.447-.675 1.074-.774 1.88h4.46v-.115c-.044-.773-.252-1.372-.625-1.798-.373-.425-.878-.637-1.514-.637zm36.757 5.717l1.711-6.803h1.522l-2.592 8.901h-1.234l-2.164-6.746-2.106 6.746h-1.235l-2.583-8.901h1.514l1.752 6.664 2.074-6.664h1.226l2.115 6.803zm5.73-2.435c0-.872.171-1.656.514-2.352.343-.697.82-1.234 1.432-1.613.612-.378 1.31-.567 2.094-.567 1.212 0 2.193.42 2.942 1.258.748.84 1.123 1.955 1.123 3.348v.107c0 .867-.166 1.644-.498 2.333a3.78 3.78 0 0 1-1.424 1.608c-.617.384-1.326.576-2.127.576-1.206 0-2.184-.42-2.933-1.259-.749-.84-1.123-1.95-1.123-3.332v-.107zm1.53.181c0 .988.23 1.78.687 2.378.458.598 1.071.896 1.84.896.773 0 1.387-.303 1.843-.909.455-.606.683-1.454.683-2.546 0-.976-.232-1.767-.696-2.373-.463-.606-1.079-.91-1.847-.91-.752 0-1.358.3-1.818.898-.461.597-.692 1.453-.692 2.566zM139.6 29.02l.05 1.119c.68-.856 1.569-1.283 2.666-1.283 1.881 0 2.83 1.06 2.847 3.183v5.882h-1.522v-5.89c-.006-.642-.153-1.116-.44-1.423-.289-.307-.737-.46-1.346-.46-.494 0-.927.13-1.3.394a2.682 2.682 0 0 0-.872 1.036v6.343h-1.522V29.02h1.44zm8.841 4.377c0-1.366.324-2.464.97-3.295.648-.831 1.496-1.246 2.543-1.246 1.043 0 1.868.356 2.477 1.069v-4.64h1.522v12.636h-1.398l-.074-.954c-.61.746-1.457 1.119-2.543 1.119-1.031 0-1.872-.423-2.522-1.267-.65-.845-.975-1.947-.975-3.307v-.115zm1.522.172c0 1.01.209 1.8.626 2.37.416.57.992.855 1.728.855.965 0 1.67-.433 2.114-1.3v-4.088c-.455-.84-1.155-1.259-2.098-1.259-.746 0-1.328.288-1.744.864-.417.576-.626 1.429-.626 2.558zm13.4 4.517c-1.208 0-2.19-.397-2.946-1.189-.757-.793-1.136-1.852-1.136-3.18v-.28c0-.882.169-1.67.506-2.364.337-.694.81-1.237 1.415-1.63a3.559 3.559 0 0 1 1.971-.587c1.157 0 2.057.38 2.699 1.143.642.762.963 1.854.963 3.274v.634h-6.032c.022.877.279 1.586.77 2.126.49.54 1.115.81 1.872.81.537 0 .992-.11 1.365-.329.373-.219.7-.51.98-.872l.93.724c-.747 1.147-1.866 1.72-3.358 1.72zm-.19-7.98a2.03 2.03 0 0 0-1.547.67c-.417.447-.675 1.074-.773 1.88h4.46v-.115c-.045-.773-.253-1.372-.626-1.798-.373-.425-.878-.637-1.514-.637zm11.079.28a4.563 4.563 0 0 0-.75-.058c-.998 0-1.675.425-2.032 1.275v6.318h-1.522V29.02h1.481l.025 1.028c.5-.795 1.207-1.192 2.123-1.192.296 0 .521.038.675.115v1.415zm24.487 3.01c0-1.387.321-2.49.963-3.31.642-.82 1.492-1.23 2.55-1.23 1.087 0 1.934.383 2.543 1.151l.074-.987h1.39v8.687c0 1.152-.34 2.06-1.024 2.723-.682.664-1.6.996-2.752.996a4.58 4.58 0 0 1-1.884-.412c-.615-.274-1.084-.65-1.407-1.127l.79-.913c.653.806 1.45 1.21 2.394 1.21.74 0 1.318-.209 1.732-.626.414-.417.621-1.003.621-1.76v-.765c-.608.702-1.44 1.053-2.493 1.053-1.042 0-1.885-.42-2.53-1.259-.644-.84-.967-1.983-.967-3.43zm1.53.173c0 1.004.206 1.792.618 2.365.411.574.987.86 1.728.86.96 0 1.665-.436 2.114-1.308v-4.064c-.466-.85-1.165-1.275-2.098-1.275-.74 0-1.319.288-1.736.864-.417.576-.625 1.429-.625 2.558zm13.943-3.183a4.563 4.563 0 0 0-.749-.058c-.998 0-1.676.425-2.032 1.275v6.318h-1.523V29.02h1.481l.025 1.028c.5-.795 1.207-1.192 2.123-1.192.296 0 .521.038.675.115v1.415zm2.184 3.002c0-.872.171-1.656.514-2.352.343-.697.82-1.234 1.432-1.613.611-.378 1.31-.567 2.094-.567 1.212 0 2.193.42 2.941 1.258.75.84 1.123 1.955 1.123 3.348v.107c0 .867-.165 1.644-.497 2.333a3.78 3.78 0 0 1-1.424 1.608c-.617.384-1.326.576-2.127.576-1.207 0-2.184-.42-2.933-1.259-.749-.84-1.123-1.95-1.123-3.332v-.107zm1.53.181c0 .988.23 1.78.687 2.378.458.598 1.071.896 1.84.896.773 0 1.387-.303 1.842-.909.456-.606.683-1.454.683-2.546 0-.976-.232-1.767-.695-2.373-.464-.606-1.08-.91-1.847-.91-.752 0-1.358.3-1.819.898-.46.597-.69 1.453-.69 2.566zm17.719 2.254l1.711-6.803h1.523l-2.592 8.901h-1.234l-2.165-6.746-2.106 6.746h-1.234l-2.584-8.901h1.514l1.753 6.664 2.073-6.664h1.226l2.115 6.803z" id="explore----wonder---" fill="#9E8E7D"/><path d="M1.605 5.796c.675-.828 1.552-1.242 2.633-1.242 1.881 0 2.83 1.061 2.847 3.184v5.882H5.563V7.73c-.006-.642-.153-1.117-.44-1.424-.289-.307-.737-.46-1.346-.46-.494 0-.927.131-1.3.395a2.682 2.682 0 0 0-.872 1.036v6.343H.083V.984h1.522v4.812zm8.709 3.29c0-.871.171-1.655.514-2.352.343-.696.82-1.234 1.432-1.612.611-.379 1.31-.568 2.094-.568 1.212 0 2.193.42 2.941 1.259.75.839 1.124 1.955 1.124 3.348v.107c0 .866-.166 1.644-.498 2.332a3.78 3.78 0 0 1-1.424 1.608c-.617.384-1.326.576-2.127.576-1.207 0-2.184-.42-2.933-1.258-.749-.84-1.123-1.95-1.123-3.332v-.107zm1.53.182c0 .987.23 1.78.687 2.377.458.598 1.071.897 1.84.897.773 0 1.387-.303 1.842-.909.456-.606.683-1.455.683-2.546 0-.976-.231-1.767-.695-2.373-.464-.606-1.08-.91-1.847-.91-.752 0-1.358.3-1.819.897-.46.598-.69 1.454-.69 2.567zm11.268-4.55l.041.988c.653-.768 1.533-1.152 2.641-1.152 1.246 0 2.093.477 2.543 1.432a3.372 3.372 0 0 1 1.156-1.037c.475-.263 1.035-.395 1.683-.395 1.953 0 2.945 1.034 2.978 3.102v5.964h-1.522V7.746c0-.636-.145-1.112-.436-1.427-.29-.316-.779-.473-1.465-.473-.565 0-1.034.168-1.407.506-.373.337-.59.79-.65 1.361v5.907h-1.53V7.787c0-1.294-.634-1.941-1.9-1.941-1 0-1.682.425-2.05 1.275v6.499h-1.522V4.719h1.44zm18.385 9.066c-1.206 0-2.188-.396-2.945-1.188-.757-.793-1.136-1.853-1.136-3.18v-.28c0-.883.169-1.671.506-2.365.338-.694.81-1.237 1.415-1.629a3.559 3.559 0 0 1 1.971-.588c1.158 0 2.057.381 2.699 1.144.642.762.963 1.853.963 3.274v.633h-6.032c.022.878.279 1.587.77 2.127.49.54 1.115.81 1.872.81.537 0 .993-.11 1.366-.329.373-.22.699-.51.979-.872l.93.724c-.747 1.146-1.866 1.72-3.358 1.72zm-.189-7.98a2.03 2.03 0 0 0-1.547.671c-.417.447-.675 1.074-.773 1.88h4.46V8.24c-.044-.774-.253-1.373-.626-1.798-.373-.425-.878-.637-1.514-.637zm19.837 3.464c0 1.36-.313 2.453-.938 3.278-.625.826-1.465 1.238-2.518 1.238-1.124 0-1.994-.397-2.608-1.193l-.074 1.029h-1.4V.984h1.523v4.714c.614-.763 1.462-1.144 2.543-1.144 1.08 0 1.93.409 2.546 1.226.617.817.926 1.936.926 3.356v.132zm-1.522-.173c0-1.036-.2-1.837-.6-2.402-.401-.565-.977-.847-1.729-.847-1.004 0-1.725.466-2.164 1.398v3.85c.466.933 1.193 1.399 2.18 1.399.73 0 1.298-.283 1.704-.848.406-.564.609-1.415.609-2.55zM69.91 13.62c-.087-.176-.159-.488-.213-.938-.708.735-1.553 1.102-2.535 1.102-.877 0-1.597-.248-2.16-.744-.562-.497-.843-1.126-.843-1.888 0-.927.352-1.647 1.057-2.16.705-.512 1.697-.769 2.975-.769h1.48v-.7c0-.531-.158-.955-.476-1.27-.319-.315-.788-.473-1.407-.473-.544 0-.999.137-1.366.411-.368.274-.552.606-.552.996h-1.53c0-.445.158-.874.473-1.288.315-.414.743-.742 1.284-.983a4.32 4.32 0 0 1 1.781-.362c1.026 0 1.83.257 2.411.77.581.512.883 1.218.905 2.118v4.096c0 .818.104 1.468.313 1.95v.132H69.91zm-2.526-1.16c.478 0 .93-.124 1.358-.37.428-.247.738-.568.93-.963V9.301H68.48c-1.865 0-2.798.546-2.798 1.637 0 .477.16.85.477 1.119.319.268.727.403 1.226.403zm12.733-1.201c0-.412-.155-.731-.465-.959-.31-.227-.85-.423-1.621-.588-.77-.164-1.382-.362-1.835-.592-.452-.23-.787-.505-1.004-.823-.216-.318-.325-.696-.325-1.135 0-.73.309-1.346.926-1.851.617-.505 1.406-.757 2.366-.757 1.009 0 1.828.26 2.456.782.628.52.942 1.187.942 1.999h-1.53c0-.417-.178-.776-.531-1.078-.354-.302-.8-.452-1.337-.452-.554 0-.988.12-1.3.362a1.14 1.14 0 0 0-.47.946c0 .367.146.644.437.83.29.187.816.365 1.575.535.76.17 1.376.373 1.848.609.471.236.821.52 1.049.851.227.332.341.737.341 1.214 0 .795-.318 1.433-.954 1.912-.637.48-1.462.72-2.477.72-.713 0-1.344-.126-1.893-.378-.548-.252-.977-.605-1.287-1.057a2.547 2.547 0 0 1-.465-1.469h1.522c.027.51.232.915.613 1.214.381.299.885.448 1.51.448.576 0 1.038-.116 1.386-.35.349-.233.523-.544.523-.933zm8.552 2.525c-1.206 0-2.188-.396-2.945-1.188-.757-.793-1.136-1.853-1.136-3.18v-.28c0-.883.169-1.671.506-2.365.338-.694.81-1.237 1.415-1.629a3.559 3.559 0 0 1 1.971-.588c1.158 0 2.057.381 2.7 1.144.64.762.962 1.853.962 3.274v.633H86.11c.022.878.279 1.587.77 2.127.49.54 1.115.81 1.872.81.537 0 .993-.11 1.366-.329.373-.22.699-.51.979-.872l.93.724c-.746 1.146-1.866 1.72-3.358 1.72zm-.189-7.98a2.03 2.03 0 0 0-1.547.671c-.417.447-.674 1.074-.773 1.88h4.46V8.24c-.044-.774-.253-1.373-.626-1.798-.373-.425-.878-.637-1.514-.637zm6.405 3.291c0-1.365.324-2.464.971-3.295.647-.83 1.495-1.246 2.543-1.246 1.042 0 1.867.357 2.476 1.07V.984h1.523V13.62h-1.4l-.073-.955c-.61.746-1.457 1.12-2.543 1.12-1.031 0-1.872-.423-2.522-1.268-.65-.844-.975-1.947-.975-3.307v-.115zm1.522.173c0 1.01.209 1.799.626 2.37.417.57.993.855 1.728.855.965 0 1.67-.434 2.114-1.3V7.104c-.455-.839-1.154-1.258-2.098-1.258-.746 0-1.327.288-1.744.863-.417.576-.626 1.43-.626 2.559zm18.924 4.516c-1.207 0-2.189-.396-2.946-1.188-.757-.793-1.135-1.853-1.135-3.18v-.28c0-.883.168-1.671.506-2.365.337-.694.809-1.237 1.415-1.629a3.559 3.559 0 0 1 1.97-.588c1.158 0 2.058.381 2.7 1.144.641.762.962 1.853.962 3.274v.633h-6.031c.022.878.278 1.587.77 2.127.49.54 1.114.81 1.871.81.538 0 .993-.11 1.366-.329.373-.22.7-.51.98-.872l.929.724c-.746 1.146-1.865 1.72-3.357 1.72zm-.19-7.98a2.03 2.03 0 0 0-1.546.671c-.417.447-.675 1.074-.774 1.88h4.46V8.24c-.044-.774-.252-1.373-.625-1.798-.373-.425-.878-.637-1.514-.637zm12.272 7.816c-.087-.176-.159-.488-.214-.938-.707.735-1.552 1.102-2.534 1.102-.878 0-1.598-.248-2.16-.744-.562-.497-.843-1.126-.843-1.888 0-.927.352-1.647 1.057-2.16.705-.512 1.697-.769 2.975-.769h1.48v-.7c0-.531-.158-.955-.476-1.27-.319-.315-.788-.473-1.408-.473-.543 0-.998.137-1.365.411-.368.274-.552.606-.552.996h-1.53c0-.445.158-.874.473-1.288.315-.414.743-.742 1.284-.983a4.32 4.32 0 0 1 1.781-.362c1.026 0 1.83.257 2.41.77.582.512.884 1.218.906 2.118v4.096c0 .818.104 1.468.313 1.95v.132h-1.597zm-2.526-1.16c.478 0 .93-.124 1.358-.37.428-.247.738-.568.93-.963V9.301h-1.193c-1.865 0-2.798.546-2.798 1.637 0 .477.16.85.477 1.119.318.268.727.403 1.226.403zm11.852-6.376a4.563 4.563 0 0 0-.748-.057c-.999 0-1.676.425-2.033 1.275v6.318h-1.522V4.719h1.481l.025 1.028c.499-.795 1.207-1.193 2.123-1.193.296 0 .52.039.674.115v1.415zm4.406 7.536h-1.522V.984h1.522V13.62zm6.701-2.23l2.074-6.671h1.629l-3.58 10.275c-.554 1.48-1.434 2.22-2.64 2.22l-.289-.024-.568-.107V15.85l.412.033c.515 0 .917-.104 1.205-.313.288-.208.526-.59.712-1.143l.337-.905-3.176-8.802h1.662l2.222 6.671zm14.85 0l2.074-6.671h1.63l-3.58 10.275c-.554 1.48-1.435 2.22-2.641 2.22l-.288-.024-.568-.107V15.85l.411.033c.516 0 .918-.104 1.206-.313.288-.208.525-.59.712-1.143l.337-.905-3.176-8.802h1.662l2.222 6.671zm10.001 2.394c-1.207 0-2.188-.396-2.945-1.188-.757-.793-1.136-1.853-1.136-3.18v-.28c0-.883.169-1.671.506-2.365.337-.694.81-1.237 1.415-1.629a3.559 3.559 0 0 1 1.971-.588c1.157 0 2.057.381 2.699 1.144.642.762.963 1.853.963 3.274v.633h-6.032c.022.878.279 1.587.77 2.127.49.54 1.115.81 1.872.81.537 0 .992-.11 1.365-.329.373-.22.7-.51.98-.872l.93.724c-.747 1.146-1.866 1.72-3.358 1.72zm-.189-7.98a2.03 2.03 0 0 0-1.547.671c-.417.447-.675 1.074-.773 1.88h4.46V8.24c-.045-.774-.253-1.373-.626-1.798-.373-.425-.878-.637-1.514-.637zm12.272 7.816c-.088-.176-.16-.488-.214-.938-.708.735-1.553 1.102-2.535 1.102-.877 0-1.597-.248-2.16-.744-.562-.497-.843-1.126-.843-1.888 0-.927.353-1.647 1.057-2.16.705-.512 1.697-.769 2.975-.769h1.481v-.7c0-.531-.159-.955-.477-1.27-.318-.315-.787-.473-1.407-.473-.543 0-.999.137-1.366.411-.368.274-.551.606-.551.996h-1.53c0-.445.157-.874.472-1.288.316-.414.744-.742 1.284-.983a4.32 4.32 0 0 1 1.781-.362c1.026 0 1.83.257 2.411.77.582.512.883 1.218.905 2.118v4.096c0 .818.105 1.468.313 1.95v.132h-1.596zm-2.526-1.16c.477 0 .93-.124 1.357-.37.428-.247.738-.568.93-.963V9.301h-1.193c-1.865 0-2.798.546-2.798 1.637 0 .477.16.85.478 1.119.318.268.726.403 1.226.403zm11.852-6.376a4.563 4.563 0 0 0-.75-.057c-.997 0-1.675.425-2.031 1.275v6.318h-1.523V4.719h1.481l.025 1.028c.5-.795 1.207-1.193 2.123-1.193.296 0 .521.039.675.115v1.415zm7.935 5.175c0-.412-.155-.731-.465-.959-.31-.227-.85-.423-1.62-.588-.771-.164-1.383-.362-1.836-.592-.452-.23-.787-.505-1.004-.823-.216-.318-.325-.696-.325-1.135 0-.73.309-1.346.926-1.851.617-.505 1.406-.757 2.366-.757 1.01 0 1.828.26 2.456.782.628.52.942 1.187.942 1.999h-1.53c0-.417-.177-.776-.531-1.078-.354-.302-.8-.452-1.337-.452-.554 0-.988.12-1.3.362a1.14 1.14 0 0 0-.47.946c0 .367.146.644.437.83.29.187.816.365 1.576.535.76.17 1.375.373 1.847.609s.821.52 1.049.851c.228.332.341.737.341 1.214 0 .795-.318 1.433-.954 1.912-.636.48-1.462.72-2.477.72-.713 0-1.344-.126-1.892-.378-.549-.252-.978-.605-1.288-1.057a2.547 2.547 0 0 1-.465-1.469h1.522c.028.51.232.915.613 1.214.382.299.885.448 1.51.448.576 0 1.038-.116 1.387-.35.348-.233.522-.544.522-.933zm15.567 0c0-.412-.155-.731-.465-.959-.31-.227-.85-.423-1.621-.588-.771-.164-1.383-.362-1.835-.592-.453-.23-.787-.505-1.004-.823-.217-.318-.325-.696-.325-1.135 0-.73.308-1.346.926-1.851.617-.505 1.405-.757 2.365-.757 1.01 0 1.828.26 2.456.782.628.52.942 1.187.942 1.999h-1.53c0-.417-.177-.776-.53-1.078-.355-.302-.8-.452-1.338-.452-.554 0-.987.12-1.3.362a1.14 1.14 0 0 0-.469.946c0 .367.145.644.436.83.29.187.816.365 1.576.535.76.17 1.375.373 1.847.609s.822.52 1.05.851c.227.332.34.737.34 1.214 0 .795-.317 1.433-.954 1.912-.636.48-1.462.72-2.476.72-.714 0-1.344-.126-1.893-.378-.549-.252-.978-.605-1.288-1.057a2.547 2.547 0 0 1-.465-1.469h1.523c.027.51.231.915.613 1.214.38.299.884.448 1.51.448.576 0 1.038-.116 1.386-.35.348-.233.523-.544.523-.933zm8.552 2.525c-1.207 0-2.189-.396-2.946-1.188-.757-.793-1.135-1.853-1.135-3.18v-.28c0-.883.168-1.671.506-2.365.337-.694.809-1.237 1.415-1.629a3.559 3.559 0 0 1 1.97-.588c1.158 0 2.058.381 2.7 1.144.641.762.962 1.853.962 3.274v.633h-6.03c.021.878.277 1.587.768 2.127.491.54 1.115.81 1.872.81.538 0 .993-.11 1.366-.329.373-.22.7-.51.98-.872l.93.724c-.747 1.146-1.866 1.72-3.358 1.72zm-.19-7.98a2.03 2.03 0 0 0-1.546.671c-.417.447-.675 1.074-.774 1.88h4.46V8.24c-.044-.774-.252-1.373-.625-1.798-.373-.425-.878-.637-1.514-.637zm8.841-3.24v2.155h1.662v1.176h-1.662v5.52c0 .357.074.624.222.802.149.178.4.268.758.268.175 0 .416-.033.724-.1v1.235c-.4.11-.79.164-1.169.164-.68 0-1.193-.205-1.539-.617-.345-.411-.518-.995-.518-1.752v-5.52h-1.62V4.719h1.62V2.563h1.522zm6.858 0v2.155h1.662v1.176h-1.662v5.52c0 .357.074.624.222.802.148.178.4.268.757.268.176 0 .417-.033.724-.1v1.235c-.4.11-.79.164-1.168.164-.68 0-1.193-.205-1.539-.617-.346-.411-.518-.995-.518-1.752v-5.52h-1.621V4.719h1.62V2.563h1.523zm6.446 11.056h-1.522V4.719h1.522v8.9zM246.47 2.358c0-.247.076-.456.227-.626.15-.17.374-.255.67-.255.296 0 .521.085.675.255.153.17.23.379.23.626a.87.87 0 0 1-.23.617c-.154.164-.379.246-.675.246-.296 0-.52-.082-.67-.246a.878.878 0 0 1-.227-.617zm6.874 2.36l.05 1.12c.68-.856 1.568-1.284 2.666-1.284 1.881 0 2.83 1.061 2.847 3.184v5.882h-1.523V7.73c-.005-.642-.152-1.117-.44-1.424-.288-.307-.736-.46-1.345-.46-.494 0-.927.131-1.3.395a2.682 2.682 0 0 0-.872 1.036v6.343h-1.523V4.719h1.44zm8.849 4.377c0-1.387.32-2.491.963-3.311.642-.82 1.492-1.23 2.55-1.23 1.087 0 1.934.384 2.543 1.152l.074-.987h1.39v8.687c0 1.152-.34 2.06-1.024 2.723-.683.663-1.6.995-2.752.995a4.58 4.58 0 0 1-1.884-.411c-.615-.274-1.084-.65-1.407-1.127l.79-.913c.652.806 1.45 1.21 2.394 1.21.74 0 1.318-.21 1.732-.626.414-.417.621-1.004.621-1.76v-.766c-.609.702-1.44 1.053-2.493 1.053-1.042 0-1.886-.42-2.53-1.258-.645-.84-.967-1.983-.967-3.43zm1.53.173c0 1.004.206 1.792.618 2.365.411.573.987.86 1.728.86.96 0 1.664-.436 2.114-1.308V7.12c-.466-.85-1.165-1.275-2.098-1.275-.74 0-1.32.288-1.736.863-.417.576-.626 1.43-.626 2.559z" id="home-based-early-years-setting" fill="#9E8E7D"/><path d="M102.336 34.018a2.205 2.205 0 0 1-4.412 0 2.205 2.205 0 0 1 4.412 0M189.048 34.018a2.205 2.205 0 0 1-4.411 0 2.205 2.205 0 0 1 4.411 0" fill="#397F31"/></g><path d="M66.949 49.594s2.296 3.518 5.295 6.464c3.001 2.944 1.584 2.817 4.565 3.639 2.981.823 8.66 2.47 8.66 2.47l-.722-1.69.706-.147s2.574 2.807 6.266 3.906c3.692 1.1 16.334 5.236 16.334 5.236l-3.735-5.91 1.135.273s-1.888-5.503-5.025-8.023c-3.14-2.52-4.275-2.934-4.275-2.934l2.106-2.142 4.14 3.927-.5-8.77.235-5.52 2.265-.02-.596 12.883.893 4.802.995.418 2.155-12.613 2.702 1.108s-2.747 9.93-2.73 12.051c.02 2.123.615 5.373 3.633 10.44 3.019 5.069 19.567 18.792 19.567 18.792l1.544-1.57s5.725 6.742 10.28 9.534c4.556 2.789 6.272 4.615 6.272 4.615l-2.245 2.424s-11.833-8.953-13.684-10.21c-1.852-1.257-6.714-6.452-8.838-6.434-2.124.018-8.62 2.198-8.62 2.198l-2.29-2.809 7.913-2.05s-11.004-11.225-13.348-11.984c-2.341-.757-21.09-6.82-24.63-6.79-3.54.031-14.116 5.5-16.225 7.146-2.11 1.646-5.066 3.795-5.066 3.795l-12.02 1.944-10.592 3.63-.722-1.693s21.757-6.133 21.19-6.127c-.567.005 11.126-7.173 11.126-7.173l8.335-2.478s.407-2.126-5.69-2.78c-6.095-.655-14.73-.155-15.295-.008-.566.146-7.784.633-7.784.633l-.578-1.268-12.031.954-.007-.991 10.755-.943s-2.835-.257 10.051-.37l12.889-.112-6.457-9.424 1.698-.299zM53.29 24.33S65.244 45.22 66.11 45.49c.868.27-1.346.61-1.346.61L52.23 24.391l1.06-.061z" fill="#9E8E7D" transform="translate(146.136)"/><path d="M38.623 65.84s-2.66 3.561-3.215 4.84c-.556 1.277-8.08 8.344-17.69 1.426C2.63 61.251.014 36.888.014 36.888S29.93 27 38.364 36.128c8.435 9.123 6.939 16.069 5.128 19.623-1.81 3.554-4.869 10.09-4.869 10.09M61.241 75.621s-5.038-2.646-7.434 3.46 4.887 13.119 7.591 14.51c2.704 1.391 5.823 1.789 5.823 1.789s6.21-2.459 4.977-13.912c-1.233-11.451-10.957-5.847-10.957-5.847M41.694 80.51s-.757-5.621-11.635-2.5c-10.878 3.121-18.614 9.132-18.614 9.132s2.5 10.734 17.512 10.744c15.013.011 12.737-17.375 12.737-17.375M54.532 28.154s-6.489 5.737-12.024 2.079c-5.533-3.66-13.09-11.793-6.455-28.899 15.392-3.49 24.15 5.223 27.748 14.018.34 9.5-9.269 12.802-9.269 12.802M61.22 50.793s-11.357-1.7-9.703-8.1c1.655-6.4 6.761-9.232 6.761-9.232s6.581 1.112 10.343 9.263c3.76 8.152-7.401 8.07-7.401 8.07M122.291 23.368s-14.292-6.395-21.889 5.644c-5.744 9.104 1.053 13.298 1.053 13.298s3.09-.644 3.845-.05c2.115 1.66 1.853 8.071 9.766 4.509 7.914-3.565 7.225-23.4 7.225-23.4M98.595 44.61s.117-6.765-10.577-6.508c-2.98.07-8.291 3.6-8.291 3.6s4.298 10.765 9.482 11.925c5.183 1.16 11.461-1.58 12.14-4.157.678-2.575-3.505-4.219-3.505-4.219l.75-.64zM112.857 60.098s.504-7.08 7.315-5.725c6.81 1.356 8.397 4.74 8.397 4.74s-5.18 6.977-10.276 7.164c-5.098.186-5.539-1.79-5.411-3.208.13-1.416-.025-2.971-.025-2.971M91.766 35.921s-5.537 1.394-6.212-4.142c-.675-5.536 1.512-7.595 1.512-7.595s6.633 2.196 8.055 6.038c1.424 3.841.024 4.676-1.09 4.933-1.115.257-2.265.766-2.265.766" fill="#397F31" transform="translate(146.136)"/><path d="M85.47 68.898s-1.965-2.349-5.236-.996c-3.272 1.352-2.412 1.4-4.338 2.038-1.924.636-2.506 1.838-2.65 3.134-.144 1.297.524 3.502 3.636 3.306 3.115-.196 2.472.442 4.506-.49 2.036-.933 4.102-1.585 4.48-3.334.38-1.75-.397-3.658-.397-3.658M54.736 66.455s1.238-4.115-4.696-2.648c-5.937 1.466-4.902 6.41-4.902 6.41s-.26 2.69 1.725 2.957c1.985.266 5.092-.752 5.092-.752s4.37-2.302 2.781-5.967M67.183 35.056s-3.962.459-4.855-4.485c-.893-4.946-.068-7.925 2.342-7.662 2.408.26 2.583-.041 3.978 1.521 1.534 1.72 1.015 2.671 1.739 4.51.724 1.837.018 7.267-3.204 6.116" fill="#E6225A" transform="translate(146.136)"/><path d="M71.595 33.574s-5.036 3.41.132 7.286c5.168 3.874 9.594-2.37 9.594-2.37s1.685-3.986-1.12-5.645c-2.802-1.658-8.606.729-8.606.729M98.481 55.62s-4.684-1.231-5.07 3.123c-.388 4.354 2.818 6.662 4.518 6.647 1.699-.016 3.375-2.752 3.355-4.998-.02-2.248-1.534-4.615-2.803-4.771" fill="#E6225A" transform="translate(146.136)"/><path d="M24.656 125.781v6.556h-3.424l-.305-3.4h-6.582v23.352l3.322.57v2.565H7.01v-2.565l3.321-.57v-23.352H3.729l-.285 3.4H0v-6.556h24.656zm2.29 2.586v-2.586h10.657v2.586l-3.32.57v10.24h14.385v-10.24l-3.321-.57v-2.586h10.657v2.586l-3.322.57v23.352l3.322.57v2.565H45.347v-2.565l3.321-.57v-9.956H34.282v9.956l3.321.57v2.565H26.946v-2.565l3.322-.57v-23.352l-3.322-.57zm32.143 27.057v-2.565l3.321-.57v-23.352l-3.321-.57v-2.586H81.87v7.126h-3.444l-.326-3.97H66.425v9.59h11.35v3.155h-11.35v10.607h11.92l.326-3.97h3.423v7.105H59.09zm66.139-23.739l-.102-.02-9.598 23.76h-2.669l-9.597-23.74-.102.02.407 11.992v8.592l3.322.57v2.565H96.232v-2.565l3.321-.57v-23.352l-3.321-.57v-2.586h8.456l9.455 24.085h.122l9.434-24.085h8.477v2.586l-3.321.57v23.352l3.321.57v2.565H121.52v-2.565l3.322-.57v-8.592l.387-12.012zm20.344-5.904v2.586l-3.321.57v16.939c0 2.24.638 3.94 1.915 5.1 1.277 1.16 2.962 1.74 5.054 1.74 2.2 0 3.973-.576 5.318-1.73 1.345-1.154 2.017-2.857 2.017-5.11v-16.94l-3.321-.57v-2.585h10.657v2.586l-3.322.57v16.939c0 3.217-1.049 5.683-3.148 7.4-2.099 1.717-4.832 2.576-8.201 2.576-3.274 0-5.923-.859-7.947-2.576s-3.036-4.183-3.036-7.4v-16.94l-3.322-.57v-2.585h10.657zm21.058 29.643v-2.565l3.321-.57v-23.352l-3.321-.57v-2.586h10.657v2.586l-3.322.57v23.352h10.31l.307-3.4h3.423v6.535H166.63zm37.522-29.643c3.097 0 5.518.669 7.264 2.006 1.746 1.337 2.618 3.342 2.618 6.016 0 1.316-.417 2.494-1.253 3.532-.835 1.038-1.939 1.809-3.311 2.31 1.78.38 3.186 1.256 4.218 2.627 1.032 1.371 1.549 2.966 1.549 4.785 0 2.714-.883 4.787-2.65 6.22-1.765 1.431-4.156 2.147-7.172 2.147h-14.264v-2.565l3.322-.57v-23.352l-3.322-.57v-2.586H204.152zm-5.665 15.738v10.77h6.928c1.834 0 3.257-.451 4.269-1.354s1.518-2.182 1.518-3.838c0-1.737-.424-3.101-1.274-4.092-.849-.99-2.15-1.486-3.902-1.486h-7.539zm0-3.135h6.704c1.44-.041 2.605-.469 3.494-1.283.89-.814 1.335-1.94 1.335-3.38 0-1.601-.502-2.799-1.508-3.593-1.005-.794-2.458-1.191-4.36-1.191h-5.665v9.447zm20.161 17.04v-2.565l3.321-.57v-23.352l-3.321-.57v-2.586h22.781v7.126h-3.444l-.326-3.97h-11.675v9.59h11.35v3.155h-11.35v10.607h11.92l.326-3.97h3.423v7.105h-23.005zm39.723-29.622c3.233 0 5.712.716 7.437 2.148 1.725 1.431 2.588 3.464 2.588 6.097 0 1.439-.4 2.715-1.202 3.828-.802 1.113-1.95 1.988-3.444 2.626 1.617.53 2.781 1.391 3.495 2.586.713 1.194 1.07 2.667 1.07 4.418v2.382c0 .909.115 1.58.346 2.015.23.434.611.692 1.14.774l.979.122v2.626h-2.16c-1.562 0-2.673-.543-3.332-1.628-.658-1.086-.988-2.403-.988-3.95v-2.3c0-1.616-.468-2.912-1.406-3.89-.937-.977-2.194-1.465-3.77-1.465h-6.438v10.098l3.32.57v2.565H245.35v-2.565l3.321-.57v-23.352l-3.321-.57v-2.565H258.37zm-5.685 13.233h5.277c2.242 0 3.872-.427 4.89-1.283 1.02-.855 1.529-2.103 1.529-3.746 0-1.56-.49-2.796-1.467-3.705-.978-.91-2.493-1.364-4.544-1.364h-5.685v10.098zm34.017-13.233c3.233 0 5.712.716 7.437 2.148 1.725 1.431 2.588 3.464 2.588 6.097 0 1.439-.4 2.715-1.202 3.828-.802 1.113-1.95 1.988-3.444 2.626 1.617.53 2.782 1.391 3.495 2.586.713 1.194 1.07 2.667 1.07 4.418v2.382c0 .909.115 1.58.346 2.015.23.434.611.692 1.141.774l.978.122v2.626h-2.16c-1.562 0-2.673-.543-3.331-1.628-.66-1.086-.989-2.403-.989-3.95v-2.3c0-1.616-.468-2.912-1.406-3.89-.937-.977-2.194-1.465-3.77-1.465h-6.438v10.098l3.321.57v2.565h-10.657v-2.565l3.321-.57v-23.352l-3.321-.57v-2.565H286.703zm-5.685 13.233h5.277c2.242 0 3.872-.427 4.89-1.283 1.02-.855 1.529-2.103 1.529-3.746 0-1.56-.49-2.796-1.467-3.705-.978-.91-2.493-1.364-4.544-1.364h-5.685v10.098zm26.772-10.668l-3.2.387 6.215 12.093 6.215-12.093-3.178-.387v-2.586h10.188v2.586l-2.506.387L312.72 145v7.289l3.321.57v2.565h-10.636v-2.565l3.321-.57v-7.594l-8.64-15.941-2.486-.387v-2.586h10.189v2.586zm53.485-2.586v6.556h-3.424l-.305-3.4h-6.582v23.352l3.321.57v2.565h-10.657v-2.565l3.322-.57v-23.352h-6.602l-.286 3.4h-3.443v-6.556h24.656zm15.31.02c3.234 0 5.713.717 7.438 2.149 1.726 1.431 2.588 3.464 2.588 6.097 0 1.439-.4 2.715-1.202 3.828-.801 1.113-1.95 1.988-3.444 2.626 1.617.53 2.782 1.391 3.495 2.586.713 1.194 1.07 2.667 1.07 4.418v2.382c0 .909.115 1.58.346 2.015.231.434.611.692 1.141.774l.978.122v2.626h-2.16c-1.562 0-2.672-.543-3.331-1.628-.659-1.086-.988-2.403-.988-3.95v-2.3c0-1.616-.47-2.912-1.406-3.89-.938-.977-2.194-1.465-3.77-1.465h-6.44v10.098l3.322.57v2.565h-10.657v-2.565l3.322-.57v-23.352l-3.322-.57v-2.565h13.021zm-5.684 13.234h5.277c2.242 0 3.872-.427 4.89-1.283 1.02-.855 1.529-2.103 1.529-3.746 0-1.56-.489-2.796-1.467-3.705-.978-.91-2.493-1.364-4.544-1.364H370.9v10.098zm20.996 16.39v-2.566l3.322-.57v-23.352l-3.322-.57v-2.586h22.781v7.126h-3.443l-.326-3.97h-11.676v9.59h11.35v3.155h-11.35v10.607h11.92l.326-3.97h3.424v7.105h-23.006zm26.702 0v-2.566l3.322-.57v-23.352l-3.322-.57v-2.586h22.781v7.126h-3.443l-.326-3.97h-11.676v9.59h11.35v3.155h-11.35v10.607h11.92l.326-3.97h3.423v7.105H418.6z" fill="#716558"/></g></symbol></svg>