<svg xmlns="http://www.w3.org/2000/svg"><symbol id="branch" viewBox="0 0 125 87"><g fill="none" fill-rule="evenodd"><path d="M55.891 41.4s1.918 2.937 4.422 5.396c2.505 2.458 1.322 2.352 3.81 3.038 2.49.687 7.23 2.063 7.23 2.063l-.602-1.412.589-.123s2.149 2.344 5.23 3.261c3.083.919 13.637 4.37 13.637 4.37l-3.118-4.933.948.228s-1.576-4.594-4.196-6.697c-2.62-2.104-3.569-2.449-3.569-2.449l1.758-1.788 3.457 3.277-.418-7.32.197-4.608 1.89-.016-.497 10.754.745 4.008.831.349 1.8-10.53 2.255.926s-2.293 8.289-2.278 10.06c.016 1.772.512 4.485 3.032 8.716 2.52 4.23 16.335 15.686 16.335 15.686l1.29-1.31s4.778 5.628 8.582 7.958c3.803 2.329 5.235 3.853 5.235 3.853l-1.873 2.023s-9.88-7.473-11.424-8.523c-1.547-1.05-5.606-5.385-7.379-5.37-1.773.015-7.197 1.834-7.197 1.834l-1.911-2.345 6.606-1.711s-9.187-9.37-11.143-10.004c-1.955-.632-17.608-5.693-20.562-5.668-2.956.026-11.785 4.592-13.546 5.965-1.762 1.374-4.23 3.168-4.23 3.168L41.793 65.15l-8.842 3.03-.602-1.413s18.164-5.12 17.69-5.115c-.473.005 9.289-5.987 9.289-5.987l6.957-2.07s.34-1.774-4.75-2.32c-5.088-.547-12.297-.13-12.769-.006-.472.121-6.498.528-6.498.528l-.482-1.058-10.044.795-.006-.827 8.979-.787s-2.367-.214 8.39-.309l10.76-.093-5.39-7.867 1.417-.25zM44.489 20.311s9.98 17.438 10.703 17.662c.724.225-1.125.509-1.125.509l-10.463-18.12.885-.051z" fill="#9E8E7D"/><path d="M32.244 54.962s-2.221 2.973-2.684 4.04c-.464 1.067-6.746 6.965-14.769 1.191C2.196 51.131.013 30.793.013 30.793s24.973-8.253 32.015-.635c7.042 7.617 5.793 13.415 4.281 16.382-1.512 2.966-4.065 8.422-4.065 8.422M51.127 63.127s-4.206-2.208-6.207 2.889c-2 5.097 4.08 10.95 6.338 12.113 2.257 1.16 4.861 1.492 4.861 1.492s5.185-2.052 4.155-11.613c-1.03-9.56-9.147-4.88-9.147-4.88M34.808 67.21s-.632-4.694-9.714-2.088c-9.08 2.605-15.54 7.623-15.54 7.623s2.088 8.96 14.62 8.969c12.534.009 10.634-14.505 10.634-14.505M45.526 23.502s-5.418 4.79-10.039 1.736c-4.62-3.055-10.928-9.844-5.389-24.124C42.948-1.8 50.26 5.474 53.264 12.816c.284 7.93-7.738 10.686-7.738 10.686M51.109 42.402s-9.481-1.42-8.1-6.763c1.38-5.342 5.644-7.706 5.644-7.706s5.494.928 8.635 7.732c3.14 6.806-6.18 6.737-6.18 6.737M102.094 19.507S90.162 14.168 83.82 24.22c-4.795 7.6.88 11.1.88 11.1s2.578-.537 3.21-.041c1.765 1.385 1.545 6.738 8.152 3.764 6.607-2.976 6.032-19.535 6.032-19.535M82.311 37.24s.098-5.648-8.83-5.433c-2.487.058-6.922 3.006-6.922 3.006s3.589 8.985 7.917 9.954c4.326.968 9.568-1.319 10.134-3.47.567-2.15-2.926-3.522-2.926-3.522l.627-.535zM94.218 50.169s.42-5.91 6.107-4.78c5.685 1.133 7.01 3.957 7.01 3.957s-4.325 5.825-8.58 5.981c-4.255.155-4.623-1.495-4.516-2.678.108-1.182-.021-2.48-.021-2.48M76.61 29.986s-4.622 1.164-5.186-3.457c-.563-4.621 1.262-6.34 1.262-6.34s5.538 1.833 6.725 5.04c1.189 3.206.02 3.903-.91 4.118-.93.215-1.89.64-1.89.64" fill="#397F31"/><path d="M71.354 57.515s-1.64-1.96-4.371-.832c-2.732 1.13-2.014 1.17-3.622 1.701-1.606.532-2.092 1.535-2.212 2.617-.12 1.083.437 2.923 3.036 2.76 2.6-.164 2.063.37 3.761-.41 1.7-.778 3.425-1.323 3.74-2.782.318-1.461-.332-3.054-.332-3.054M45.696 55.475s1.034-3.435-3.92-2.21c-4.957 1.224-4.093 5.351-4.093 5.351s-.216 2.246 1.44 2.468c1.657.223 4.251-.627 4.251-.627s3.649-1.922 2.322-4.982M56.087 29.264s-3.308.383-4.053-3.744c-.745-4.129-.057-6.615 1.955-6.396 2.01.218 2.157-.035 3.321 1.27 1.28 1.435.848 2.23 1.452 3.764.604 1.534.015 6.067-2.675 5.106" fill="#E6225A"/><path d="M59.77 28.027s-4.204 2.846.11 6.082c4.315 3.234 8.01-1.977 8.01-1.977s1.407-3.329-.935-4.713c-2.34-1.385-7.184.608-7.184.608M82.216 46.431s-3.91-1.028-4.233 2.607c-.323 3.634 2.353 5.56 3.772 5.549 1.418-.014 2.818-2.297 2.801-4.173-.017-1.876-1.28-3.852-2.34-3.983" fill="#E6225A"/></g></symbol><symbol id="facebook" viewBox="0 0 32 32"><title>Slice 1</title><g id="Page-1" fill="none" fill-rule="evenodd"><path d="M19.343 6.426c-.33-.002-.65-.137-.96-.135-.333 0-.663-.21-.97-.194-.336.014-.647.196-.95.24-.333.049-.6.267-.889.365-.313.104-.6.178-.856.36-.253.182-.403.426-.594.704-.186.273-.59.45-.68.778a6.17 6.17 0 0 0-.165 1.007c-.03.318-.061.656-.075 1.005-.013.321.15.66.13 1.004-.017.322-.008.697-.048 1.035-.303 0-.647.043-.95.043-.302 0-.47.028-.772.028 0 .361-.124.609-.124.968 0 .363-.194.721-.194 1.083 0 .359.095.799.095 1.159.319 0 .723-.229 1.043-.229.318 0 .665.125.982.125 0 .32.029.668.029.991 0 .322.083.642.083.964 0 .321-.02.643-.02.964 0 .322.05.645.05.963 0 .322-.018.644-.018.967 0 .32.038.641.038.964 0 .319-.116.642-.116.963 0 .323.003.643.003.964 0 .32.004.643.004.965 0 .32-.102.665-.102.986.333 0 .69-.133 1.023-.133.334 0 .669.207 1.003.207.334 0 .668-.035 1.002-.035.334 0 .538-.202.872-.202.006-.317.036-.499.038-.823.002-.32.242-.642.24-.963 0-.321-.039-.643-.042-.968-.002-.32-.186-.642-.189-.964-.003-.321-.017-.644-.019-.963-.003-.324.078-.646.077-.966 0-.323-.156-.647-.153-.967.004-.323.137-.644.145-.961.01-.325.07-.645.086-.965.014-.322-.036-.7-.012-1.015.285 0 .628-.046.914-.046.287 0 .573.138.86.138.286 0 .47-.114.756-.114a8.291 8.291 0 0 1 .057-1.02c.038-.366.21-.705.257-1.064.045-.35.159-.792.176-1.17-.33 0-.759.208-1.088.208-.329 0-.658.054-.986.054-.33 0-.615-.218-.944-.218.032-.306-.025-.618-.041-.974-.018-.355-.215-.727-.183-1.036.042-.394.32-.755.634-.88.233-.078.54.006.845 0 .268-.004.556-.217.837-.206.288.007.502.14.761.12 0-.275-.006-.5-.006-.778 0-.28.093-.558.093-.835 0-.279.093-.557.093-.836 0-.28-.127-.544-.127-.822-.328 0-.64.162-.953.16M6.664 28.606c.469-.05 1.154.114 1.251-.311-.414-.404-1.165-.412-1.25.31M4.787 6.4c-.228.957.54.918.312 1.876-.614.852-2.336 2.596-3.128 4.378-.17.39.215 1.247 0 1.878-.319.937-.847.545-.938 1.252-.183 1.4-.495 3.693 1.251 4.378.936-1.093-.65-1.664-.313-3.128 1.54-1.276.809-4.82 3.128-5.319-3.226 8.065 2.127 15.161 9.071 15.955 6.678.763 12.262-3.367 13.45-10.323-1.077-1.116-.193-2.016 0-3.44-1.17-1.09-1.027-1.587-1.25-3.442-2.194-2.166-3.5-5.32-7.195-5.942-1.485-.25-4.405-.49-6.569 0-3.578.811-4.756 4.762-7.195 6.567V9.214c1.932-1.926 4.15-3.566 5.944-5.632C7.612 2.853 7.565 7.17 4.788 6.4M14.17 3.27c1.126.175 3.149.788 3.754-.312-.698-.39-3.528-.753-3.754.312m16.89 15.953c.522-7.435-2.63-12.662-6.882-16.58-1.68.224-2.562-.354-3.752-.622.13 1.951 1.44 1.328 2.814 1.561 3.29 2.448 4.828 6.644 6.57 10.636-.052 2.479-.507 4.571 0 6.882-2.5 2.376-3.337 6.801-7.195 8.446-1.332.568-4.614.702-7.195.938-.394.036-1.222.62-1.564.625-.692.015-1.947-.61-2.814-.625-.483-.006-1.017.362-1.25.312-2.692-.549-5.4-2.5-6.257-4.69 1.581-.122 1.178 1.74 2.816 1.563-.637-1.868-3.005-4.71-4.067-7.194-1.726 1.285.67 3.086.939 4.38-1.578.524-2.866-3.55-3.129-5.632-.553-4.396 1.44-9.027 2.503-11.886 3.337-4.006 9.386-8.16 16.89-7.196 3.748.485 5.479 2.94 8.445 4.381.018 2.172 1.653 2.728 2.816 3.753-.93 1.493.555 2.888 1.251 3.753-.628 2.657 0 4.257-.938 7.195" id="facebook" fill="#397F31"/></g></symbol><symbol id="instagram" viewBox="0 0 32 34"><title>Slice 1</title><g id="Page-1" fill="none" fill-rule="evenodd"><path d="M19.41 10.778c.049.723.004 1.642.183 2.235.451.198 1.673.12 2.229.16.252-.51.186-1.886-.065-2.395-.614-.103-1.856-.278-2.347 0zm-1.454 6.57c-.029-1.288-1.155-1.6-1.832-1.628-.826-.037-1.411.355-1.64.95-.238.622-.042 1.377.394 1.892.37.437.856.541 1.724.354.595-.458 1.374-.661 1.354-1.568zm-9.243-1.51c.044.74.154 1.479.132 2.197-.022.767-.162 1.508-.156 2.198.01.812.192 1.53.402 2.147.242.708.695 1.085 1.45 1.402.66.277 1.57.54 2.658.524.9-.013 1.87.1 2.768.1.946 0 1.917-.184 2.81-.17 1.113.015 2.17.174 2.842-.105.757-.312 1.126-1.054 1.375-1.797.216-.645.22-1.41.225-2.229a35.516 35.516 0 0 0-.047-2.254 26.008 26.008 0 0 1-.007-2.283l-3.238.003c.35.878.523 1.78.384 2.57-.156.882-.66 1.645-1.236 2.246-.611.636-1.36 1.263-2.205 1.374-.852.113-1.577-.332-2.238-.574-.755-.276-1.458-.563-1.905-1.17-.445-.606-.567-1.37-.652-2.164-.076-.725-.187-1.421.083-2.195-1.091 0-2.12-.051-3.21-.051-.103.034-.24.096-.235.232zm13.031-5.975c-.667-.323-1.697-.277-2.8-.27-.91.006-1.89-.045-2.817-.045-.762 0-1.56.092-2.319.074-.844-.021-1.62.119-2.286.193-.756.085-1.37.112-1.792.494-.462.418-.918.974-1.057 1.653-.118.573.081 1.23.14 1.923.761-.03 1.527.263 2.316.327.833.066 1.655-.07 2.364-.22.239-.05.413-.277.605-.378a4.66 4.66 0 0 1 2.752-.448c.791.117 1.177.729 1.905.862.742.137 1.464.09 2.2.03.696-.057 1.365-.212 2.148-.12.173-.814.206-1.557.005-2.237-.24-.814-.705-1.52-1.364-1.838zM10.871 8.169c.733-.108 1.735-.241 2.82-.232.935.008 1.924.137 2.835.137.963 0 1.92-.185 2.81-.2 1.054-.02 2.089-.105 2.85.187.55.212.96.793 1.376 1.215.472.478.664 1.074.84 1.522.377.966.544 2.064.544 2.803 0 .962-.216 1.97-.216 3.19 0 .644.202 1.336.219 2.03.016.696.094 1.393.07 2.037-.028.768-.145 1.474-.322 2.007-.211.639-.66 1.194-1.141 1.672-.513.51-1.11.883-1.697 1.074a6.695 6.695 0 0 1-1.941.343c-.625.014-1.308-.099-1.977-.122-.696-.021-1.381.161-1.974.161-.618 0-1.29-.355-1.953-.346-.672.011-1.338.228-1.947.205-.773-.027-1.407-.252-1.88-.415-.611-.208-1.27-.337-1.731-.747-.478-.424-.81-1.005-1.04-1.591-.203-.519-.418-1.219-.458-1.994-.035-.645.291-1.345.305-2.038.013-.704-.082-1.406-.082-2.037 0-.727-.224-1.41-.243-2.055-.022-.744.238-1.433.256-2.058.022-.77.12-1.394.322-1.974.021-.06.122-.08.145-.18.159-.673.381-1.502 1.028-1.976.605-.445 1.475-.517 2.182-.618zm20.482 7.522h.646v-1.294h-.646v1.294zM3.527 14.397c.986-.003 1.339-1.898 0-1.615v1.615zm15.207 17.795H21c.28-1.48-2.198-.939-2.266 0zm3.883-1.618c1.853.345 2.103-.915 2.912-1.616-.445.012-.71-.154-.97-.324-.056 1.238-2.08.507-1.942 1.94zm4.206-2.912c.898-.072.917-1.026 1.618-1.294-.437-.1-.619-.459-1.294-.323-.272.375-.426.869-.324 1.617zm1.618-2.587h.97c-.073-.574.327-1.62-.646-1.295-.101.437-.46.618-.324 1.295zm1.942-1.941c-.193-.67.4-2.126-.323-2.265-.608.383-1.231 2.417.323 2.265zM21 .484C13.624.424 7.668 2.901 3.527 8.25c-.136.172.162.826 0 .967-.989.868-.347.778-.97 2.59-.147.425-.859.42-.972.974-.231 1.131.174 1.491 0 2.586.085.947-.732.992-.647 1.941.656 5.13 2.278 10.18 6.794 12.295.243-.995-1.114-.395-.645-1.617 1.631-.014 1.681 1.552 2.911 1.94 3.779.21 6.137 1.369 9.06.647 1.554-.38 3.847-1.639 4.854-2.587 2.124-2 1.816-5.76 4.53-7.443-1.247-1.511-.116-2.672.646-3.882.238-1.427-1.047-1.326-1.293-2.265C28.16 6.992 20.783 3 13.88 4.367c-3.389.67-5.258 3.246-7.765 4.851.032-1.508 1.803-2.379 2.912-3.233 1.016-.786 2.265-2.119 3.559-2.588 2.896-1.054 6.764-.346 9.06-2.59 2.828 1.677 5.796 3.152 7.441 5.501.328.47-.255.637 0 1.292.253.651 1.182.935 1.295 1.296.213.677-.328.856-.323 1.293.007.738.929 1.45.97 1.943.118 1.445-.752 3.095-.324 4.853-.139.894 1.206.303 1.294.97-.891 1.083-.156 2.723-.323 3.56-1.15 5.769-6.108 8.548-10.03 11.648-9.612 2.466-16.573-2.398-20.062-8.735-.82-1.49-1.044-2.337-.97-4.53-1.155-1.377-.402-2.431 0-4.207.2-.877-.146-1.944 0-2.589C2.359 5.407 11.502-1.983 21 .483z" id="instagram" fill="#397F31"/></g></symbol><symbol id="logo" viewBox="0 0 442 190"><g fill="none" fill-rule="evenodd"><path d="M66.949 49.594s2.296 3.518 5.295 6.464c3.001 2.944 1.584 2.817 4.565 3.639 2.981.823 8.66 2.47 8.66 2.47l-.722-1.69.706-.147s2.574 2.807 6.266 3.906c3.692 1.1 16.334 5.236 16.334 5.236l-3.735-5.91 1.135.273s-1.888-5.503-5.025-8.023c-3.14-2.52-4.275-2.934-4.275-2.934l2.106-2.142 4.14 3.927-.5-8.77.235-5.52 2.265-.02-.596 12.883.893 4.802.995.418 2.155-12.613 2.702 1.108s-2.747 9.93-2.73 12.051c.02 2.123.615 5.373 3.633 10.44 3.019 5.069 19.567 18.792 19.567 18.792l1.544-1.57s5.725 6.742 10.28 9.534c4.556 2.789 6.272 4.615 6.272 4.615l-2.245 2.424s-11.833-8.953-13.684-10.21c-1.852-1.257-6.714-6.452-8.838-6.434-2.124.018-8.62 2.198-8.62 2.198l-2.29-2.809 7.913-2.05s-11.004-11.225-13.348-11.984c-2.341-.757-21.09-6.82-24.63-6.79-3.54.031-14.116 5.5-16.225 7.146-2.11 1.646-5.066 3.795-5.066 3.795l-12.02 1.944-10.592 3.63-.722-1.693s21.757-6.133 21.19-6.127c-.567.005 11.126-7.173 11.126-7.173l8.335-2.478s.407-2.126-5.69-2.78c-6.095-.655-14.73-.155-15.295-.008-.566.146-7.784.633-7.784.633l-.578-1.268-12.031.954-.007-.991 10.755-.943s-2.835-.257 10.051-.37l12.889-.112-6.457-9.424 1.698-.299zM53.29 24.33S65.244 45.22 66.11 45.49c.868.27-1.346.61-1.346.61L52.23 24.391l1.06-.061z" fill="#9E8E7D" transform="translate(146.136)"/><path d="M38.623 65.84s-2.66 3.561-3.215 4.84c-.556 1.277-8.08 8.344-17.69 1.426C2.63 61.251.014 36.888.014 36.888S29.93 27 38.364 36.128c8.435 9.123 6.939 16.069 5.128 19.623-1.81 3.554-4.869 10.09-4.869 10.09M61.241 75.621s-5.038-2.646-7.434 3.46 4.887 13.119 7.591 14.51c2.704 1.391 5.823 1.789 5.823 1.789s6.21-2.459 4.977-13.912c-1.233-11.451-10.957-5.847-10.957-5.847M41.694 80.51s-.757-5.621-11.635-2.5c-10.878 3.121-18.614 9.132-18.614 9.132s2.5 10.734 17.512 10.744c15.013.011 12.737-17.375 12.737-17.375M54.532 28.154s-6.489 5.737-12.024 2.079c-5.533-3.66-13.09-11.793-6.455-28.899 15.392-3.49 24.15 5.223 27.748 14.018.34 9.5-9.269 12.802-9.269 12.802M61.22 50.793s-11.357-1.7-9.703-8.1c1.655-6.4 6.761-9.232 6.761-9.232s6.581 1.112 10.343 9.263c3.76 8.152-7.401 8.07-7.401 8.07M122.291 23.368s-14.292-6.395-21.889 5.644c-5.744 9.104 1.053 13.298 1.053 13.298s3.09-.644 3.845-.05c2.115 1.66 1.853 8.071 9.766 4.509 7.914-3.565 7.225-23.4 7.225-23.4M98.595 44.61s.117-6.765-10.577-6.508c-2.98.07-8.291 3.6-8.291 3.6s4.298 10.765 9.482 11.925c5.183 1.16 11.461-1.58 12.14-4.157.678-2.575-3.505-4.219-3.505-4.219l.75-.64zM112.857 60.098s.504-7.08 7.315-5.725c6.81 1.356 8.397 4.74 8.397 4.74s-5.18 6.977-10.276 7.164c-5.098.186-5.539-1.79-5.411-3.208.13-1.416-.025-2.971-.025-2.971M91.766 35.921s-5.537 1.394-6.212-4.142c-.675-5.536 1.512-7.595 1.512-7.595s6.633 2.196 8.055 6.038c1.424 3.841.024 4.676-1.09 4.933-1.115.257-2.265.766-2.265.766" fill="#397F31" transform="translate(146.136)"/><path d="M85.47 68.898s-1.965-2.349-5.236-.996c-3.272 1.352-2.412 1.4-4.338 2.038-1.924.636-2.506 1.838-2.65 3.134-.144 1.297.524 3.502 3.636 3.306 3.115-.196 2.472.442 4.506-.49 2.036-.933 4.102-1.585 4.48-3.334.38-1.75-.397-3.658-.397-3.658M54.736 66.455s1.238-4.115-4.696-2.648c-5.937 1.466-4.902 6.41-4.902 6.41s-.26 2.69 1.725 2.957c1.985.266 5.092-.752 5.092-.752s4.37-2.302 2.781-5.967M67.183 35.056s-3.962.459-4.855-4.485c-.893-4.946-.068-7.925 2.342-7.662 2.408.26 2.583-.041 3.978 1.521 1.534 1.72 1.015 2.671 1.739 4.51.724 1.837.018 7.267-3.204 6.116" fill="#E6225A" transform="translate(146.136)"/><path d="M71.595 33.574s-5.036 3.41.132 7.286c5.168 3.874 9.594-2.37 9.594-2.37s1.685-3.986-1.12-5.645c-2.802-1.658-8.606.729-8.606.729M98.481 55.62s-4.684-1.231-5.07 3.123c-.388 4.354 2.818 6.662 4.518 6.647 1.699-.016 3.375-2.752 3.355-4.998-.02-2.248-1.534-4.615-2.803-4.771" fill="#E6225A" transform="translate(146.136)"/><path d="M24.656 125.781v6.556h-3.424l-.305-3.4h-6.582v23.352l3.322.57v2.565H7.01v-2.565l3.321-.57v-23.352H3.729l-.285 3.4H0v-6.556h24.656zm2.29 2.586v-2.586h10.657v2.586l-3.32.57v10.24h14.385v-10.24l-3.321-.57v-2.586h10.657v2.586l-3.322.57v23.352l3.322.57v2.565H45.347v-2.565l3.321-.57v-9.956H34.282v9.956l3.321.57v2.565H26.946v-2.565l3.322-.57v-23.352l-3.322-.57zm32.143 27.057v-2.565l3.321-.57v-23.352l-3.321-.57v-2.586H81.87v7.126h-3.444l-.326-3.97H66.425v9.59h11.35v3.155h-11.35v10.607h11.92l.326-3.97h3.423v7.105H59.09zm66.139-23.739l-.102-.02-9.598 23.76h-2.669l-9.597-23.74-.102.02.407 11.992v8.592l3.322.57v2.565H96.232v-2.565l3.321-.57v-23.352l-3.321-.57v-2.586h8.456l9.455 24.085h.122l9.434-24.085h8.477v2.586l-3.321.57v23.352l3.321.57v2.565H121.52v-2.565l3.322-.57v-8.592l.387-12.012zm20.344-5.904v2.586l-3.321.57v16.939c0 2.24.638 3.94 1.915 5.1 1.277 1.16 2.962 1.74 5.054 1.74 2.2 0 3.973-.576 5.318-1.73 1.345-1.154 2.017-2.857 2.017-5.11v-16.94l-3.321-.57v-2.585h10.657v2.586l-3.322.57v16.939c0 3.217-1.049 5.683-3.148 7.4-2.099 1.717-4.832 2.576-8.201 2.576-3.274 0-5.923-.859-7.947-2.576s-3.036-4.183-3.036-7.4v-16.94l-3.322-.57v-2.585h10.657zm21.058 29.643v-2.565l3.321-.57v-23.352l-3.321-.57v-2.586h10.657v2.586l-3.322.57v23.352h10.31l.307-3.4h3.423v6.535H166.63zm37.522-29.643c3.097 0 5.518.669 7.264 2.006 1.746 1.337 2.618 3.342 2.618 6.016 0 1.316-.417 2.494-1.253 3.532-.835 1.038-1.939 1.809-3.311 2.31 1.78.38 3.186 1.256 4.218 2.627 1.032 1.371 1.549 2.966 1.549 4.785 0 2.714-.883 4.787-2.65 6.22-1.765 1.431-4.156 2.147-7.172 2.147h-14.264v-2.565l3.322-.57v-23.352l-3.322-.57v-2.586H204.152zm-5.665 15.738v10.77h6.928c1.834 0 3.257-.451 4.269-1.354s1.518-2.182 1.518-3.838c0-1.737-.424-3.101-1.274-4.092-.849-.99-2.15-1.486-3.902-1.486h-7.539zm0-3.135h6.704c1.44-.041 2.605-.469 3.494-1.283.89-.814 1.335-1.94 1.335-3.38 0-1.601-.502-2.799-1.508-3.593-1.005-.794-2.458-1.191-4.36-1.191h-5.665v9.447zm20.161 17.04v-2.565l3.321-.57v-23.352l-3.321-.57v-2.586h22.781v7.126h-3.444l-.326-3.97h-11.675v9.59h11.35v3.155h-11.35v10.607h11.92l.326-3.97h3.423v7.105h-23.005zm39.723-29.622c3.233 0 5.712.716 7.437 2.148 1.725 1.431 2.588 3.464 2.588 6.097 0 1.439-.4 2.715-1.202 3.828-.802 1.113-1.95 1.988-3.444 2.626 1.617.53 2.781 1.391 3.495 2.586.713 1.194 1.07 2.667 1.07 4.418v2.382c0 .909.115 1.58.346 2.015.23.434.611.692 1.14.774l.979.122v2.626h-2.16c-1.562 0-2.673-.543-3.332-1.628-.658-1.086-.988-2.403-.988-3.95v-2.3c0-1.616-.468-2.912-1.406-3.89-.937-.977-2.194-1.465-3.77-1.465h-6.438v10.098l3.32.57v2.565H245.35v-2.565l3.321-.57v-23.352l-3.321-.57v-2.565H258.37zm-5.685 13.233h5.277c2.242 0 3.872-.427 4.89-1.283 1.02-.855 1.529-2.103 1.529-3.746 0-1.56-.49-2.796-1.467-3.705-.978-.91-2.493-1.364-4.544-1.364h-5.685v10.098zm34.017-13.233c3.233 0 5.712.716 7.437 2.148 1.725 1.431 2.588 3.464 2.588 6.097 0 1.439-.4 2.715-1.202 3.828-.802 1.113-1.95 1.988-3.444 2.626 1.617.53 2.782 1.391 3.495 2.586.713 1.194 1.07 2.667 1.07 4.418v2.382c0 .909.115 1.58.346 2.015.23.434.611.692 1.141.774l.978.122v2.626h-2.16c-1.562 0-2.673-.543-3.331-1.628-.66-1.086-.989-2.403-.989-3.95v-2.3c0-1.616-.468-2.912-1.406-3.89-.937-.977-2.194-1.465-3.77-1.465h-6.438v10.098l3.321.57v2.565h-10.657v-2.565l3.321-.57v-23.352l-3.321-.57v-2.565H286.703zm-5.685 13.233h5.277c2.242 0 3.872-.427 4.89-1.283 1.02-.855 1.529-2.103 1.529-3.746 0-1.56-.49-2.796-1.467-3.705-.978-.91-2.493-1.364-4.544-1.364h-5.685v10.098zm26.772-10.668l-3.2.387 6.215 12.093 6.215-12.093-3.178-.387v-2.586h10.188v2.586l-2.506.387L312.72 145v7.289l3.321.57v2.565h-10.636v-2.565l3.321-.57v-7.594l-8.64-15.941-2.486-.387v-2.586h10.189v2.586zm53.485-2.586v6.556h-3.424l-.305-3.4h-6.582v23.352l3.321.57v2.565h-10.657v-2.565l3.322-.57v-23.352h-6.602l-.286 3.4h-3.443v-6.556h24.656zm15.31.02c3.234 0 5.713.717 7.438 2.149 1.726 1.431 2.588 3.464 2.588 6.097 0 1.439-.4 2.715-1.202 3.828-.801 1.113-1.95 1.988-3.444 2.626 1.617.53 2.782 1.391 3.495 2.586.713 1.194 1.07 2.667 1.07 4.418v2.382c0 .909.115 1.58.346 2.015.231.434.611.692 1.141.774l.978.122v2.626h-2.16c-1.562 0-2.672-.543-3.331-1.628-.659-1.086-.988-2.403-.988-3.95v-2.3c0-1.616-.47-2.912-1.406-3.89-.938-.977-2.194-1.465-3.77-1.465h-6.44v10.098l3.322.57v2.565h-10.657v-2.565l3.322-.57v-23.352l-3.322-.57v-2.565h13.021zm-5.684 13.234h5.277c2.242 0 3.872-.427 4.89-1.283 1.02-.855 1.529-2.103 1.529-3.746 0-1.56-.489-2.796-1.467-3.705-.978-.91-2.493-1.364-4.544-1.364H370.9v10.098zm20.996 16.39v-2.566l3.322-.57v-23.352l-3.322-.57v-2.586h22.781v7.126h-3.443l-.326-3.97h-11.676v9.59h11.35v3.155h-11.35v10.607h11.92l.326-3.97h3.424v7.105h-23.006zm26.702 0v-2.566l3.322-.57v-23.352l-3.322-.57v-2.586h22.781v7.126h-3.443l-.326-3.97h-11.676v9.59h11.35v3.155h-11.35v10.607h11.92l.326-3.97h3.423v7.105H418.6z" fill="#716558"/><path d="M124.947 174.781c1.856 0 3.348.572 4.478 1.714 1.13 1.143 1.694 2.619 1.694 4.429v1.943c0 1.817-.565 3.293-1.694 4.429-1.13 1.136-2.622 1.704-4.478 1.704h-5.957v-1.23l1.592-.274v-11.201l-1.592-.274v-1.24h5.957zm-2.441 1.514v11.201h2.441c1.315 0 2.352-.433 3.11-1.299.76-.866 1.138-1.976 1.138-3.33v-1.963c0-1.34-.379-2.444-1.137-3.31-.759-.866-1.796-1.3-3.11-1.3h-2.442zm10.332-.274v-1.24h5.107v1.24l-1.591.274v11.201l1.591.274V189h-5.107v-1.23l1.592-.274v-11.201l-1.592-.274zm17.793 11.368c-.417.436-1.032.848-1.846 1.235-.814.387-1.872.581-3.174.581-1.9 0-3.452-.667-4.653-2.002-1.201-1.335-1.802-3.066-1.802-5.195v-.235c0-2.142.594-3.877 1.782-5.205 1.189-1.328 2.769-1.992 4.742-1.992 1.054 0 1.98.165 2.778.493.798.33 1.47.764 2.017 1.304v2.578h-1.348l-.469-1.963a4.066 4.066 0 0 0-1.157-.644c-.453-.17-.994-.254-1.626-.254-1.536 0-2.72.526-3.55 1.577-.83 1.051-1.245 2.414-1.245 4.087v.254c0 1.699.402 3.073 1.206 4.12.804 1.05 1.913 1.573 3.325 1.573.775 0 1.41-.081 1.905-.244.494-.163.892-.342 1.191-.537v-3.115l-2.334-.098v-1.416h4.258v5.098zm2.217-11.368v-1.24h5.107v1.24l-1.592.274v11.201l1.592.274V189h-5.107v-1.23l1.591-.274v-11.201l-1.591-.274zm17.959-1.24v3.145h-1.641l-.146-1.631h-3.155v11.201l1.592.274V189h-5.107v-1.23l1.591-.274v-11.201h-3.164l-.136 1.63h-1.65v-3.144h11.816zm.898 12.989l1.055-.147 4.97-12.842h1.65l4.884 12.842 1.045.147V189h-4.082v-1.23l1.074-.186-.938-2.617h-5.693l-.967 2.617 1.074.186V189h-4.072v-1.23zm4.56-4.415h4.512l-2.207-6.103h-.058l-2.246 6.103zM186.51 189v-1.23l1.592-.274v-11.201l-1.592-.274v-1.24h5.107v1.24l-1.592.274v11.201h4.942l.146-1.63h1.64V189H186.51zm30.576-11.387l-.049-.01-4.6 11.397h-1.279l-4.6-11.387-.048.01.195 5.752v4.121l1.592.274V189h-5.108v-1.23l1.592-.274v-11.201l-1.592-.274v-1.24h4.053l4.531 11.553h.059l4.522-11.553h4.062v1.24l-1.592.274v11.201l1.592.274V189h-5.107v-1.23l1.591-.274v-4.121l.186-5.762zm4.55 10.157l1.055-.147 4.971-12.842h1.65l4.883 12.842 1.045.147V189h-4.082v-1.23l1.074-.186-.937-2.617h-5.693l-.967 2.617 1.074.186V189h-4.072v-1.23zm4.561-4.415h4.512l-2.207-6.103h-.059l-2.246 6.103zm16.485-8.564c1.55 0 2.737.343 3.564 1.03s1.24 1.662 1.24 2.925c0 .69-.192 1.302-.576 1.836-.384.534-.934.954-1.65 1.26.775.254 1.333.667 1.675 1.24.341.573.512 1.28.512 2.12v1.142c0 .436.056.758.166.967.111.208.293.332.547.37l.469.06V189h-1.035c-.749 0-1.281-.26-1.597-.781-.316-.521-.474-1.153-.474-1.895v-1.103c0-.775-.224-1.397-.673-1.866-.45-.468-1.052-.703-1.807-.703h-3.086v4.844l1.592.274V189h-5.108v-1.23l1.592-.274v-11.201l-1.592-.274v-1.23h6.24zm-2.725 6.348h2.53c1.074 0 1.855-.205 2.343-.616.488-.41.732-1.009.732-1.796 0-.75-.234-1.342-.703-1.778-.468-.436-1.194-.654-2.177-.654h-2.725v4.844zm10.02 6.63l1.591-.273v-11.201l-1.591-.274v-1.24h5.107v1.24l-1.592.274v4.775h1.475l3.974-4.912-1.064-.137v-1.24h4.512v1.24l-1.338.245-4.346 5.39 4.746 5.87 1.338.244V189h-4.668v-1.23l1.084-.137-4.053-5.049h-1.66v4.912l1.592.274V189h-5.107v-1.23zm14.18 1.231v-1.23l1.591-.274v-11.201l-1.592-.274v-1.24h10.918v3.418h-1.65l-.156-1.904h-5.596v4.6h5.44v1.513h-5.44v5.088h5.713l.156-1.904h1.64V189h-11.025zm24.238-14.219v3.145h-1.641l-.147-1.631h-3.154v11.201l1.592.274V189h-5.108v-1.23l1.592-.274v-11.201h-3.164l-.136 1.63h-1.65v-3.144h11.816zm1.044 1.24v-1.24h5.108v1.24l-1.592.274v11.201l1.592.274V189h-5.108v-1.23l1.592-.274v-11.201l-1.592-.274zm20.4-1.24v1.24l-1.591.274V189h-1.924l-6.836-10.977-.058.02v9.453l1.591.274V189h-5.107v-1.23l1.592-.274v-11.201l-1.592-.274v-1.24h3.516l6.836 10.967.058-.02v-9.433l-1.592-.274v-1.24h5.108zm12.628 12.608c-.417.436-1.032.848-1.846 1.235-.814.387-1.872.581-3.174.581-1.9 0-3.452-.667-4.653-2.002-1.201-1.335-1.802-3.066-1.802-5.195v-.235c0-2.142.594-3.877 1.782-5.205 1.189-1.328 2.769-1.992 4.742-1.992 1.054 0 1.98.165 2.778.493.797.33 1.47.764 2.017 1.304v2.578h-1.348l-.469-1.963a4.066 4.066 0 0 0-1.157-.644c-.453-.17-.995-.254-1.626-.254-1.537 0-2.72.526-3.55 1.577-.83 1.051-1.245 2.414-1.245 4.087v.254c0 1.699.402 3.073 1.206 4.12.804 1.05 1.912 1.573 3.325 1.573.775 0 1.41-.081 1.905-.244.494-.163.891-.342 1.191-.537v-3.115l-2.334-.098v-1.416h4.258v5.098z" fill="#9E8E7D"/></g></symbol><symbol id="twitter" viewBox="0 0 34 34"><title>Untitled</title><g id="Page-1" fill="none" fill-rule="evenodd"><g id="twitter" transform="translate(1)" fill-rule="nonzero" fill="#397F31"><path d="M31.353 15.691h.646v-1.294h-.646v1.294zM3.527 14.397c.986-.003 1.339-1.898 0-1.615v1.615zm15.207 17.795H21c.28-1.48-2.198-.939-2.266 0zm3.883-1.618c1.853.345 2.103-.915 2.912-1.616-.445.012-.71-.154-.97-.324-.056 1.238-2.08.507-1.942 1.94zm4.206-2.912c.898-.072.917-1.026 1.618-1.294-.437-.1-.619-.459-1.294-.323-.272.375-.426.869-.324 1.617zm1.618-2.587h.97c-.073-.574.327-1.62-.646-1.295-.101.437-.46.618-.324 1.295zm1.942-1.941c-.193-.67.4-2.126-.323-2.265-.608.383-1.231 2.417.323 2.265zM21 .484C13.624.424 7.668 2.901 3.527 8.25c-.136.172.162.826 0 .967-.989.868-.347.778-.97 2.59-.147.425-.859.42-.972.974-.231 1.131.174 1.491 0 2.586.085.947-.732.992-.647 1.941.656 5.13 2.278 10.18 6.794 12.295.243-.995-1.114-.395-.645-1.617 1.631-.014 1.681 1.552 2.911 1.94 3.779.21 6.137 1.369 9.06.647 1.554-.38 3.847-1.639 4.854-2.587 2.124-2 1.816-5.76 4.53-7.443-1.247-1.511-.116-2.672.646-3.882.238-1.427-1.047-1.326-1.293-2.265C28.16 6.992 20.783 3 13.88 4.367c-3.389.67-5.258 3.246-7.765 4.851.032-1.508 1.803-2.379 2.912-3.233 1.016-.786 2.265-2.119 3.559-2.588 2.896-1.054 6.764-.346 9.06-2.59 2.828 1.677 5.796 3.152 7.441 5.501.328.47-.255.637 0 1.292.253.651 1.182.935 1.295 1.296.213.677-.328.856-.323 1.293.007.738.929 1.45.97 1.943.118 1.445-.752 3.095-.324 4.853-.139.894 1.206.303 1.294.97-.891 1.083-.156 2.723-.323 3.56-1.15 5.769-6.108 8.548-10.03 11.648-9.612 2.466-16.573-2.398-20.062-8.735-.82-1.49-1.044-2.337-.97-4.53-1.155-1.377-.402-2.431 0-4.207.2-.877-.146-1.944 0-2.589C2.359 5.407 11.502-1.983 21 .483z"/><path d="M11.975 24.441c7.17 0 11.092-5.94 11.092-11.09 0-.17-.004-.337-.011-.505A7.927 7.927 0 0 0 25 10.828c-.698.31-1.45.52-2.239.613a3.912 3.912 0 0 0 1.715-2.156 7.818 7.818 0 0 1-2.476.947 3.899 3.899 0 0 0-6.643 3.555 11.069 11.069 0 0 1-8.035-4.073 3.888 3.888 0 0 0-.528 1.959c0 1.352.689 2.546 1.735 3.245a3.87 3.87 0 0 1-1.765-.488l-.001.05a3.9 3.9 0 0 0 3.127 3.821 3.903 3.903 0 0 1-1.76.067 3.902 3.902 0 0 0 3.641 2.708 7.82 7.82 0 0 1-4.841 1.668c-.314 0-.625-.018-.93-.054a11.034 11.034 0 0 0 5.975 1.751" id="Shape"/></g></g></symbol></svg>